ISO-10303-21;
HEADER;
FILE_DESCRIPTION (( 'STEP AP214' ),
    '1' );
FILE_NAME ('Base.STEP',
    '2026-09-13T00:39:52',
    ( '' ),
    ( '' ),
    'SwSTEP 2.0',
    'SolidWorks 2026',
    '' );
FILE_SCHEMA (( 'AUTOMOTIVE_DESIGN' ));
ENDSEC;

DATA;
#1 = FACE_BOUND ( 'NONE', #263, .T. ) ;
#2 = PRESENTATION_STYLE_ASSIGNMENT (( #179 ) ) ;
#3 = PRODUCT_RELATED_PRODUCT_CATEGORY ( 'part', '', ( #276 ) ) ;
#4 = EDGE_CURVE ( 'NONE', #198, #249, #70, .T. ) ;
#5 = ORIENTED_EDGE ( 'NONE', *, *, #339, .T. ) ;
#6 = ORIENTED_EDGE ( 'NONE', *, *, #199, .F. ) ;
#7 = DIRECTION ( 'NONE',  ( -1.000000000000000000, 0.000000000000000000, 0.000000000000000000 ) ) ;
#8 = ORIENTED_EDGE ( 'NONE', *, *, #232, .F. ) ;
#9 =( LENGTH_UNIT ( ) NAMED_UNIT ( * ) SI_UNIT ( .MILLI., .METRE. ) );
#10 = VECTOR ( 'NONE', #311, 1000.000000000000000 ) ;
#11 = LINE ( 'NONE', #118, #387 ) ;
#12 = PLANE ( 'NONE',  #152 ) ;
#13 = DIRECTION ( 'NONE',  ( -1.000000000000000000, 0.000000000000000000, 0.000000000000000000 ) ) ;
#14 = ORIENTED_EDGE ( 'NONE', *, *, #432, .F. ) ;
#15 = EDGE_CURVE ( 'NONE', #246, #40, #148, .T. ) ;
#16 = CARTESIAN_POINT ( 'NONE',  ( -0.000000000000000000, -10.50000000000000000, 32.00000000000000000 ) ) ;
#17 = ORIENTED_EDGE ( 'NONE', *, *, #407, .F. ) ;
#18 = MECHANICAL_DESIGN_GEOMETRIC_PRESENTATION_REPRESENTATION (  '', ( #373 ), #194 ) ;
#19 = CARTESIAN_POINT ( 'NONE',  ( -10.00000000000000178, 30.50000000000000000, 32.00000000000000000 ) ) ;
#20 = LINE ( 'NONE', #22, #103 ) ;
#21 = ORIENTED_EDGE ( 'NONE', *, *, #79, .T. ) ;
#22 = CARTESIAN_POINT ( 'NONE',  ( -3.666520284489896719E-14, -14.49999999999999289, 32.00000000000000000 ) ) ;
#23 = EDGE_LOOP ( 'NONE', ( #436, #14, #408, #83 ) ) ;
#24 = LINE ( 'NONE', #278, #171 ) ;
#25 = EDGE_LOOP ( 'NONE', ( #287, #279 ) ) ;
#26 = ADVANCED_FACE ( 'NONE', ( #374 ), #406, .F. ) ;
#27 = FACE_OUTER_BOUND ( 'NONE', #411, .T. ) ;
#28 = ORIENTED_EDGE ( 'NONE', *, *, #200, .T. ) ;
#29 = CARTESIAN_POINT ( 'NONE',  ( 37.50000000000000711, 0.000000000000000000, 2.999999999999999112 ) ) ;
#30 = CIRCLE ( 'NONE', #361, 37.50000000000000711 ) ;
#31 = VERTEX_POINT ( 'NONE', #109 ) ;
#32 = DIRECTION ( 'NONE',  ( 0.000000000000000000, 0.000000000000000000, -1.000000000000000000 ) ) ;
#33 = EDGE_LOOP ( 'NONE', ( #428, #48, #168, #299 ) ) ;
#34 = PLANE ( 'NONE',  #45 ) ;
#35 = APPLICATION_CONTEXT ( 'automotive_design' ) ;
#36 = FACE_OUTER_BOUND ( 'NONE', #33, .T. ) ;
#37 = EDGE_CURVE ( 'NONE', #471, #388, #358, .T. ) ;
#38 = DIRECTION ( 'NONE',  ( 0.000000000000000000, 0.000000000000000000, -1.000000000000000000 ) ) ;
#39 = LINE ( 'NONE', #138, #186 ) ;
#40 = VERTEX_POINT ( 'NONE', #257 ) ;
#41 = CIRCLE ( 'NONE', #348, 67.50000000000000000 ) ;
#42 = ADVANCED_FACE ( 'NONE', ( #410 ), #330, .F. ) ;
#43 = SURFACE_STYLE_FILL_AREA ( #254 ) ;
#44 = LINE ( 'NONE', #119, #309 ) ;
#45 = AXIS2_PLACEMENT_3D ( 'NONE', #175, #172, #332 ) ;
#46 = PLANE ( 'NONE',  #122 ) ;
#47 = DIRECTION ( 'NONE',  ( 0.000000000000000000, 0.000000000000000000, -1.000000000000000000 ) ) ;
#48 = ORIENTED_EDGE ( 'NONE', *, *, #205, .F. ) ;
#49 = ADVANCED_FACE ( 'NONE', ( #36 ), #328, .T. ) ;
#50 = DIRECTION ( 'NONE',  ( 0.000000000000000000, 0.000000000000000000, -1.000000000000000000 ) ) ;
#51 = CARTESIAN_POINT ( 'NONE',  ( 2.738253373765354937, -14.49999999999999822, 0.000000000000000000 ) ) ;
#52 = ORIENTED_EDGE ( 'NONE', *, *, #4, .T. ) ;
#53 = AXIS2_PLACEMENT_3D ( 'NONE', #326, #365, #438 ) ;
#54 = PLANE ( 'NONE',  #208 ) ;
#55 = ORIENTED_EDGE ( 'NONE', *, *, #417, .F. ) ;
#56 = UNCERTAINTY_MEASURE_WITH_UNIT (LENGTH_MEASURE( 1.000000000000000082E-05 ), #72, 'distance_accuracy_value', 'NONE');
#57 = LINE ( 'NONE', #167, #234 ) ;
#58 = ORIENTED_EDGE ( 'NONE', *, *, #432, .T. ) ;
#59 = LINE ( 'NONE', #133, #336 ) ;
#60 = EDGE_CURVE ( 'NONE', #198, #63, #404, .T. ) ;
#61 = ORIENTED_EDGE ( 'NONE', *, *, #37, .F. ) ;
#62 = CARTESIAN_POINT ( 'NONE',  ( -3.666520284489896719E-14, -14.49999999999999289, 0.000000000000000000 ) ) ;
#63 = VERTEX_POINT ( 'NONE', #150 ) ;
#64 = LINE ( 'NONE', #356, #259 ) ;
#65 = ORIENTED_EDGE ( 'NONE', *, *, #60, .T. ) ;
#66 = DIRECTION ( 'NONE',  ( 0.000000000000000000, 0.000000000000000000, -1.000000000000000000 ) ) ;
#67 = VECTOR ( 'NONE', #206, 1000.000000000000000 ) ;
#68 = CARTESIAN_POINT ( 'NONE',  ( 2.738253373765354937, 0.000000000000000000, 0.000000000000000000 ) ) ;
#69 = MANIFOLD_SOLID_BREP ( 'Boss-Extrude4', #441 ) ;
#70 = LINE ( 'NONE', #440, #230 ) ;
#71 = EDGE_CURVE ( 'NONE', #63, #156, #106, .T. ) ;
#72 =( LENGTH_UNIT ( ) NAMED_UNIT ( * ) SI_UNIT ( .MILLI., .METRE. ) );
#73 = DIRECTION ( 'NONE',  ( 0.000000000000000000, 0.000000000000000000, -1.000000000000000000 ) ) ;
#74 = DIRECTION ( 'NONE',  ( -0.000000000000000000, 0.000000000000000000, 1.000000000000000000 ) ) ;
#75 = ORIENTED_EDGE ( 'NONE', *, *, #181, .F. ) ;
#76 = CARTESIAN_POINT ( 'NONE',  ( -10.00000000000000178, -10.50000000000000000, 0.000000000000000000 ) ) ;
#77 = FACE_OUTER_BOUND ( 'NONE', #166, .T. ) ;
#78 = CARTESIAN_POINT ( 'NONE',  ( -10.00000000000000178, -10.50000000000000000, 32.00000000000000000 ) ) ;
#79 = EDGE_CURVE ( 'NONE', #180, #395, #41, .T. ) ;
#80 = VERTEX_POINT ( 'NONE', #225 ) ;
#81 = EDGE_CURVE ( 'NONE', #196, #213, #44, .T. ) ;
#82 = CARTESIAN_POINT ( 'NONE',  ( 9.999999999999998224, 30.50000000000000000, 0.000000000000000000 ) ) ;
#83 = ORIENTED_EDGE ( 'NONE', *, *, #116, .T. ) ;
#84 = AXIS2_PLACEMENT_3D ( 'NONE', #112, #363, #292 ) ;
#85 = DIRECTION ( 'NONE',  ( -1.000000000000000000, 0.000000000000000000, 0.000000000000000000 ) ) ;
#86 = EDGE_LOOP ( 'NONE', ( #258, #357, #310, #52 ) ) ;
#87 = VECTOR ( 'NONE', #265, 1000.000000000000000 ) ;
#88 = CARTESIAN_POINT ( 'NONE',  ( -2.913558959207498411, -0.03293956454274451356, 0.000000000000000000 ) ) ;
#89 = ORIENTED_EDGE ( 'NONE', *, *, #117, .T. ) ;
#90 = CARTESIAN_POINT ( 'NONE',  ( -2.795222444445383037, -10.50000000000000000, 32.00000000000000000 ) ) ;
#91 = ORIENTED_EDGE ( 'NONE', *, *, #181, .T. ) ;
#92 = DIRECTION ( 'NONE',  ( 0.000000000000000000, 0.000000000000000000, 1.000000000000000000 ) ) ;
#93 = ORIENTED_EDGE ( 'NONE', *, *, #144, .T. ) ;
#94 = AXIS2_PLACEMENT_3D ( 'NONE', #302, #446, #335 ) ;
#95 = LINE ( 'NONE', #391, #111 ) ;
#96 = ORIENTED_EDGE ( 'NONE', *, *, #79, .F. ) ;
#97 = DIRECTION ( 'NONE',  ( 0.000000000000000000, 0.000000000000000000, 1.000000000000000000 ) ) ;
#98 = VECTOR ( 'NONE', #448, 1000.000000000000000 ) ;
#99 = ORIENTED_EDGE ( 'NONE', *, *, #158, .T. ) ;
#100 = DIRECTION ( 'NONE',  ( -1.000000000000000000, 0.000000000000000000, 0.000000000000000000 ) ) ;
#101 = VERTEX_POINT ( 'NONE', #381 ) ;
#102 = DIRECTION ( 'NONE',  ( 0.000000000000000000, 1.000000000000000000, -0.000000000000000000 ) ) ;
#103 = VECTOR ( 'NONE', #162, 1000.000000000000000 ) ;
#104 = DIRECTION ( 'NONE',  ( 1.000000000000000000, 0.000000000000000000, 0.000000000000000000 ) ) ;
#105 = CARTESIAN_POINT ( 'NONE',  ( 9.999999999999998224, 30.50000000000000000, 0.000000000000000000 ) ) ;
#106 = LINE ( 'NONE', #403, #472 ) ;
#107 = CARTESIAN_POINT ( 'NONE',  ( 2.738253373765354937, 0.000000000000000000, 32.00000000000000000 ) ) ;
#108 = ADVANCED_FACE ( 'NONE', ( #414 ), #268, .T. ) ;
#109 = CARTESIAN_POINT ( 'NONE',  ( -67.50000000000000000, 0.000000000000000000, 0.000000000000000000 ) ) ;
#110 = PLANE ( 'NONE',  #164 ) ;
#111 = VECTOR ( 'NONE', #316, 1000.000000000000000 ) ;
#112 = CARTESIAN_POINT ( 'NONE',  ( 0.000000000000000000, 30.50000000000000000, 0.000000000000000000 ) ) ;
#113 = EDGE_LOOP ( 'NONE', ( #457, #129 ) ) ;
#114 = DIRECTION ( 'NONE',  ( 0.000000000000000000, 0.000000000000000000, 1.000000000000000000 ) ) ;
#115 = CARTESIAN_POINT ( 'NONE',  ( -10.00000000000000178, 0.000000000000000000, 0.000000000000000000 ) ) ;
#116 = EDGE_CURVE ( 'NONE', #213, #151, #11, .T. ) ;
#117 = EDGE_CURVE ( 'NONE', #452, #460, #341, .T. ) ;
#118 = CARTESIAN_POINT ( 'NONE',  ( -10.00000000000000178, -10.50000000000000000, 0.000000000000000000 ) ) ;
#119 = CARTESIAN_POINT ( 'NONE',  ( -0.000000000000000000, -10.50000000000000000, 0.000000000000000000 ) ) ;
#120 = EDGE_LOOP ( 'NONE', ( #173, #295, #382, #89 ) ) ;
#121 = PRODUCT_DEFINITION_CONTEXT ( 'detailed design', #177, 'design' ) ;
#122 = AXIS2_PLACEMENT_3D ( 'NONE', #266, #191, #153 ) ;
#123 = DIRECTION ( 'NONE',  ( 0.000000000000000000, 0.000000000000000000, 1.000000000000000000 ) ) ;
#124 = ADVANCED_FACE ( 'NONE', ( #380, #378 ), #46, .T. ) ;
#125 = DIRECTION ( 'NONE',  ( 0.000000000000000000, 1.000000000000000000, -0.000000000000000000 ) ) ;
#126 = CIRCLE ( 'NONE', #300, 67.50000000000000000 ) ;
#127 = AXIS2_PLACEMENT_3D ( 'NONE', #286, #74, #217 ) ;
#128 = PLANE ( 'NONE',  #401 ) ;
#129 = ORIENTED_EDGE ( 'NONE', *, *, #215, .T. ) ;
#130 = CARTESIAN_POINT ( 'NONE',  ( 67.50000000000000000, 8.266365894244635122E-15, 0.000000000000000000 ) ) ;
#131 = ORIENTED_EDGE ( 'NONE', *, *, #331, .T. ) ;
#132 = EDGE_CURVE ( 'NONE', #369, #430, #271, .T. ) ;
#133 = CARTESIAN_POINT ( 'NONE',  ( -0.000000000000000000, -10.50000000000000000, 0.000000000000000000 ) ) ;
#134 = EDGE_LOOP ( 'NONE', ( #61, #170, #342, #354 ) ) ;
#135 = AXIS2_PLACEMENT_3D ( 'NONE', #375, #185, #423 ) ;
#136 = LINE ( 'NONE', #62, #445 ) ;
#137 = ORIENTED_EDGE ( 'NONE', *, *, #158, .F. ) ;
#138 = CARTESIAN_POINT ( 'NONE',  ( -67.50000000000000000, 0.000000000000000000, 2.999999999999999112 ) ) ;
#139 = AXIS2_PLACEMENT_3D ( 'NONE', #367, #223, #73 ) ;
#140 = ORIENTED_EDGE ( 'NONE', *, *, #205, .T. ) ;
#141 = LINE ( 'NONE', #366, #370 ) ;
#142 =( NAMED_UNIT ( * ) SI_UNIT ( $, .STERADIAN. ) SOLID_ANGLE_UNIT ( ) );
#143 = LINE ( 'NONE', #323, #283 ) ;
#144 = EDGE_CURVE ( 'NONE', #101, #156, #337, .T. ) ;
#145 = DIRECTION ( 'NONE',  ( 0.000000000000000000, 0.000000000000000000, 1.000000000000000000 ) ) ;
#146 = ORIENTED_EDGE ( 'NONE', *, *, #331, .F. ) ;
#147 = LINE ( 'NONE', #473, #226 ) ;
#148 = CIRCLE ( 'NONE', #296, 37.50000000000000711 ) ;
#149 = PRODUCT_DEFINITION ( 'UNKNOWN', '', #157, #121 ) ;
#150 = CARTESIAN_POINT ( 'NONE',  ( 2.738253373765354937, -10.50000000000000000, 0.000000000000000000 ) ) ;
#151 = VERTEX_POINT ( 'NONE', #78 ) ;
#152 = AXIS2_PLACEMENT_3D ( 'NONE', #451, #415, #224 ) ;
#153 = DIRECTION ( 'NONE',  ( 1.000000000000000000, 0.000000000000000000, 0.000000000000000000 ) ) ;
#154 = CARTESIAN_POINT ( 'NONE',  ( 9.999999999999998224, 0.000000000000000000, 0.000000000000000000 ) ) ;
#155 = CARTESIAN_POINT ( 'NONE',  ( -67.50000000000000000, 0.000000000000000000, 2.999999999999999112 ) ) ;
#156 = VERTEX_POINT ( 'NONE', #419 ) ;
#157 = PRODUCT_DEFINITION_FORMATION_WITH_SPECIFIED_SOURCE ( 'ANY', '', #276, .NOT_KNOWN. ) ;
#158 = EDGE_CURVE ( 'NONE', #430, #80, #233, .T. ) ;
#159 = DIRECTION ( 'NONE',  ( 0.000000000000000000, 0.000000000000000000, 1.000000000000000000 ) ) ;
#160 = AXIS2_PLACEMENT_3D ( 'NONE', #261, #38, #7 ) ;
#161 = CARTESIAN_POINT ( 'NONE',  ( 0.000000000000000000, 0.000000000000000000, 0.000000000000000000 ) ) ;
#162 = DIRECTION ( 'NONE',  ( 1.000000000000000000, -2.528634678958550740E-15, 0.000000000000000000 ) ) ;
#163 = ORIENTED_EDGE ( 'NONE', *, *, #232, .T. ) ;
#164 = AXIS2_PLACEMENT_3D ( 'NONE', #364, #443, #290 ) ;
#165 = FACE_OUTER_BOUND ( 'NONE', #113, .T. ) ;
#166 = EDGE_LOOP ( 'NONE', ( #21, #272, #17, #322 ) ) ;
#167 = CARTESIAN_POINT ( 'NONE',  ( -37.50000000000000711, 4.592425496802575156E-15, 0.000000000000000000 ) ) ;
#168 = ORIENTED_EDGE ( 'NONE', *, *, #262, .T. ) ;
#169 = DIRECTION ( 'NONE',  ( 0.000000000000000000, 1.000000000000000000, -0.000000000000000000 ) ) ;
#170 = ORIENTED_EDGE ( 'NONE', *, *, #280, .T. ) ;
#171 = VECTOR ( 'NONE', #169, 1000.000000000000000 ) ;
#172 = DIRECTION ( 'NONE',  ( 0.000000000000000000, 0.000000000000000000, -1.000000000000000000 ) ) ;
#173 = ORIENTED_EDGE ( 'NONE', *, *, #368, .T. ) ;
#174 = CARTESIAN_POINT ( 'NONE',  ( 67.50000000000000000, 8.266365894244635122E-15, 2.999999999999999112 ) ) ;
#175 = CARTESIAN_POINT ( 'NONE',  ( 0.000000000000000000, 0.000000000000000000, 2.999999999999999112 ) ) ;
#176 = DIRECTION ( 'NONE',  ( 0.000000000000000000, 1.000000000000000000, -0.000000000000000000 ) ) ;
#177 = APPLICATION_CONTEXT ( 'automotive_design' ) ;
#178 = LINE ( 'NONE', #250, #243 ) ;
#179 = SURFACE_STYLE_USAGE ( .BOTH. , #184 ) ;
#180 = VERTEX_POINT ( 'NONE', #155 ) ;
#181 = EDGE_CURVE ( 'NONE', #430, #468, #385, .T. ) ;
#182 = VECTOR ( 'NONE', #85, 1000.000000000000000 ) ;
#183 = ORIENTED_EDGE ( 'NONE', *, *, #379, .T. ) ;
#184 = SURFACE_SIDE_STYLE ('',( #43 ) ) ;
#185 = DIRECTION ( 'NONE',  ( 0.000000000000000000, 0.000000000000000000, -1.000000000000000000 ) ) ;
#186 = VECTOR ( 'NONE', #325, 1000.000000000000000 ) ;
#187 = DIRECTION ( 'NONE',  ( -1.000000000000000000, 0.000000000000000000, 0.000000000000000000 ) ) ;
#188 = CARTESIAN_POINT ( 'NONE',  ( 9.999999999999998224, 0.000000000000000000, 32.00000000000000000 ) ) ;
#189 = ORIENTED_EDGE ( 'NONE', *, *, #383, .T. ) ;
#190 = ADVANCED_FACE ( 'NONE', ( #77 ), #307, .T. ) ;
#191 = DIRECTION ( 'NONE',  ( -0.000000000000000000, 0.000000000000000000, 1.000000000000000000 ) ) ;
#192 = AXIS2_PLACEMENT_3D ( 'NONE', #301, #47, #308 ) ;
#193 = LINE ( 'NONE', #188, #87 ) ;
#194 =( GEOMETRIC_REPRESENTATION_CONTEXT ( 3 ) GLOBAL_UNCERTAINTY_ASSIGNED_CONTEXT ( ( #304 ) ) GLOBAL_UNIT_ASSIGNED_CONTEXT ( ( #9, #400, #142 ) ) REPRESENTATION_CONTEXT ( 'NONE', 'WORKASPACE' ) );
#195 = FACE_OUTER_BOUND ( 'NONE', #277, .T. ) ;
#196 = VERTEX_POINT ( 'NONE', #305 ) ;
#197 = DIRECTION ( 'NONE',  ( -1.000000000000000000, 0.000000000000000000, 0.000000000000000000 ) ) ;
#198 = VERTEX_POINT ( 'NONE', #51 ) ;
#199 = EDGE_CURVE ( 'NONE', #101, #80, #193, .T. ) ;
#200 = EDGE_CURVE ( 'NONE', #80, #204, #347, .T. ) ;
#201 = PLANE ( 'NONE',  #343 ) ;
#202 = ORIENTED_EDGE ( 'NONE', *, *, #269, .F. ) ;
#203 = DIRECTION ( 'NONE',  ( -1.000000000000000000, 0.000000000000000000, 0.000000000000000000 ) ) ;
#204 = VERTEX_POINT ( 'NONE', #19 ) ;
#205 = EDGE_CURVE ( 'NONE', #388, #471, #30, .T. ) ;
#206 = DIRECTION ( 'NONE',  ( 0.000000000000000000, 0.000000000000000000, -1.000000000000000000 ) ) ;
#207 = EDGE_LOOP ( 'NONE', ( #312, #228, #183, #317, #6, #93, #55, #392 ) ) ;
#208 = AXIS2_PLACEMENT_3D ( 'NONE', #241, #431, #349 ) ;
#209 = CARTESIAN_POINT ( 'NONE',  ( -10.00000000000000178, 30.50000000000000000, 0.000000000000000000 ) ) ;
#210 = FACE_OUTER_BOUND ( 'NONE', #120, .T. ) ;
#211 = DIRECTION ( 'NONE',  ( -0.000000000000000000, 0.000000000000000000, 1.000000000000000000 ) ) ;
#212 =( NAMED_UNIT ( * ) SI_UNIT ( $, .STERADIAN. ) SOLID_ANGLE_UNIT ( ) );
#213 = VERTEX_POINT ( 'NONE', #76 ) ;
#214 = ADVANCED_FACE ( 'NONE', ( #449 ), #12, .T. ) ;
#215 = EDGE_CURVE ( 'NONE', #220, #31, #421, .T. ) ;
#216 = ORIENTED_EDGE ( 'NONE', *, *, #346, .T. ) ;
#217 = DIRECTION ( 'NONE',  ( 1.000000000000000000, 0.000000000000000000, 0.000000000000000000 ) ) ;
#218 = AXIS2_PLACEMENT_3D ( 'NONE', #329, #288, #66 ) ;
#219 = CARTESIAN_POINT ( 'NONE',  ( 0.000000000000000000, 0.000000000000000000, 2.999999999999999112 ) ) ;
#220 = VERTEX_POINT ( 'NONE', #130 ) ;
#221 = FACE_OUTER_BOUND ( 'NONE', #462, .T. ) ;
#222 = PRESENTATION_LAYER_ASSIGNMENT (  '', '', ( #373 ) ) ;
#223 = DIRECTION ( 'NONE',  ( 1.000000000000000000, -0.000000000000000000, 0.000000000000000000 ) ) ;
#224 = DIRECTION ( 'NONE',  ( 0.000000000000000000, 0.000000000000000000, 1.000000000000000000 ) ) ;
#225 = CARTESIAN_POINT ( 'NONE',  ( 9.999999999999998224, 30.50000000000000000, 32.00000000000000000 ) ) ;
#226 = VECTOR ( 'NONE', #102, 1000.000000000000000 ) ;
#227 = CARTESIAN_POINT ( 'NONE',  ( -2.750000000000044853, -14.49999999999998579, 0.000000000000000000 ) ) ;
#228 = ORIENTED_EDGE ( 'NONE', *, *, #439, .T. ) ;
#229 = DIRECTION ( 'NONE',  ( -1.000000000000000000, 0.000000000000000000, 0.000000000000000000 ) ) ;
#230 = VECTOR ( 'NONE', #145, 1000.000000000000000 ) ;
#231 = EDGE_LOOP ( 'NONE', ( #294, #137, #360, #216 ) ) ;
#232 = EDGE_CURVE ( 'NONE', #213, #468, #24, .T. ) ;
#233 = LINE ( 'NONE', #82, #247 ) ;
#234 = VECTOR ( 'NONE', #273, 1000.000000000000000 ) ;
#235 = ORIENTED_EDGE ( 'NONE', *, *, #132, .T. ) ;
#236 = DIRECTION ( 'NONE',  ( 0.000000000000000000, 0.000000000000000000, 1.000000000000000000 ) ) ;
#237 = VERTEX_POINT ( 'NONE', #90 ) ;
#238 = DIRECTION ( 'NONE',  ( 0.000000000000000000, 0.000000000000000000, -1.000000000000000000 ) ) ;
#239 = EDGE_LOOP ( 'NONE', ( #28, #202, #75, #99 ) ) ;
#240 = PRODUCT_DEFINITION_SHAPE ( 'NONE', 'NONE',  #149 ) ;
#241 = CARTESIAN_POINT ( 'NONE',  ( -2.913558959207498411, -0.03293956454274451356, 0.000000000000000000 ) ) ;
#242 = ORIENTED_EDGE ( 'NONE', *, *, #71, .T. ) ;
#243 = VECTOR ( 'NONE', #253, 1000.000000000000000 ) ;
#244 = CARTESIAN_POINT ( 'NONE',  ( 67.50000000000000000, 8.266365894244635122E-15, 2.999999999999999112 ) ) ;
#245 = EDGE_CURVE ( 'NONE', #452, #198, #136, .T. ) ;
#246 = VERTEX_POINT ( 'NONE', #389 ) ;
#247 = VECTOR ( 'NONE', #159, 1000.000000000000000 ) ;
#248 = CYLINDRICAL_SURFACE ( 'NONE', #314, 67.50000000000000000 ) ;
#249 = VERTEX_POINT ( 'NONE', #422 ) ;
#250 = CARTESIAN_POINT ( 'NONE',  ( -2.913558959207498411, -0.03293956454274451356, 32.00000000000000000 ) ) ;
#251 = FILL_AREA_STYLE_COLOUR ( '', #434 ) ;
#252 = VECTOR ( 'NONE', #409, 1000.000000000000000 ) ;
#253 = DIRECTION ( 'NONE',  ( 0.01130488865683220573, -0.9999360977044766674, 0.000000000000000000 ) ) ;
#254 = FILL_AREA_STYLE ('',( #251 ) ) ;
#255 = DIRECTION ( 'NONE',  ( 1.000000000000000000, 0.000000000000000000, 0.000000000000000000 ) ) ;
#256 = DIRECTION ( 'NONE',  ( 0.000000000000000000, 0.000000000000000000, 1.000000000000000000 ) ) ;
#257 = CARTESIAN_POINT ( 'NONE',  ( -37.50000000000000711, 4.592425496802575156E-15, 32.00000000000000000 ) ) ;
#258 = ORIENTED_EDGE ( 'NONE', *, *, #417, .T. ) ;
#259 = VECTOR ( 'NONE', #236, 1000.000000000000000 ) ;
#260 = CARTESIAN_POINT ( 'NONE',  ( 0.000000000000000000, 0.000000000000000000, 0.000000000000000000 ) ) ;
#261 = CARTESIAN_POINT ( 'NONE',  ( 0.000000000000000000, 0.000000000000000000, 2.999999999999999112 ) ) ;
#262 = EDGE_CURVE ( 'NONE', #388, #246, #426, .T. ) ;
#263 = EDGE_LOOP ( 'NONE', ( #140, #352 ) ) ;
#264 = AXIS2_PLACEMENT_3D ( 'NONE', #115, #303, #50 ) ;
#265 = DIRECTION ( 'NONE',  ( 0.000000000000000000, 1.000000000000000000, -0.000000000000000000 ) ) ;
#266 = CARTESIAN_POINT ( 'NONE',  ( 0.000000000000000000, 0.000000000000000000, 32.00000000000000000 ) ) ;
#267 = CARTESIAN_POINT ( 'NONE',  ( 0.000000000000000000, 0.000000000000000000, 2.999999999999999112 ) ) ;
#268 = PLANE ( 'NONE',  #264 ) ;
#269 = EDGE_CURVE ( 'NONE', #468, #204, #95, .T. ) ;
#270 = SHAPE_DEFINITION_REPRESENTATION ( #240, #469 ) ;
#271 = LINE ( 'NONE', #154, #396 ) ;
#272 = ORIENTED_EDGE ( 'NONE', *, *, #320, .T. ) ;
#273 = DIRECTION ( 'NONE',  ( 0.000000000000000000, 0.000000000000000000, 1.000000000000000000 ) ) ;
#274 = VECTOR ( 'NONE', #429, 1000.000000000000000 ) ;
#275 = CARTESIAN_POINT ( 'NONE',  ( 0.000000000000000000, 0.000000000000000000, 0.000000000000000000 ) ) ;
#276 = PRODUCT ( 'Base', 'Base', '', ( #453 ) ) ;
#277 = EDGE_LOOP ( 'NONE', ( #424, #282, #420, #58 ) ) ;
#278 = CARTESIAN_POINT ( 'NONE',  ( -10.00000000000000178, 0.000000000000000000, 0.000000000000000000 ) ) ;
#279 = ORIENTED_EDGE ( 'NONE', *, *, #425, .T. ) ;
#280 = EDGE_CURVE ( 'NONE', #471, #40, #57, .T. ) ;
#281 = DIRECTION ( 'NONE',  ( 1.000000000000000000, 0.000000000000000000, 0.000000000000000000 ) ) ;
#282 = ORIENTED_EDGE ( 'NONE', *, *, #117, .F. ) ;
#283 = VECTOR ( 'NONE', #100, 1000.000000000000000 ) ;
#284 = CARTESIAN_POINT ( 'NONE',  ( 0.000000000000000000, 0.000000000000000000, 2.999999999999999112 ) ) ;
#285 = EDGE_LOOP ( 'NONE', ( #464, #319, #163, #324 ) ) ;
#286 = CARTESIAN_POINT ( 'NONE',  ( 0.000000000000000000, 0.000000000000000000, 32.00000000000000000 ) ) ;
#287 = ORIENTED_EDGE ( 'NONE', *, *, #15, .T. ) ;
#288 = DIRECTION ( 'NONE',  ( 1.000000000000000000, -0.000000000000000000, 0.000000000000000000 ) ) ;
#289 = ADVANCED_FACE ( 'NONE', ( #321 ), #318, .T. ) ;
#290 = DIRECTION ( 'NONE',  ( 1.000000000000000000, -2.528634678958550740E-15, 0.000000000000000000 ) ) ;
#291 = ADVANCED_FACE ( 'NONE', ( #195 ), #54, .F. ) ;
#292 = DIRECTION ( 'NONE',  ( 0.000000000000000000, 0.000000000000000000, 1.000000000000000000 ) ) ;
#293 = DIRECTION ( 'NONE',  ( -1.000000000000000000, 0.000000000000000000, 0.000000000000000000 ) ) ;
#294 = ORIENTED_EDGE ( 'NONE', *, *, #199, .T. ) ;
#295 = ORIENTED_EDGE ( 'NONE', *, *, #4, .F. ) ;
#296 = AXIS2_PLACEMENT_3D ( 'NONE', #372, #211, #104 ) ;
#297 = CARTESIAN_POINT ( 'NONE',  ( -2.750000000000044853, -14.49999999999998579, 0.000000000000000000 ) ) ;
#298 = EDGE_CURVE ( 'NONE', #196, #452, #456, .T. ) ;
#299 = ORIENTED_EDGE ( 'NONE', *, *, #425, .F. ) ;
#300 = AXIS2_PLACEMENT_3D ( 'NONE', #463, #238, #197 ) ;
#301 = CARTESIAN_POINT ( 'NONE',  ( 0.000000000000000000, 0.000000000000000000, 2.999999999999999112 ) ) ;
#302 = CARTESIAN_POINT ( 'NONE',  ( -0.000000000000000000, -0.000000000000000000, 0.03200000000000000067 ) ) ;
#303 = DIRECTION ( 'NONE',  ( 1.000000000000000000, -0.000000000000000000, 0.000000000000000000 ) ) ;
#304 = UNCERTAINTY_MEASURE_WITH_UNIT (LENGTH_MEASURE( 1.000000000000000082E-05 ), #9, 'distance_accuracy_value', 'NONE');
#305 = CARTESIAN_POINT ( 'NONE',  ( -2.795222444445383037, -10.50000000000000000, 0.000000000000000000 ) ) ;
#306 = APPLICATION_PROTOCOL_DEFINITION ( 'draft international standard', 'automotive_design', 1998, #177 ) ;
#307 = CYLINDRICAL_SURFACE ( 'NONE', #192, 67.50000000000000000 ) ;
#308 = DIRECTION ( 'NONE',  ( -1.000000000000000000, 0.000000000000000000, 0.000000000000000000 ) ) ;
#309 = VECTOR ( 'NONE', #455, 1000.000000000000000 ) ;
#310 = ORIENTED_EDGE ( 'NONE', *, *, #60, .F. ) ;
#311 = DIRECTION ( 'NONE',  ( 0.000000000000000000, 0.000000000000000000, 1.000000000000000000 ) ) ;
#312 = ORIENTED_EDGE ( 'NONE', *, *, #450, .F. ) ;
#313 = CARTESIAN_POINT ( 'NONE',  ( 9.999999999999998224, -10.50000000000000000, 0.000000000000000000 ) ) ;
#314 = AXIS2_PLACEMENT_3D ( 'NONE', #284, #359, #386 ) ;
#315 = ORIENTED_EDGE ( 'NONE', *, *, #320, .F. ) ;
#316 = DIRECTION ( 'NONE',  ( 0.000000000000000000, 0.000000000000000000, 1.000000000000000000 ) ) ;
#317 = ORIENTED_EDGE ( 'NONE', *, *, #200, .F. ) ;
#318 = CYLINDRICAL_SURFACE ( 'NONE', #467, 37.50000000000000711 ) ;
#319 = ORIENTED_EDGE ( 'NONE', *, *, #116, .F. ) ;
#320 = EDGE_CURVE ( 'NONE', #395, #220, #394, .T. ) ;
#321 = FACE_OUTER_BOUND ( 'NONE', #134, .T. ) ;
#322 = ORIENTED_EDGE ( 'NONE', *, *, #383, .F. ) ;
#323 = CARTESIAN_POINT ( 'NONE',  ( -0.000000000000000000, -10.50000000000000000, 32.00000000000000000 ) ) ;
#324 = ORIENTED_EDGE ( 'NONE', *, *, #269, .T. ) ;
#325 = DIRECTION ( 'NONE',  ( 0.000000000000000000, 0.000000000000000000, -1.000000000000000000 ) ) ;
#326 = CARTESIAN_POINT ( 'NONE',  ( 0.000000000000000000, 0.000000000000000000, 0.000000000000000000 ) ) ;
#327 = CARTESIAN_POINT ( 'NONE',  ( -37.50000000000000711, 4.592425496802575156E-15, 2.999999999999999112 ) ) ;
#328 = CYLINDRICAL_SURFACE ( 'NONE', #53, 37.50000000000000711 ) ;
#329 = CARTESIAN_POINT ( 'NONE',  ( 9.999999999999998224, 0.000000000000000000, 0.000000000000000000 ) ) ;
#330 = PLANE ( 'NONE',  #139 ) ;
#331 = EDGE_CURVE ( 'NONE', #369, #63, #59, .T. ) ;
#332 = DIRECTION ( 'NONE',  ( -1.000000000000000000, 0.000000000000000000, -0.000000000000000000 ) ) ;
#333 = ORIENTED_EDGE ( 'NONE', *, *, #144, .F. ) ;
#334 = ORIENTED_EDGE ( 'NONE', *, *, #81, .F. ) ;
#335 = DIRECTION ( 'NONE',  ( 1.000000000000000000, 0.000000000000000000, 0.000000000000000000 ) ) ;
#336 = VECTOR ( 'NONE', #203, 1000.000000000000000 ) ;
#337 = LINE ( 'NONE', #16, #182 ) ;
#338 = DIRECTION ( 'NONE',  ( 0.000000000000000000, 0.000000000000000000, -1.000000000000000000 ) ) ;
#339 = EDGE_CURVE ( 'NONE', #395, #180, #126, .T. ) ;
#340 = ADVANCED_FACE ( 'NONE', ( #351 ), #201, .T. ) ;
#341 = LINE ( 'NONE', #227, #454 ) ;
#342 = ORIENTED_EDGE ( 'NONE', *, *, #15, .F. ) ;
#343 = AXIS2_PLACEMENT_3D ( 'NONE', #397, #125, #97 ) ;
#344 = CARTESIAN_POINT ( 'NONE',  ( 0.000000000000000000, 30.50000000000000000, 0.000000000000000000 ) ) ;
#345 =( GEOMETRIC_REPRESENTATION_CONTEXT ( 3 ) GLOBAL_UNCERTAINTY_ASSIGNED_CONTEXT ( ( #56 ) ) GLOBAL_UNIT_ASSIGNED_CONTEXT ( ( #72, #371, #212 ) ) REPRESENTATION_CONTEXT ( 'NONE', 'WORKASPACE' ) );
#346 = EDGE_CURVE ( 'NONE', #369, #101, #64, .T. ) ;
#347 = LINE ( 'NONE', #413, #384 ) ;
#348 = AXIS2_PLACEMENT_3D ( 'NONE', #219, #447, #229 ) ;
#349 = DIRECTION ( 'NONE',  ( 0.01130488865683220573, -0.9999360977044766674, 0.000000000000000000 ) ) ;
#350 = ORIENTED_EDGE ( 'NONE', *, *, #346, .F. ) ;
#351 = FACE_OUTER_BOUND ( 'NONE', #418, .T. ) ;
#352 = ORIENTED_EDGE ( 'NONE', *, *, #37, .T. ) ;
#353 = CARTESIAN_POINT ( 'NONE',  ( 37.50000000000000711, 0.000000000000000000, 0.000000000000000000 ) ) ;
#354 = ORIENTED_EDGE ( 'NONE', *, *, #262, .F. ) ;
#355 = ADVANCED_FACE ( 'NONE', ( #27 ), #248, .T. ) ;
#356 = CARTESIAN_POINT ( 'NONE',  ( 9.999999999999998224, -10.50000000000000000, 0.000000000000000000 ) ) ;
#357 = ORIENTED_EDGE ( 'NONE', *, *, #71, .F. ) ;
#358 = CIRCLE ( 'NONE', #160, 37.50000000000000711 ) ;
#359 = DIRECTION ( 'NONE',  ( 0.000000000000000000, 0.000000000000000000, -1.000000000000000000 ) ) ;
#360 = ORIENTED_EDGE ( 'NONE', *, *, #132, .F. ) ;
#361 = AXIS2_PLACEMENT_3D ( 'NONE', #267, #338, #13 ) ;
#362 = DIRECTION ( 'NONE',  ( 0.000000000000000000, 0.000000000000000000, 1.000000000000000000 ) ) ;
#363 = DIRECTION ( 'NONE',  ( 0.000000000000000000, 1.000000000000000000, -0.000000000000000000 ) ) ;
#364 = CARTESIAN_POINT ( 'NONE',  ( -3.666520284489896719E-14, -14.49999999999999289, 0.000000000000000000 ) ) ;
#365 = DIRECTION ( 'NONE',  ( 0.000000000000000000, 0.000000000000000000, 1.000000000000000000 ) ) ;
#366 = CARTESIAN_POINT ( 'NONE',  ( -2.795222444445383037, -10.50000000000000000, 0.000000000000000000 ) ) ;
#367 = CARTESIAN_POINT ( 'NONE',  ( 2.738253373765354937, 0.000000000000000000, 0.000000000000000000 ) ) ;
#368 = EDGE_CURVE ( 'NONE', #460, #249, #20, .T. ) ;
#369 = VERTEX_POINT ( 'NONE', #313 ) ;
#370 = VECTOR ( 'NONE', #362, 1000.000000000000000 ) ;
#371 =( NAMED_UNIT ( * ) PLANE_ANGLE_UNIT ( ) SI_UNIT ( $, .RADIAN. ) );
#372 = CARTESIAN_POINT ( 'NONE',  ( 0.000000000000000000, 0.000000000000000000, 32.00000000000000000 ) ) ;
#373 = STYLED_ITEM ( 'NONE', ( #2 ), #69 ) ;
#374 = FACE_OUTER_BOUND ( 'NONE', #239, .T. ) ;
#375 = CARTESIAN_POINT ( 'NONE',  ( 0.000000000000000000, 0.000000000000000000, 0.000000000000000000 ) ) ;
#376 = ADVANCED_FACE ( 'NONE', ( #459, #165 ), #128, .F. ) ;
#377 = CIRCLE ( 'NONE', #127, 37.50000000000000711 ) ;
#378 = FACE_OUTER_BOUND ( 'NONE', #25, .T. ) ;
#379 = EDGE_CURVE ( 'NONE', #151, #204, #147, .T. ) ;
#380 = FACE_BOUND ( 'NONE', #207, .T. ) ;
#381 = CARTESIAN_POINT ( 'NONE',  ( 9.999999999999998224, -10.50000000000000000, 32.00000000000000000 ) ) ;
#382 = ORIENTED_EDGE ( 'NONE', *, *, #245, .F. ) ;
#383 = EDGE_CURVE ( 'NONE', #180, #31, #39, .T. ) ;
#384 = VECTOR ( 'NONE', #187, 1000.000000000000000 ) ;
#385 = LINE ( 'NONE', #344, #98 ) ;
#386 = DIRECTION ( 'NONE',  ( -1.000000000000000000, 0.000000000000000000, 0.000000000000000000 ) ) ;
#387 = VECTOR ( 'NONE', #123, 1000.000000000000000 ) ;
#388 = VERTEX_POINT ( 'NONE', #29 ) ;
#389 = CARTESIAN_POINT ( 'NONE',  ( 37.50000000000000711, 0.000000000000000000, 32.00000000000000000 ) ) ;
#390 = ORIENTED_EDGE ( 'NONE', *, *, #339, .F. ) ;
#391 = CARTESIAN_POINT ( 'NONE',  ( -10.00000000000000178, 30.50000000000000000, 0.000000000000000000 ) ) ;
#392 = ORIENTED_EDGE ( 'NONE', *, *, #368, .F. ) ;
#393 = ADVANCED_FACE ( 'NONE', ( #210 ), #110, .F. ) ;
#394 = LINE ( 'NONE', #244, #67 ) ;
#395 = VERTEX_POINT ( 'NONE', #174 ) ;
#396 = VECTOR ( 'NONE', #416, 1000.000000000000000 ) ;
#397 = CARTESIAN_POINT ( 'NONE',  ( 0.000000000000000000, -10.50000000000000000, 0.000000000000000000 ) ) ;
#398 = ORIENTED_EDGE ( 'NONE', *, *, #215, .F. ) ;
#399 = PLANE ( 'NONE',  #218 ) ;
#400 =( NAMED_UNIT ( * ) PLANE_ANGLE_UNIT ( ) SI_UNIT ( $, .RADIAN. ) );
#401 = AXIS2_PLACEMENT_3D ( 'NONE', #275, #461, #255 ) ;
#402 = FACE_OUTER_BOUND ( 'NONE', #231, .T. ) ;
#403 = CARTESIAN_POINT ( 'NONE',  ( 2.738253373765354937, -10.50000000000000000, 0.000000000000000000 ) ) ;
#404 = LINE ( 'NONE', #68, #412 ) ;
#405 = APPLICATION_PROTOCOL_DEFINITION ( 'draft international standard', 'automotive_design', 1998, #35 ) ;
#406 = PLANE ( 'NONE',  #84 ) ;
#407 = EDGE_CURVE ( 'NONE', #31, #220, #437, .T. ) ;
#408 = ORIENTED_EDGE ( 'NONE', *, *, #81, .T. ) ;
#409 = DIRECTION ( 'NONE',  ( 0.000000000000000000, 1.000000000000000000, -0.000000000000000000 ) ) ;
#410 = FACE_OUTER_BOUND ( 'NONE', #86, .T. ) ;
#411 = EDGE_LOOP ( 'NONE', ( #315, #5, #189, #398 ) ) ;
#412 = VECTOR ( 'NONE', #176, 1000.000000000000000 ) ;
#413 = CARTESIAN_POINT ( 'NONE',  ( 0.000000000000000000, 30.50000000000000000, 32.00000000000000000 ) ) ;
#414 = FACE_OUTER_BOUND ( 'NONE', #285, .T. ) ;
#415 = DIRECTION ( 'NONE',  ( 0.000000000000000000, 1.000000000000000000, -0.000000000000000000 ) ) ;
#416 = DIRECTION ( 'NONE',  ( 0.000000000000000000, 1.000000000000000000, -0.000000000000000000 ) ) ;
#417 = EDGE_CURVE ( 'NONE', #249, #156, #435, .T. ) ;
#418 = EDGE_LOOP ( 'NONE', ( #333, #350, #131, #242 ) ) ;
#419 = CARTESIAN_POINT ( 'NONE',  ( 2.738253373765354937, -10.50000000000000000, 32.00000000000000000 ) ) ;
#420 = ORIENTED_EDGE ( 'NONE', *, *, #298, .F. ) ;
#421 = CIRCLE ( 'NONE', #135, 67.50000000000000000 ) ;
#422 = CARTESIAN_POINT ( 'NONE',  ( 2.738253373765354937, -14.49999999999999822, 32.00000000000000000 ) ) ;
#423 = DIRECTION ( 'NONE',  ( -1.000000000000000000, 0.000000000000000000, 0.000000000000000000 ) ) ;
#424 = ORIENTED_EDGE ( 'NONE', *, *, #450, .T. ) ;
#425 = EDGE_CURVE ( 'NONE', #40, #246, #377, .T. ) ;
#426 = LINE ( 'NONE', #353, #10 ) ;
#427 = ADVANCED_FACE ( 'NONE', ( #1, #221 ), #34, .F. ) ;
#428 = ORIENTED_EDGE ( 'NONE', *, *, #280, .F. ) ;
#429 = DIRECTION ( 'NONE',  ( 0.01130488865683220573, -0.9999360977044766674, 0.000000000000000000 ) ) ;
#430 = VERTEX_POINT ( 'NONE', #105 ) ;
#431 = DIRECTION ( 'NONE',  ( -0.9999360977044766674, -0.01130488865683220573, 0.000000000000000000 ) ) ;
#432 = EDGE_CURVE ( 'NONE', #196, #237, #141, .T. ) ;
#433 = EDGE_LOOP ( 'NONE', ( #444, #442, #65, #146, #235, #91, #8, #334 ) ) ;
#434 = COLOUR_RGB ( '',0.7921568627450980005, 0.8196078431372548767, 0.9333333333333333481 ) ;
#435 = LINE ( 'NONE', #107, #252 ) ;
#436 = ORIENTED_EDGE ( 'NONE', *, *, #439, .F. ) ;
#437 = CIRCLE ( 'NONE', #458, 67.50000000000000000 ) ;
#438 = DIRECTION ( 'NONE',  ( 1.000000000000000000, 0.000000000000000000, 0.000000000000000000 ) ) ;
#439 = EDGE_CURVE ( 'NONE', #237, #151, #143, .T. ) ;
#440 = CARTESIAN_POINT ( 'NONE',  ( 2.738253373765354937, -14.49999999999999822, 0.000000000000000000 ) ) ;
#441 = CLOSED_SHELL ( 'NONE', ( #190, #289, #49, #393, #42, #340, #465, #26, #108, #214, #291, #124, #376, #355, #427 ) ) ;
#442 = ORIENTED_EDGE ( 'NONE', *, *, #245, .T. ) ;
#443 = DIRECTION ( 'NONE',  ( -2.528634678958550740E-15, -1.000000000000000000, 0.000000000000000000 ) ) ;
#444 = ORIENTED_EDGE ( 'NONE', *, *, #298, .T. ) ;
#445 = VECTOR ( 'NONE', #466, 1000.000000000000000 ) ;
#446 = DIRECTION ( 'NONE',  ( 0.000000000000000000, 0.000000000000000000, 1.000000000000000000 ) ) ;
#447 = DIRECTION ( 'NONE',  ( 0.000000000000000000, 0.000000000000000000, -1.000000000000000000 ) ) ;
#448 = DIRECTION ( 'NONE',  ( -1.000000000000000000, 0.000000000000000000, 0.000000000000000000 ) ) ;
#449 = FACE_OUTER_BOUND ( 'NONE', #23, .T. ) ;
#450 = EDGE_CURVE ( 'NONE', #237, #460, #178, .T. ) ;
#451 = CARTESIAN_POINT ( 'NONE',  ( 0.000000000000000000, -10.50000000000000000, 0.000000000000000000 ) ) ;
#452 = VERTEX_POINT ( 'NONE', #297 ) ;
#453 = PRODUCT_CONTEXT ( 'NONE', #35, 'mechanical' ) ;
#454 = VECTOR ( 'NONE', #114, 1000.000000000000000 ) ;
#455 = DIRECTION ( 'NONE',  ( -1.000000000000000000, 0.000000000000000000, 0.000000000000000000 ) ) ;
#456 = LINE ( 'NONE', #88, #274 ) ;
#457 = ORIENTED_EDGE ( 'NONE', *, *, #407, .T. ) ;
#458 = AXIS2_PLACEMENT_3D ( 'NONE', #260, #32, #293 ) ;
#459 = FACE_BOUND ( 'NONE', #433, .T. ) ;
#460 = VERTEX_POINT ( 'NONE', #470 ) ;
#461 = DIRECTION ( 'NONE',  ( -0.000000000000000000, 0.000000000000000000, 1.000000000000000000 ) ) ;
#462 = EDGE_LOOP ( 'NONE', ( #96, #390 ) ) ;
#463 = CARTESIAN_POINT ( 'NONE',  ( 0.000000000000000000, 0.000000000000000000, 2.999999999999999112 ) ) ;
#464 = ORIENTED_EDGE ( 'NONE', *, *, #379, .F. ) ;
#465 = ADVANCED_FACE ( 'NONE', ( #402 ), #399, .F. ) ;
#466 = DIRECTION ( 'NONE',  ( 1.000000000000000000, -2.528634678958550740E-15, 0.000000000000000000 ) ) ;
#467 = AXIS2_PLACEMENT_3D ( 'NONE', #161, #92, #281 ) ;
#468 = VERTEX_POINT ( 'NONE', #209 ) ;
#469 = ADVANCED_BREP_SHAPE_REPRESENTATION ( 'Base', ( #69, #94 ), #345 ) ;
#470 = CARTESIAN_POINT ( 'NONE',  ( -2.750000000000044853, -14.49999999999998579, 32.00000000000000000 ) ) ;
#471 = VERTEX_POINT ( 'NONE', #327 ) ;
#472 = VECTOR ( 'NONE', #256, 1000.000000000000000 ) ;
#473 = CARTESIAN_POINT ( 'NONE',  ( -10.00000000000000178, 0.000000000000000000, 32.00000000000000000 ) ) ;
ENDSEC;
END-ISO-10303-21;
