ISO-10303-21;
HEADER;
FILE_DESCRIPTION (( 'STEP AP214' ),
    '1' );
FILE_NAME ('L1V1.STEP',
    '2026-09-13T00:55:58',
    ( '' ),
    ( '' ),
    'SwSTEP 2.0',
    'SolidWorks 2026',
    '' );
FILE_SCHEMA (( 'AUTOMOTIVE_DESIGN' ));
ENDSEC;

DATA;
#1 = EDGE_CURVE ( 'NONE', #631, #20, #31, .T. ) ;
#2 = AXIS2_PLACEMENT_3D ( 'NONE', #186, #565, #477 ) ;
#3 = CARTESIAN_POINT ( 'NONE',  ( 0.000000000000000000, 0.000000000000000000, -27.50000000000000000 ) ) ;
#4 = EDGE_LOOP ( 'NONE', ( #725, #329, #431, #258 ) ) ;
#5 = DIRECTION ( 'NONE',  ( 1.000000000000000000, 0.000000000000000000, 0.000000000000000000 ) ) ;
#6 = ORIENTED_EDGE ( 'NONE', *, *, #557, .F. ) ;
#7 = FACE_OUTER_BOUND ( 'NONE', #36, .T. ) ;
#8 = CARTESIAN_POINT ( 'NONE',  ( -14.99999999999999467, 55.99999999999998579, -4.000000000000000000 ) ) ;
#9 = ORIENTED_EDGE ( 'NONE', *, *, #612, .T. ) ;
#10 = CARTESIAN_POINT ( 'NONE',  ( 38.78053097873644361, 120.1984482347303356, -4.000000000000000000 ) ) ;
#11 = DIRECTION ( 'NONE',  ( -0.000000000000000000, 0.000000000000000000, 1.000000000000000000 ) ) ;
#12 = DIRECTION ( 'NONE',  ( 0.000000000000000000, 0.000000000000000000, -1.000000000000000000 ) ) ;
#13 = ORIENTED_EDGE ( 'NONE', *, *, #744, .T. ) ;
#14 = UNCERTAINTY_MEASURE_WITH_UNIT (LENGTH_MEASURE( 1.000000000000000082E-05 ), #509, 'distance_accuracy_value', 'NONE');
#15 = DIRECTION ( 'NONE',  ( 1.000000000000000000, 0.000000000000000000, 0.000000000000000000 ) ) ;
#16 = CIRCLE ( 'NONE', #140, 40.00000000000000000 ) ;
#17 = ORIENTED_EDGE ( 'NONE', *, *, #712, .F. ) ;
#18 = ORIENTED_EDGE ( 'NONE', *, *, #305, .F. ) ;
#19 = EDGE_CURVE ( 'NONE', #298, #821, #740, .T. ) ;
#20 = VERTEX_POINT ( 'NONE', #27 ) ;
#21 = AXIS2_PLACEMENT_3D ( 'NONE', #66, #360, #494 ) ;
#22 = DIRECTION ( 'NONE',  ( 0.000000000000000000, 0.000000000000000000, -1.000000000000000000 ) ) ;
#23 = CARTESIAN_POINT ( 'NONE',  ( -40.00000000000000000, 0.000000000000000000, 6.000000000000000000 ) ) ;
#24 = EDGE_LOOP ( 'NONE', ( #18, #751, #807, #464 ) ) ;
#25 = AXIS2_PLACEMENT_3D ( 'NONE', #366, #448, #370 ) ;
#26 = CARTESIAN_POINT ( 'NONE',  ( 14.99999999999998934, 76.00000000000002842, 0.000000000000000000 ) ) ;
#27 = CARTESIAN_POINT ( 'NONE',  ( 37.77066955444212226, 13.16725185485332261, 0.000000000000000000 ) ) ;
#28 = VECTOR ( 'NONE', #411, 1000.000000000000000 ) ;
#29 = VECTOR ( 'NONE', #806, 1000.000000000000000 ) ;
#30 = ORIENTED_EDGE ( 'NONE', *, *, #346, .T. ) ;
#31 = CIRCLE ( 'NONE', #830, 40.00000000000000000 ) ;
#32 = EDGE_CURVE ( 'NONE', #479, #946, #415, .T. ) ;
#33 = CARTESIAN_POINT ( 'NONE',  ( -1.040834085586084257E-14, 130.0000000000000284, 0.000000000000000000 ) ) ;
#34 = EDGE_CURVE ( 'NONE', #645, #427, #378, .T. ) ;
#35 = CARTESIAN_POINT ( 'NONE',  ( 4.622231866529366047E-30, 55.99999999999999289, -4.000000000000000000 ) ) ;
#36 = EDGE_LOOP ( 'NONE', ( #791, #278, #314, #925 ) ) ;
#37 = CIRCLE ( 'NONE', #405, 40.00000000000000711 ) ;
#38 = CARTESIAN_POINT ( 'NONE',  ( 0.000000000000000000, 0.000000000000000000, 6.000000000000000000 ) ) ;
#39 = CARTESIAN_POINT ( 'NONE',  ( -1.592040838891559450E-14, 130.0000000000000000, 11.50000000000000000 ) ) ;
#40 = ORIENTED_EDGE ( 'NONE', *, *, #304, .T. ) ;
#41 = CARTESIAN_POINT ( 'NONE',  ( 32.78666305694733296, 27.46402877908911933, 6.000000000000000000 ) ) ;
#42 = FILL_AREA_STYLE ('',( #331 ) ) ;
#43 = CARTESIAN_POINT ( 'NONE',  ( -7.896643701577034768, -1.995830383429684884, 0.000000000000000000 ) ) ;
#44 = ORIENTED_EDGE ( 'NONE', *, *, #731, .T. ) ;
#45 = LINE ( 'NONE', #345, #561 ) ;
#46 = DIRECTION ( 'NONE',  ( 0.000000000000000000, 0.000000000000000000, 1.000000000000000000 ) ) ;
#47 = CARTESIAN_POINT ( 'NONE',  ( -14.99999999999997335, -5.204170427930404717E-15, 0.000000000000000000 ) ) ;
#48 = EDGE_LOOP ( 'NONE', ( #296, #686, #657, #283 ) ) ;
#49 = AXIS2_PLACEMENT_3D ( 'NONE', #864, #132, #357 ) ;
#50 = DIRECTION ( 'NONE',  ( 0.000000000000000000, 0.000000000000000000, 1.000000000000000000 ) ) ;
#51 =( LENGTH_UNIT ( ) NAMED_UNIT ( * ) SI_UNIT ( .MILLI., .METRE. ) );
#52 = FACE_BOUND ( 'NONE', #829, .T. ) ;
#53 = EDGE_LOOP ( 'NONE', ( #175, #799, #358, #157 ) ) ;
#54 = CARTESIAN_POINT ( 'NONE',  ( 2.310027750441731374E-30, -2.163915544149816716E-14, 6.000000000000000000 ) ) ;
#55 = ADVANCED_FACE ( 'NONE', ( #311 ), #892, .F. ) ;
#56 = CARTESIAN_POINT ( 'NONE',  ( 37.77066955444212226, 13.16725185485332084, 0.000000000000000000 ) ) ;
#57 = CARTESIAN_POINT ( 'NONE',  ( 38.78053097873645072, 120.1984482347303356, 6.000000000000000000 ) ) ;
#58 = ORIENTED_EDGE ( 'NONE', *, *, #471, .F. ) ;
#59 = CARTESIAN_POINT ( 'NONE',  ( 0.000000000000000000, 0.000000000000000000, -27.50000000000000000 ) ) ;
#60 = AXIS2_PLACEMENT_3D ( 'NONE', #901, #380, #15 ) ;
#61 = ADVANCED_FACE ( 'NONE', ( #160 ), #887, .F. ) ;
#62 = EDGE_CURVE ( 'NONE', #261, #794, #610, .T. ) ;
#63 = FACE_OUTER_BOUND ( 'NONE', #24, .T. ) ;
#64 = ORIENTED_EDGE ( 'NONE', *, *, #32, .F. ) ;
#65 = DIRECTION ( 'NONE',  ( 0.000000000000000000, 0.000000000000000000, 1.000000000000000000 ) ) ;
#66 = CARTESIAN_POINT ( 'NONE',  ( -15.00000000000000000, 76.00000000000001421, -4.000000000000000000 ) ) ;
#67 = PLANE ( 'NONE',  #396 ) ;
#68 = AXIS2_PLACEMENT_3D ( 'NONE', #267, #698, #638 ) ;
#69 = ORIENTED_EDGE ( 'NONE', *, *, #75, .T. ) ;
#70 = ORIENTED_EDGE ( 'NONE', *, *, #788, .T. ) ;
#71 = FACE_OUTER_BOUND ( 'NONE', #88, .T. ) ;
#72 = DIRECTION ( 'NONE',  ( 1.000000000000000000, 0.000000000000000000, 0.000000000000000000 ) ) ;
#73 = VERTEX_POINT ( 'NONE', #828 ) ;
#74 = VECTOR ( 'NONE', #884, 1000.000000000000000 ) ;
#75 = EDGE_CURVE ( 'NONE', #951, #832, #950, .T. ) ;
#76 = DIRECTION ( 'NONE',  ( -0.2450387941317428153, -0.9695132744684114012, 0.000000000000000000 ) ) ;
#77 = VECTOR ( 'NONE', #718, 1000.000000000000114 ) ;
#78 = FACE_OUTER_BOUND ( 'NONE', #915, .T. ) ;
#79 = VECTOR ( 'NONE', #320, 999.9999999999998863 ) ;
#80 = ORIENTED_EDGE ( 'NONE', *, *, #543, .T. ) ;
#81 = DIRECTION ( 'NONE',  ( 0.000000000000000000, 0.000000000000000000, 1.000000000000000000 ) ) ;
#82 = DIRECTION ( 'NONE',  ( -0.3291812963713330875, -0.9442667388610533896, 0.000000000000000000 ) ) ;
#83 = EDGE_LOOP ( 'NONE', ( #363, #168, #251, #746 ) ) ;
#84 = LINE ( 'NONE', #588, #74 ) ;
#85 = EDGE_CURVE ( 'NONE', #767, #693, #121, .T. ) ;
#86 = CARTESIAN_POINT ( 'NONE',  ( 29.99999999999999645, 79.23686232376991256, 6.000000000000000000 ) ) ;
#87 = ORIENTED_EDGE ( 'NONE', *, *, #129, .F. ) ;
#88 = EDGE_LOOP ( 'NONE', ( #845, #805, #942, #878 ) ) ;
#89 = PRODUCT_CONTEXT ( 'NONE', #351, 'mechanical' ) ;
#90 = CYLINDRICAL_SURFACE ( 'NONE', #636, 50.00000000000000000 ) ;
#91 = EDGE_CURVE ( 'NONE', #772, #527, #387, .T. ) ;
#92 = DIRECTION ( 'NONE',  ( -0.000000000000000000, -0.000000000000000000, -1.000000000000000000 ) ) ;
#93 = EDGE_LOOP ( 'NONE', ( #673, #541, #554, #213 ) ) ;
#94 = ORIENTED_EDGE ( 'NONE', *, *, #941, .T. ) ;
#95 = CARTESIAN_POINT ( 'NONE',  ( 80.00000000000000000, 79.23686232376992677, -4.000000000000000000 ) ) ;
#96 = CIRCLE ( 'NONE', #49, 37.85000000000000142 ) ;
#97 = DIRECTION ( 'NONE',  ( 1.000000000000000000, 0.000000000000000000, 0.000000000000000000 ) ) ;
#98 = ORIENTED_EDGE ( 'NONE', *, *, #797, .F. ) ;
#99 = CARTESIAN_POINT ( 'NONE',  ( -80.00000000000000000, 79.23686232376991256, 6.000000000000000000 ) ) ;
#100 = DIRECTION ( 'NONE',  ( -1.387778780781445676E-16, -1.000000000000000000, 0.000000000000000000 ) ) ;
#101 = EDGE_CURVE ( 'NONE', #677, #166, #606, .T. ) ;
#102 = EDGE_CURVE ( 'NONE', #255, #210, #413, .T. ) ;
#103 = FACE_OUTER_BOUND ( 'NONE', #840, .T. ) ;
#104 = CYLINDRICAL_SURFACE ( 'NONE', #552, 40.00000000000000000 ) ;
#105 = VECTOR ( 'NONE', #82, 999.9999999999998863 ) ;
#106 = VERTEX_POINT ( 'NONE', #467 ) ;
#107 = DIRECTION ( 'NONE',  ( -0.000000000000000000, 0.000000000000000000, 1.000000000000000000 ) ) ;
#108 = DIRECTION ( 'NONE',  ( -0.000000000000000000, -0.000000000000000000, 1.000000000000000000 ) ) ;
#109 = ORIENTED_EDGE ( 'NONE', *, *, #399, .T. ) ;
#110 = AXIS2_PLACEMENT_3D ( 'NONE', #38, #135, #510 ) ;
#111 = DIRECTION ( 'NONE',  ( -0.000000000000000000, 0.000000000000000000, 1.000000000000000000 ) ) ;
#112 = SURFACE_SIDE_STYLE ('',( #185 ) ) ;
#113 = FACE_OUTER_BOUND ( 'NONE', #138, .T. ) ;
#114 = ORIENTED_EDGE ( 'NONE', *, *, #399, .F. ) ;
#115 = CARTESIAN_POINT ( 'NONE',  ( -1.592040838891559450E-14, 130.0000000000000000, 6.000000000000000000 ) ) ;
#116 = CARTESIAN_POINT ( 'NONE',  ( 39.99999999999998579, 130.0000000000000284, 6.000000000000000000 ) ) ;
#117 = AXIS2_PLACEMENT_3D ( 'NONE', #374, #741, #654 ) ;
#118 = CARTESIAN_POINT ( 'NONE',  ( 80.00000000000000000, 79.23686232376992677, 6.000000000000000000 ) ) ;
#119 = EDGE_CURVE ( 'NONE', #166, #496, #371, .T. ) ;
#120 = ORIENTED_EDGE ( 'NONE', *, *, #861, .T. ) ;
#121 = CIRCLE ( 'NONE', #811, 50.00000000000000000 ) ;
#122 = CARTESIAN_POINT ( 'NONE',  ( 7.896643701577034768, -1.995830383429684884, 0.000000000000000000 ) ) ;
#123 = FACE_OUTER_BOUND ( 'NONE', #316, .T. ) ;
#124 = FACE_BOUND ( 'NONE', #518, .T. ) ;
#125 = EDGE_LOOP ( 'NONE', ( #326, #40, #485, #223 ) ) ;
#126 = CARTESIAN_POINT ( 'NONE',  ( 0.000000000000000000, 0.000000000000000000, -27.50000000000000000 ) ) ;
#127 = CARTESIAN_POINT ( 'NONE',  ( 30.00000000000000711, 4.163336342344337815E-15, 0.000000000000000000 ) ) ;
#128 = VERTEX_POINT ( 'NONE', #553 ) ;
#129 = EDGE_CURVE ( 'NONE', #307, #427, #492, .T. ) ;
#130 = DIRECTION ( 'NONE',  ( 0.000000000000000000, 0.000000000000000000, 1.000000000000000000 ) ) ;
#131 = ADVANCED_FACE ( 'NONE', ( #763 ), #771, .F. ) ;
#132 = DIRECTION ( 'NONE',  ( 0.000000000000000000, 0.000000000000000000, -1.000000000000000000 ) ) ;
#133 = ORIENTED_EDGE ( 'NONE', *, *, #642, .F. ) ;
#134 = DIRECTION ( 'NONE',  ( -0.000000000000000000, 0.000000000000000000, 1.000000000000000000 ) ) ;
#135 = DIRECTION ( 'NONE',  ( -0.000000000000000000, 0.000000000000000000, 1.000000000000000000 ) ) ;
#136 = DIRECTION ( 'NONE',  ( -0.000000000000000000, -0.000000000000000000, 1.000000000000000000 ) ) ;
#137 = VERTEX_POINT ( 'NONE', #558 ) ;
#138 = EDGE_LOOP ( 'NONE', ( #452, #932 ) ) ;
#139 = CARTESIAN_POINT ( 'NONE',  ( -31.52433627657942594, 91.48880203035707837, 6.000000000000000000 ) ) ;
#140 = AXIS2_PLACEMENT_3D ( 'NONE', #397, #328, #402 ) ;
#141 = DIRECTION ( 'NONE',  ( -0.000000000000000000, 0.000000000000000000, -1.000000000000000000 ) ) ;
#142 = VECTOR ( 'NONE', #540, 1000.000000000000000 ) ;
#143 = ADVANCED_FACE ( 'NONE', ( #52, #909 ), #766, .T. ) ;
#144 = EDGE_LOOP ( 'NONE', ( #184, #836, #685, #162 ) ) ;
#145 = CARTESIAN_POINT ( 'NONE',  ( -29.99999999999999645, 79.23686232376989835, 6.000000000000000000 ) ) ;
#146 = CARTESIAN_POINT ( 'NONE',  ( -29.99999999999999645, 79.23686232376989835, 0.000000000000000000 ) ) ;
#147 = AXIS2_PLACEMENT_3D ( 'NONE', #337, #547, #704 ) ;
#148 = ORIENTED_EDGE ( 'NONE', *, *, #483, .F. ) ;
#149 = AXIS2_PLACEMENT_3D ( 'NONE', #785, #632, #713 ) ;
#150 = FACE_OUTER_BOUND ( 'NONE', #661, .T. ) ;
#151 = AXIS2_PLACEMENT_3D ( 'NONE', #550, #846, #189 ) ;
#152 = VERTEX_POINT ( 'NONE', #844 ) ;
#153 = VECTOR ( 'NONE', #313, 1000.000000000000000 ) ;
#154 = DIRECTION ( 'NONE',  ( -1.000000000000000000, 0.000000000000000000, 0.000000000000000000 ) ) ;
#155 = AXIS2_PLACEMENT_3D ( 'NONE', #523, #675, #325 ) ;
#156 = ORIENTED_EDGE ( 'NONE', *, *, #853, .F. ) ;
#157 = ORIENTED_EDGE ( 'NONE', *, *, #609, .T. ) ;
#158 = CARTESIAN_POINT ( 'NONE',  ( 29.99999999999999645, 79.23686232376991256, 6.000000000000000000 ) ) ;
#159 = DIRECTION ( 'NONE',  ( -0.000000000000000000, -0.000000000000000000, -1.000000000000000000 ) ) ;
#160 = FACE_OUTER_BOUND ( 'NONE', #373, .T. ) ;
#161 = AXIS2_PLACEMENT_3D ( 'NONE', #691, #768, #544 ) ;
#162 = ORIENTED_EDGE ( 'NONE', *, *, #719, .T. ) ;
#163 = EDGE_CURVE ( 'NONE', #239, #794, #775, .T. ) ;
#164 = EDGE_CURVE ( 'NONE', #255, #414, #16, .T. ) ;
#165 = DIRECTION ( 'NONE',  ( -0.000000000000000000, -0.000000000000000000, 1.000000000000000000 ) ) ;
#166 = VERTEX_POINT ( 'NONE', #849 ) ;
#167 = ORIENTED_EDGE ( 'NONE', *, *, #719, .F. ) ;
#168 = ORIENTED_EDGE ( 'NONE', *, *, #871, .T. ) ;
#169 = DIRECTION ( 'NONE',  ( 0.000000000000000000, 0.000000000000000000, 1.000000000000000000 ) ) ;
#170 = FACE_OUTER_BOUND ( 'NONE', #465, .T. ) ;
#171 = CARTESIAN_POINT ( 'NONE',  ( 0.000000000000000000, 0.000000000000000000, 0.000000000000000000 ) ) ;
#172 = EDGE_LOOP ( 'NONE', ( #850, #468, #227, #602 ) ) ;
#173 = DIRECTION ( 'NONE',  ( 0.000000000000000000, -0.000000000000000000, -1.000000000000000000 ) ) ;
#174 = VECTOR ( 'NONE', #733, 1000.000000000000000 ) ;
#175 = ORIENTED_EDGE ( 'NONE', *, *, #782, .F. ) ;
#176 = ADVANCED_FACE ( 'NONE', ( #930 ), #332, .T. ) ;
#177 = ORIENTED_EDGE ( 'NONE', *, *, #248, .T. ) ;
#178 = CARTESIAN_POINT ( 'NONE',  ( 39.99999999999998579, 130.0000000000000284, 0.000000000000000000 ) ) ;
#179 = PLANE ( 'NONE',  #219 ) ;
#180 = VECTOR ( 'NONE', #944, 1000.000000000000000 ) ;
#181 = DIRECTION ( 'NONE',  ( -0.000000000000000000, -0.000000000000000000, -1.000000000000000000 ) ) ;
#182 = CARTESIAN_POINT ( 'NONE',  ( -80.00000000000001421, 43.92309359765577881, 6.000000000000000000 ) ) ;
#183 = AXIS2_PLACEMENT_3D ( 'NONE', #353, #651, #426 ) ;
#184 = ORIENTED_EDGE ( 'NONE', *, *, #570, .F. ) ;
#185 = SURFACE_STYLE_FILL_AREA ( #42 ) ;
#186 = CARTESIAN_POINT ( 'NONE',  ( -1.387778780781446938E-14, 130.0000000000001137, 0.000000000000000000 ) ) ;
#187 = VERTEX_POINT ( 'NONE', #854 ) ;
#188 = COLOUR_RGB ( '',0.7921568627450980005, 0.8196078431372548767, 0.9333333333333333481 ) ;
#189 = DIRECTION ( 'NONE',  ( -1.000000000000000000, 0.000000000000000000, 0.000000000000000000 ) ) ;
#190 = CARTESIAN_POINT ( 'NONE',  ( 37.77066955444212937, 13.16725185485330307, 6.000000000000000000 ) ) ;
#191 = EDGE_CURVE ( 'NONE', #187, #298, #489, .T. ) ;
#192 = DIRECTION ( 'NONE',  ( 3.469446951953609751E-16, -1.000000000000000000, 0.000000000000000000 ) ) ;
#193 = ORIENTED_EDGE ( 'NONE', *, *, #429, .T. ) ;
#194 = DIRECTION ( 'NONE',  ( -0.000000000000000000, -0.000000000000000000, -1.000000000000000000 ) ) ;
#195 = CARTESIAN_POINT ( 'NONE',  ( -37.77066955444212226, 13.16725185485332261, 0.000000000000000000 ) ) ;
#196 = AXIS2_PLACEMENT_3D ( 'NONE', #568, #130, #707 ) ;
#197 = FACE_OUTER_BOUND ( 'NONE', #246, .T. ) ;
#198 = ORIENTED_EDGE ( 'NONE', *, *, #871, .F. ) ;
#199 = AXIS2_PLACEMENT_3D ( 'NONE', #317, #169, #598 ) ;
#200 = CIRCLE ( 'NONE', #230, 40.00000000000000000 ) ;
#201 = VECTOR ( 'NONE', #100, 1000.000000000000000 ) ;
#202 = DIRECTION ( 'NONE',  ( 1.000000000000000000, 0.000000000000000000, 0.000000000000000000 ) ) ;
#203 = PLANE ( 'NONE',  #21 ) ;
#204 = DIRECTION ( 'NONE',  ( 0.000000000000000000, 0.000000000000000000, -1.000000000000000000 ) ) ;
#205 = ADVANCED_FACE ( 'NONE', ( #197 ), #104, .T. ) ;
#206 = EDGE_LOOP ( 'NONE', ( #680, #902 ) ) ;
#207 = ADVANCED_FACE ( 'NONE', ( #124, #484, #342 ), #634, .T. ) ;
#208 = DIRECTION ( 'NONE',  ( -1.000000000000000000, 0.000000000000000000, 0.000000000000000000 ) ) ;
#209 = CARTESIAN_POINT ( 'NONE',  ( 32.78666305694733296, 27.46402877908911933, 6.000000000000000000 ) ) ;
#210 = VERTEX_POINT ( 'NONE', #781 ) ;
#211 = DIRECTION ( 'NONE',  ( 1.000000000000000000, 0.000000000000000000, 0.000000000000000000 ) ) ;
#212 = DIRECTION ( 'NONE',  ( -0.000000000000000000, -0.000000000000000000, -1.000000000000000000 ) ) ;
#213 = ORIENTED_EDGE ( 'NONE', *, *, #75, .F. ) ;
#214 = LINE ( 'NONE', #728, #717 ) ;
#215 = ORIENTED_EDGE ( 'NONE', *, *, #797, .T. ) ;
#216 = CYLINDRICAL_SURFACE ( 'NONE', #709, 37.85000000000000142 ) ;
#217 = EDGE_LOOP ( 'NONE', ( #167, #6 ) ) ;
#218 = DIRECTION ( 'NONE',  ( -0.9695132744684115123, 0.2450387941317428431, 0.000000000000000000 ) ) ;
#219 = AXIS2_PLACEMENT_3D ( 'NONE', #839, #474, #700 ) ;
#220 = LINE ( 'NONE', #56, #238 ) ;
#221 = EDGE_CURVE ( 'NONE', #239, #210, #420, .T. ) ;
#222 = DIRECTION ( 'NONE',  ( -0.000000000000000000, -0.000000000000000000, 1.000000000000000000 ) ) ;
#223 = ORIENTED_EDGE ( 'NONE', *, *, #841, .T. ) ;
#224 = CYLINDRICAL_SURFACE ( 'NONE', #25, 40.00000000000000000 ) ;
#225 = FACE_BOUND ( 'NONE', #48, .T. ) ;
#226 = CIRCLE ( 'NONE', #929, 40.00000000000000711 ) ;
#227 = ORIENTED_EDGE ( 'NONE', *, *, #459, .F. ) ;
#228 = VECTOR ( 'NONE', #577, 1000.000000000000000 ) ;
#229 = DIRECTION ( 'NONE',  ( 1.000000000000000000, 0.000000000000000000, 0.000000000000000000 ) ) ;
#230 = AXIS2_PLACEMENT_3D ( 'NONE', #386, #11, #586 ) ;
#231 = CARTESIAN_POINT ( 'NONE',  ( -30.00000000000000711, 4.163336342344337815E-15, 0.000000000000000000 ) ) ;
#232 = DIRECTION ( 'NONE',  ( -0.000000000000000000, 0.000000000000000000, 1.000000000000000000 ) ) ;
#233 = ADVANCED_FACE ( 'NONE', ( #113 ), #179, .T. ) ;
#234 = EDGE_CURVE ( 'NONE', #883, #271, #462, .T. ) ;
#235 = CARTESIAN_POINT ( 'NONE',  ( 7.896643701577034768, -1.995830383429684884, -4.000000000000000000 ) ) ;
#236 = LINE ( 'NONE', #739, #105 ) ;
#237 = VERTEX_POINT ( 'NONE', #581 ) ;
#238 = VECTOR ( 'NONE', #289, 999.9999999999998863 ) ;
#239 = VERTEX_POINT ( 'NONE', #511 ) ;
#240 = ORIENTED_EDGE ( 'NONE', *, *, #164, .T. ) ;
#241 = LINE ( 'NONE', #86, #29 ) ;
#242 = VERTEX_POINT ( 'NONE', #372 ) ;
#243 = PRODUCT_DEFINITION_SHAPE ( 'NONE', 'NONE',  #616 ) ;
#244 = ORIENTED_EDGE ( 'NONE', *, *, #221, .F. ) ;
#245 = CIRCLE ( 'NONE', #605, 40.00000000000000000 ) ;
#246 = EDGE_LOOP ( 'NONE', ( #58, #873, #866, #70, #748, #87 ) ) ;
#247 = CARTESIAN_POINT ( 'NONE',  ( -1.040834085586084257E-14, 130.0000000000000284, 6.000000000000000000 ) ) ;
#248 = EDGE_CURVE ( 'NONE', #832, #951, #96, .T. ) ;
#249 = DIRECTION ( 'NONE',  ( 0.000000000000000000, 0.000000000000000000, -1.000000000000000000 ) ) ;
#250 = VECTOR ( 'NONE', #92, 1000.000000000000000 ) ;
#251 = ORIENTED_EDGE ( 'NONE', *, *, #346, .F. ) ;
#252 = PRODUCT_DEFINITION_CONTEXT ( 'detailed design', #270, 'design' ) ;
#253 = DIRECTION ( 'NONE',  ( 0.000000000000000000, 0.000000000000000000, -1.000000000000000000 ) ) ;
#254 = ORIENTED_EDGE ( 'NONE', *, *, #911, .T. ) ;
#255 = VERTEX_POINT ( 'NONE', #724 ) ;
#256 = DIRECTION ( 'NONE',  ( -0.000000000000000000, -0.000000000000000000, -1.000000000000000000 ) ) ;
#257 = CARTESIAN_POINT ( 'NONE',  ( 0.000000000000000000, 0.000000000000000000, 6.000000000000000000 ) ) ;
#258 = ORIENTED_EDGE ( 'NONE', *, *, #580, .F. ) ;
#259 = LINE ( 'NONE', #843, #142 ) ;
#260 = DIRECTION ( 'NONE',  ( -0.000000000000000000, 0.000000000000000000, 1.000000000000000000 ) ) ;
#261 = VERTEX_POINT ( 'NONE', #146 ) ;
#262 = ADVANCED_FACE ( 'NONE', ( #798 ), #660, .T. ) ;
#263 = LINE ( 'NONE', #356, #855 ) ;
#264 = DIRECTION ( 'NONE',  ( 0.000000000000000000, 0.000000000000000000, 1.000000000000000000 ) ) ;
#265 = DIRECTION ( 'NONE',  ( -0.000000000000000000, -0.000000000000000000, -1.000000000000000000 ) ) ;
#266 = ORIENTED_EDGE ( 'NONE', *, *, #1, .F. ) ;
#267 = CARTESIAN_POINT ( 'NONE',  ( 80.00000000000001421, 43.92309359765577881, 6.000000000000000000 ) ) ;
#268 = CARTESIAN_POINT ( 'NONE',  ( 40.00000000000000000, -3.054205339190667400E-21, 6.000000000000000000 ) ) ;
#269 = DIRECTION ( 'NONE',  ( 1.000000000000000000, 0.000000000000000000, 0.000000000000000000 ) ) ;
#270 = APPLICATION_CONTEXT ( 'automotive_design' ) ;
#271 = VERTEX_POINT ( 'NONE', #290 ) ;
#272 = CIRCLE ( 'NONE', #515, 40.00000000000000000 ) ;
#273 = CARTESIAN_POINT ( 'NONE',  ( 0.000000000000000000, 0.000000000000000000, 0.000000000000000000 ) ) ;
#274 = CIRCLE ( 'NONE', #291, 40.00000000000000000 ) ;
#275 = ADVANCED_FACE ( 'NONE', ( #63 ), #297, .T. ) ;
#276 = EDGE_CURVE ( 'NONE', #398, #727, #575, .T. ) ;
#277 = DIRECTION ( 'NONE',  ( -1.000000000000000000, 0.000000000000000000, -0.000000000000000000 ) ) ;
#278 = ORIENTED_EDGE ( 'NONE', *, *, #941, .F. ) ;
#279 = AXIS2_PLACEMENT_3D ( 'NONE', #532, #232, #672 ) ;
#280 = DIRECTION ( 'NONE',  ( 0.000000000000000000, 0.000000000000000000, -1.000000000000000000 ) ) ;
#281 = CYLINDRICAL_SURFACE ( 'NONE', #508, 14.99999999999999467 ) ;
#282 = ADVANCED_FACE ( 'NONE', ( #872 ), #216, .F. ) ;
#283 = ORIENTED_EDGE ( 'NONE', *, *, #761, .T. ) ;
#284 = DIRECTION ( 'NONE',  ( 1.000000000000000000, 0.000000000000000000, 0.000000000000000000 ) ) ;
#285 = CIRCLE ( 'NONE', #315, 40.00000000000000000 ) ;
#286 = DIRECTION ( 'NONE',  ( -0.000000000000000000, -0.000000000000000000, 1.000000000000000000 ) ) ;
#287 = VERTEX_POINT ( 'NONE', #57 ) ;
#288 = DIRECTION ( 'NONE',  ( 1.000000000000000000, 0.000000000000000000, 0.000000000000000000 ) ) ;
#289 = DIRECTION ( 'NONE',  ( 0.3291812963713330875, -0.9442667388610533896, 0.000000000000000000 ) ) ;
#290 = CARTESIAN_POINT ( 'NONE',  ( 31.52433627657943305, 91.48880203035709258, 6.000000000000000000 ) ) ;
#291 = AXIS2_PLACEMENT_3D ( 'NONE', #273, #280, #208 ) ;
#292 = ORIENTED_EDGE ( 'NONE', *, *, #626, .F. ) ;
#293 = CARTESIAN_POINT ( 'NONE',  ( -37.85000000000000142, 4.635288134772731511E-15, 0.000000000000000000 ) ) ;
#294 = ADVANCED_FACE ( 'NONE', ( #78 ), #281, .F. ) ;
#295 = AXIS2_PLACEMENT_3D ( 'NONE', #665, #383, #590 ) ;
#296 = ORIENTED_EDGE ( 'NONE', *, *, #276, .F. ) ;
#297 = CYLINDRICAL_SURFACE ( 'NONE', #539, 40.00000000000000000 ) ;
#298 = VERTEX_POINT ( 'NONE', #860 ) ;
#299 = FACE_OUTER_BOUND ( 'NONE', #491, .T. ) ;
#300 = DIRECTION ( 'NONE',  ( 1.000000000000000000, 0.000000000000000000, 0.000000000000000000 ) ) ;
#301 = VERTEX_POINT ( 'NONE', #793 ) ;
#302 = CYLINDRICAL_SURFACE ( 'NONE', #608, 40.00000000000000711 ) ;
#303 = DIRECTION ( 'NONE',  ( -0.000000000000000000, -0.000000000000000000, 1.000000000000000000 ) ) ;
#304 = EDGE_CURVE ( 'NONE', #677, #261, #430, .T. ) ;
#305 = EDGE_CURVE ( 'NONE', #20, #903, #764, .T. ) ;
#306 = ORIENTED_EDGE ( 'NONE', *, *, #681, .T. ) ;
#307 = VERTEX_POINT ( 'NONE', #656 ) ;
#308 = ORIENTED_EDGE ( 'NONE', *, *, #882, .F. ) ;
#309 = LINE ( 'NONE', #10, #684 ) ;
#310 = CYLINDRICAL_SURFACE ( 'NONE', #736, 50.00000000000000000 ) ;
#311 = FACE_OUTER_BOUND ( 'NONE', #621, .T. ) ;
#312 = EDGE_LOOP ( 'NONE', ( #177, #69 ) ) ;
#313 = DIRECTION ( 'NONE',  ( 3.469446951953608765E-16, -1.000000000000000000, 0.000000000000000000 ) ) ;
#314 = ORIENTED_EDGE ( 'NONE', *, *, #714, .F. ) ;
#315 = AXIS2_PLACEMENT_3D ( 'NONE', #913, #253, #694 ) ;
#316 = EDGE_LOOP ( 'NONE', ( #507, #384, #335, #559 ) ) ;
#317 = CARTESIAN_POINT ( 'NONE',  ( 0.000000000000000000, 0.000000000000000000, 0.000000000000000000 ) ) ;
#318 = EDGE_CURVE ( 'NONE', #936, #237, #647, .T. ) ;
#319 = CARTESIAN_POINT ( 'NONE',  ( 0.000000000000000000, 0.000000000000000000, 0.000000000000000000 ) ) ;
#320 = DIRECTION ( 'NONE',  ( 0.3291812963713330875, -0.9442667388610533896, 0.000000000000000000 ) ) ;
#321 = ORIENTED_EDGE ( 'NONE', *, *, #234, .T. ) ;
#322 = AXIS2_PLACEMENT_3D ( 'NONE', #890, #65, #5 ) ;
#323 = CARTESIAN_POINT ( 'NONE',  ( 37.77066955444212226, 13.16725185485332084, -4.000000000000000000 ) ) ;
#324 = VECTOR ( 'NONE', #578, 1000.000000000000000 ) ;
#325 = DIRECTION ( 'NONE',  ( 1.387778780781445676E-16, -1.000000000000000000, 0.000000000000000000 ) ) ;
#326 = ORIENTED_EDGE ( 'NONE', *, *, #101, .F. ) ;
#327 = LINE ( 'NONE', #488, #800 ) ;
#328 = DIRECTION ( 'NONE',  ( -0.000000000000000000, 0.000000000000000000, 1.000000000000000000 ) ) ;
#329 = ORIENTED_EDGE ( 'NONE', *, *, #788, .F. ) ;
#330 = CIRCLE ( 'NONE', #865, 49.99999999999998579 ) ;
#331 = FILL_AREA_STYLE_COLOUR ( '', #188 ) ;
#332 = CYLINDRICAL_SURFACE ( 'NONE', #834, 37.87500000000000711 ) ;
#333 = EDGE_CURVE ( 'NONE', #783, #772, #423, .T. ) ;
#334 = ADVANCED_FACE ( 'NONE', ( #715 ), #938, .T. ) ;
#335 = ORIENTED_EDGE ( 'NONE', *, *, #681, .F. ) ;
#336 = FACE_OUTER_BOUND ( 'NONE', #752, .T. ) ;
#337 = CARTESIAN_POINT ( 'NONE',  ( 2.311115933264683024E-30, -2.163915544149815454E-14, -4.000000000000000000 ) ) ;
#338 = DIRECTION ( 'NONE',  ( 0.000000000000000000, -0.000000000000000000, -1.000000000000000000 ) ) ;
#339 = VERTEX_POINT ( 'NONE', #935 ) ;
#340 = DIRECTION ( 'NONE',  ( 0.000000000000000000, -0.000000000000000000, 1.000000000000000000 ) ) ;
#341 = CARTESIAN_POINT ( 'NONE',  ( 80.00000000000001421, 43.92309359765577881, 0.000000000000000000 ) ) ;
#342 = FACE_OUTER_BOUND ( 'NONE', #697, .T. ) ;
#343 = AXIS2_PLACEMENT_3D ( 'NONE', #710, #260, #914 ) ;
#344 = ORIENTED_EDGE ( 'NONE', *, *, #471, .T. ) ;
#345 = CARTESIAN_POINT ( 'NONE',  ( -7.896643701577034768, -1.995830383429684884, 6.000000000000000000 ) ) ;
#346 = EDGE_CURVE ( 'NONE', #727, #339, #569, .T. ) ;
#347 = DIRECTION ( 'NONE',  ( -0.000000000000000000, 0.000000000000000000, 1.000000000000000000 ) ) ;
#348 = DIRECTION ( 'NONE',  ( 0.000000000000000000, 0.000000000000000000, -1.000000000000000000 ) ) ;
#349 = ORIENTED_EDGE ( 'NONE', *, *, #91, .F. ) ;
#350 = LINE ( 'NONE', #562, #900 ) ;
#351 = APPLICATION_CONTEXT ( 'automotive_design' ) ;
#352 =( NAMED_UNIT ( * ) PLANE_ANGLE_UNIT ( ) SI_UNIT ( $, .RADIAN. ) );
#353 = CARTESIAN_POINT ( 'NONE',  ( -37.77066955444212226, 13.16725185485332084, -4.000000000000000000 ) ) ;
#354 = ORIENTED_EDGE ( 'NONE', *, *, #490, .F. ) ;
#355 = CIRCLE ( 'NONE', #60, 14.99999999999999467 ) ;
#356 = CARTESIAN_POINT ( 'NONE',  ( -40.00000000000000000, 3.054205339190667400E-21, 6.000000000000000000 ) ) ;
#357 = DIRECTION ( 'NONE',  ( -1.000000000000000000, 0.000000000000000000, 0.000000000000000000 ) ) ;
#358 = ORIENTED_EDGE ( 'NONE', *, *, #163, .T. ) ;
#359 = LINE ( 'NONE', #432, #228 ) ;
#360 = DIRECTION ( 'NONE',  ( -1.000000000000000000, -3.469446951953609751E-16, 0.000000000000000000 ) ) ;
#361 = AXIS2_PLACEMENT_3D ( 'NONE', #115, #50, #211 ) ;
#362 = CARTESIAN_POINT ( 'NONE',  ( 14.99999999999998934, 76.00000000000002842, -4.000000000000000000 ) ) ;
#363 = ORIENTED_EDGE ( 'NONE', *, *, #19, .T. ) ;
#364 = CARTESIAN_POINT ( 'NONE',  ( -15.00000000000000000, 76.00000000000001421, 6.000000000000000000 ) ) ;
#365 = EDGE_CURVE ( 'NONE', #537, #903, #720, .T. ) ;
#366 = CARTESIAN_POINT ( 'NONE',  ( -1.592040838891559450E-14, 130.0000000000000000, 6.000000000000000000 ) ) ;
#367 = CARTESIAN_POINT ( 'NONE',  ( -29.99999999999999645, 79.23686232376989835, 0.000000000000000000 ) ) ;
#368 = AXIS2_PLACEMENT_3D ( 'NONE', #663, #795, #650 ) ;
#369 = ORIENTED_EDGE ( 'NONE', *, *, #612, .F. ) ;
#370 = DIRECTION ( 'NONE',  ( -1.000000000000000000, 0.000000000000000000, 0.000000000000000000 ) ) ;
#371 = CIRCLE ( 'NONE', #904, 50.00000000000000000 ) ;
#372 = CARTESIAN_POINT ( 'NONE',  ( 31.52433627657943305, 91.48880203035709258, 0.000000000000000000 ) ) ;
#373 = EDGE_LOOP ( 'NONE', ( #44, #94, #885, #109 ) ) ;
#374 = CARTESIAN_POINT ( 'NONE',  ( 0.000000000000000000, 0.000000000000000000, -27.50000000000000000 ) ) ;
#375 = ADVANCED_FACE ( 'NONE', ( #503 ), #67, .T. ) ;
#376 = EDGE_CURVE ( 'NONE', #261, #693, #463, .T. ) ;
#377 = LINE ( 'NONE', #820, #809 ) ;
#378 = LINE ( 'NONE', #23, #250 ) ;
#379 = FACE_OUTER_BOUND ( 'NONE', #125, .T. ) ;
#380 = DIRECTION ( 'NONE',  ( -0.000000000000000000, 0.000000000000000000, 1.000000000000000000 ) ) ;
#381 = DIRECTION ( 'NONE',  ( 0.000000000000000000, 0.000000000000000000, 1.000000000000000000 ) ) ;
#382 = DIRECTION ( 'NONE',  ( -1.000000000000000000, 0.000000000000000000, 0.000000000000000000 ) ) ;
#383 = DIRECTION ( 'NONE',  ( 0.000000000000000000, 0.000000000000000000, -1.000000000000000000 ) ) ;
#384 = ORIENTED_EDGE ( 'NONE', *, *, #769, .T. ) ;
#385 = ORIENTED_EDGE ( 'NONE', *, *, #234, .F. ) ;
#386 = CARTESIAN_POINT ( 'NONE',  ( -1.592040838891559450E-14, 130.0000000000000000, 0.000000000000000000 ) ) ;
#387 = LINE ( 'NONE', #679, #79 ) ;
#388 = STYLED_ITEM ( 'NONE', ( #640 ), #655 ) ;
#389 = ORIENTED_EDGE ( 'NONE', *, *, #853, .T. ) ;
#390 = LINE ( 'NONE', #895, #153 ) ;
#391 = ORIENTED_EDGE ( 'NONE', *, *, #557, .T. ) ;
#392 = VECTOR ( 'NONE', #604, 1000.000000000000114 ) ;
#393 = CIRCLE ( 'NONE', #531, 14.99999999999999467 ) ;
#394 = APPLICATION_PROTOCOL_DEFINITION ( 'draft international standard', 'automotive_design', 1998, #270 ) ;
#395 = LINE ( 'NONE', #116, #940 ) ;
#396 = AXIS2_PLACEMENT_3D ( 'NONE', #362, #945, #594 ) ;
#397 = CARTESIAN_POINT ( 'NONE',  ( -1.387778780781446938E-14, 130.0000000000001137, 6.000000000000000000 ) ) ;
#398 = VERTEX_POINT ( 'NONE', #26 ) ;
#399 = EDGE_CURVE ( 'NONE', #936, #883, #241, .T. ) ;
#400 = DIRECTION ( 'NONE',  ( 1.000000000000000000, 0.000000000000000000, 0.000000000000000000 ) ) ;
#401 = EDGE_CURVE ( 'NONE', #919, #677, #566, .T. ) ;
#402 = DIRECTION ( 'NONE',  ( 1.000000000000000000, 0.000000000000000000, 0.000000000000000000 ) ) ;
#403 = ORIENTED_EDGE ( 'NONE', *, *, #119, .T. ) ;
#404 = CIRCLE ( 'NONE', #726, 50.00000000000000000 ) ;
#405 = AXIS2_PLACEMENT_3D ( 'NONE', #33, #852, #400 ) ;
#406 = CARTESIAN_POINT ( 'NONE',  ( 32.78666305694733296, 27.46402877908911933, 0.000000000000000000 ) ) ;
#407 = SURFACE_STYLE_USAGE ( .BOTH. , #112 ) ;
#408 = DIRECTION ( 'NONE',  ( -1.000000000000000000, 0.000000000000000000, 0.000000000000000000 ) ) ;
#409 = VERTEX_POINT ( 'NONE', #753 ) ;
#410 = VECTOR ( 'NONE', #340, 1000.000000000000000 ) ;
#411 = DIRECTION ( 'NONE',  ( -0.000000000000000000, -0.000000000000000000, 1.000000000000000000 ) ) ;
#412 = FACE_OUTER_BOUND ( 'NONE', #4, .T. ) ;
#413 = LINE ( 'NONE', #617, #780 ) ;
#414 = VERTEX_POINT ( 'NONE', #880 ) ;
#415 = CIRCLE ( 'NONE', #690, 37.87500000000000711 ) ;
#416 = EDGE_CURVE ( 'NONE', #652, #210, #200, .T. ) ;
#417 = LINE ( 'NONE', #497, #28 ) ;
#418 = DIRECTION ( 'NONE',  ( 0.000000000000000000, 0.000000000000000000, 1.000000000000000000 ) ) ;
#419 = DIRECTION ( 'NONE',  ( 0.2450387941317428153, -0.9695132744684114012, 0.000000000000000000 ) ) ;
#420 = CIRCLE ( 'NONE', #2, 40.00000000000000000 ) ;
#421 = ORIENTED_EDGE ( 'NONE', *, *, #512, .F. ) ;
#422 = DIRECTION ( 'NONE',  ( -0.000000000000000000, 0.000000000000000000, 1.000000000000000000 ) ) ;
#423 = LINE ( 'NONE', #209, #443 ) ;
#424 = ORIENTED_EDGE ( 'NONE', *, *, #276, .T. ) ;
#425 = DIRECTION ( 'NONE',  ( 0.2450387941317428431, -0.9695132744684114012, 0.000000000000000000 ) ) ;
#426 = DIRECTION ( 'NONE',  ( -0.3291812963713330875, -0.9442667388610533896, 0.000000000000000000 ) ) ;
#427 = VERTEX_POINT ( 'NONE', #678 ) ;
#428 = CARTESIAN_POINT ( 'NONE',  ( 29.99999999999999645, 79.23686232376991256, 0.000000000000000000 ) ) ;
#429 = EDGE_CURVE ( 'NONE', #869, #339, #390, .T. ) ;
#430 = LINE ( 'NONE', #367, #920 ) ;
#431 = ORIENTED_EDGE ( 'NONE', *, *, #928, .F. ) ;
#432 = CARTESIAN_POINT ( 'NONE',  ( 30.00000000000000000, 43.92309359765577881, 0.000000000000000000 ) ) ;
#433 = CARTESIAN_POINT ( 'NONE',  ( 0.000000000000000000, 0.000000000000000000, 0.000000000000000000 ) ) ;
#434 = ORIENTED_EDGE ( 'NONE', *, *, #459, .T. ) ;
#435 =( NAMED_UNIT ( * ) PLANE_ANGLE_UNIT ( ) SI_UNIT ( $, .RADIAN. ) );
#436 = CARTESIAN_POINT ( 'NONE',  ( 80.00000000000000000, 79.23686232376992677, 0.000000000000000000 ) ) ;
#437 = CARTESIAN_POINT ( 'NONE',  ( -7.896643701577034768, -1.995830383429684884, -4.000000000000000000 ) ) ;
#438 = VECTOR ( 'NONE', #493, 1000.000000000000000 ) ;
#439 = ORIENTED_EDGE ( 'NONE', *, *, #943, .F. ) ;
#440 = ADVANCED_FACE ( 'NONE', ( #225, #669 ), #516, .F. ) ;
#441 = AXIS2_PLACEMENT_3D ( 'NONE', #487, #111, #574 ) ;
#442 = ADVANCED_FACE ( 'NONE', ( #7 ), #310, .F. ) ;
#443 = VECTOR ( 'NONE', #498, 1000.000000000000000 ) ;
#444 = DIRECTION ( 'NONE',  ( 0.000000000000000000, 0.000000000000000000, 1.000000000000000000 ) ) ;
#445 = AXIS2_PLACEMENT_3D ( 'NONE', #35, #108, #548 ) ;
#446 = DIRECTION ( 'NONE',  ( -1.000000000000000000, 0.000000000000000000, 0.000000000000000000 ) ) ;
#447 = ORIENTED_EDGE ( 'NONE', *, *, #609, .F. ) ;
#448 = DIRECTION ( 'NONE',  ( -0.000000000000000000, -0.000000000000000000, -1.000000000000000000 ) ) ;
#449 = ADVANCED_FACE ( 'NONE', ( #170 ), #589, .F. ) ;
#450 = DIRECTION ( 'NONE',  ( 0.000000000000000000, 0.000000000000000000, -1.000000000000000000 ) ) ;
#451 = VECTOR ( 'NONE', #264, 1000.000000000000000 ) ;
#452 = ORIENTED_EDGE ( 'NONE', *, *, #542, .T. ) ;
#453 = ORIENTED_EDGE ( 'NONE', *, *, #164, .F. ) ;
#454 = CARTESIAN_POINT ( 'NONE',  ( -32.78666305694733296, 27.46402877908911933, 6.000000000000000000 ) ) ;
#455 = DIRECTION ( 'NONE',  ( -1.000000000000000000, 0.000000000000000000, 0.000000000000000000 ) ) ;
#456 = VERTEX_POINT ( 'NONE', #522 ) ;
#457 = ORIENTED_EDGE ( 'NONE', *, *, #701, .F. ) ;
#458 = CARTESIAN_POINT ( 'NONE',  ( 7.896643701577034768, -1.995830383429684884, 6.000000000000000000 ) ) ;
#459 = EDGE_CURVE ( 'NONE', #496, #73, #236, .T. ) ;
#460 = CARTESIAN_POINT ( 'NONE',  ( -80.00000000000001421, 43.92309359765577881, 0.000000000000000000 ) ) ;
#461 = ORIENTED_EDGE ( 'NONE', *, *, #597, .T. ) ;
#462 = CIRCLE ( 'NONE', #629, 50.00000000000000000 ) ;
#463 = LINE ( 'NONE', #231, #644 ) ;
#464 = ORIENTED_EDGE ( 'NONE', *, *, #365, .T. ) ;
#465 = EDGE_LOOP ( 'NONE', ( #676, #898, #546, #447 ) ) ;
#466 = DIRECTION ( 'NONE',  ( 0.3291812963713330875, -0.9442667388610533896, 0.000000000000000000 ) ) ;
#467 = CARTESIAN_POINT ( 'NONE',  ( -40.00000000000000000, 3.054205339190667400E-21, 6.000000000000000000 ) ) ;
#468 = ORIENTED_EDGE ( 'NONE', *, *, #580, .T. ) ;
#469 =( GEOMETRIC_REPRESENTATION_CONTEXT ( 3 ) GLOBAL_UNCERTAINTY_ASSIGNED_CONTEXT ( ( #14 ) ) GLOBAL_UNIT_ASSIGNED_CONTEXT ( ( #509, #435, #823 ) ) REPRESENTATION_CONTEXT ( 'NONE', 'WORKASPACE' ) );
#470 = EDGE_CURVE ( 'NONE', #499, #951, #377, .T. ) ;
#471 = EDGE_CURVE ( 'NONE', #903, #307, #886, .T. ) ;
#472 = LINE ( 'NONE', #779, #742 ) ;
#473 = VECTOR ( 'NONE', #159, 1000.000000000000000 ) ;
#474 = DIRECTION ( 'NONE',  ( 0.000000000000000000, 0.000000000000000000, 1.000000000000000000 ) ) ;
#475 = ORIENTED_EDGE ( 'NONE', *, *, #502, .F. ) ;
#476 = DIRECTION ( 'NONE',  ( -0.000000000000000000, 0.000000000000000000, 1.000000000000000000 ) ) ;
#477 = DIRECTION ( 'NONE',  ( 1.000000000000000000, 0.000000000000000000, 0.000000000000000000 ) ) ;
#478 = DIRECTION ( 'NONE',  ( -0.000000000000000000, -0.000000000000000000, -1.000000000000000000 ) ) ;
#479 = VERTEX_POINT ( 'NONE', #745 ) ;
#480 = MECHANICAL_DESIGN_GEOMETRIC_PRESENTATION_REPRESENTATION (  '', ( #388 ), #525 ) ;
#481 = LINE ( 'NONE', #773, #410 ) ;
#482 = CYLINDRICAL_SURFACE ( 'NONE', #147, 40.00000000000000000 ) ;
#483 = EDGE_CURVE ( 'NONE', #398, #187, #355, .T. ) ;
#484 = FACE_BOUND ( 'NONE', #217, .T. ) ;
#485 = ORIENTED_EDGE ( 'NONE', *, *, #376, .T. ) ;
#486 = AXIS2_PLACEMENT_3D ( 'NONE', #792, #134, #505 ) ;
#487 = CARTESIAN_POINT ( 'NONE',  ( 4.622231866529366047E-30, 55.99999999999999289, 0.000000000000000000 ) ) ;
#488 = CARTESIAN_POINT ( 'NONE',  ( -32.78666305694733296, 27.46402877908911933, 0.000000000000000000 ) ) ;
#489 = LINE ( 'NONE', #47, #796 ) ;
#490 = EDGE_CURVE ( 'NONE', #398, #869, #674, .T. ) ;
#491 = EDGE_LOOP ( 'NONE', ( #98, #254, #722, #603 ) ) ;
#492 = CIRCLE ( 'NONE', #737, 40.00000000000000000 ) ;
#493 = DIRECTION ( 'NONE',  ( 1.387778780781445676E-16, -1.000000000000000000, 0.000000000000000000 ) ) ;
#494 = DIRECTION ( 'NONE',  ( 3.469446951953609751E-16, -1.000000000000000000, 0.000000000000000000 ) ) ;
#495 = DIRECTION ( 'NONE',  ( -0.9695132744684115123, -0.2450387941317428431, 0.000000000000000000 ) ) ;
#496 = VERTEX_POINT ( 'NONE', #454 ) ;
#497 = CARTESIAN_POINT ( 'NONE',  ( 37.85000000000000142, 0.000000000000000000, -27.50000000000000000 ) ) ;
#498 = DIRECTION ( 'NONE',  ( 0.000000000000000000, 0.000000000000000000, 1.000000000000000000 ) ) ;
#499 = VERTEX_POINT ( 'NONE', #749 ) ;
#500 = ADVANCED_FACE ( 'NONE', ( #826 ), #90, .F. ) ;
#501 = PLANE ( 'NONE',  #149 ) ;
#502 = EDGE_CURVE ( 'NONE', #287, #271, #831, .T. ) ;
#503 = FACE_OUTER_BOUND ( 'NONE', #648, .T. ) ;
#504 = EDGE_LOOP ( 'NONE', ( #579, #133, #385, #114 ) ) ;
#505 = DIRECTION ( 'NONE',  ( 1.000000000000000000, 0.000000000000000000, 0.000000000000000000 ) ) ;
#506 = DIRECTION ( 'NONE',  ( 1.000000000000000000, 0.000000000000000000, 0.000000000000000000 ) ) ;
#507 = ORIENTED_EDGE ( 'NONE', *, *, #91, .T. ) ;
#508 = AXIS2_PLACEMENT_3D ( 'NONE', #729, #222, #506 ) ;
#509 =( LENGTH_UNIT ( ) NAMED_UNIT ( * ) SI_UNIT ( .MILLI., .METRE. ) );
#510 = DIRECTION ( 'NONE',  ( 1.000000000000000000, 0.000000000000000000, 0.000000000000000000 ) ) ;
#511 = CARTESIAN_POINT ( 'NONE',  ( -38.78053097873647204, 120.1984482347304208, 0.000000000000000000 ) ) ;
#512 = EDGE_CURVE ( 'NONE', #287, #128, #226, .T. ) ;
#513 = ORIENTED_EDGE ( 'NONE', *, *, #470, .T. ) ;
#514 = CARTESIAN_POINT ( 'NONE',  ( 14.99999999999998934, 76.00000000000002842, 6.000000000000000000 ) ) ;
#515 = AXIS2_PLACEMENT_3D ( 'NONE', #619, #847, #923 ) ;
#516 = PLANE ( 'NONE',  #934 ) ;
#517 = AXIS2_PLACEMENT_3D ( 'NONE', #235, #218, #76 ) ;
#518 = EDGE_LOOP ( 'NONE', ( #897, #193, #198, #457 ) ) ;
#519 = PRODUCT_RELATED_PRODUCT_CATEGORY ( 'part', '', ( #824 ) ) ;
#520 = AXIS2_PLACEMENT_3D ( 'NONE', #526, #683, #446 ) ;
#521 = LINE ( 'NONE', #813, #180 ) ;
#522 = CARTESIAN_POINT ( 'NONE',  ( 30.00000000000000000, 43.92309359765577881, 6.000000000000000000 ) ) ;
#523 = CARTESIAN_POINT ( 'NONE',  ( 30.00000000000000711, 4.163336342344337815E-15, -4.000000000000000000 ) ) ;
#524 = ORIENTED_EDGE ( 'NONE', *, *, #19, .F. ) ;
#525 =( GEOMETRIC_REPRESENTATION_CONTEXT ( 3 ) GLOBAL_UNCERTAINTY_ASSIGNED_CONTEXT ( ( #757 ) ) GLOBAL_UNIT_ASSIGNED_CONTEXT ( ( #51, #352, #948 ) ) REPRESENTATION_CONTEXT ( 'NONE', 'WORKASPACE' ) );
#526 = CARTESIAN_POINT ( 'NONE',  ( -80.00000000000000000, 79.23686232376991256, -4.000000000000000000 ) ) ;
#527 = VERTEX_POINT ( 'NONE', #190 ) ;
#528 = ORIENTED_EDGE ( 'NONE', *, *, #376, .F. ) ;
#529 = ADVANCED_FACE ( 'NONE', ( #412 ), #482, .T. ) ;
#530 = DIRECTION ( 'NONE',  ( 1.000000000000000000, 0.000000000000000000, 0.000000000000000000 ) ) ;
#531 = AXIS2_PLACEMENT_3D ( 'NONE', #953, #81, #229 ) ;
#532 = CARTESIAN_POINT ( 'NONE',  ( -80.00000000000000000, 79.23686232376991256, 0.000000000000000000 ) ) ;
#533 = ORIENTED_EDGE ( 'NONE', *, *, #248, .F. ) ;
#534 = AXIS2_PLACEMENT_3D ( 'NONE', #171, #12, #595 ) ;
#535 = DIRECTION ( 'NONE',  ( -1.387778780781445676E-16, -1.000000000000000000, 0.000000000000000000 ) ) ;
#536 = CARTESIAN_POINT ( 'NONE',  ( -30.00000000000000711, 4.163336342344337815E-15, 6.000000000000000000 ) ) ;
#537 = VERTEX_POINT ( 'NONE', #268 ) ;
#538 = SHAPE_DEFINITION_REPRESENTATION ( #243, #667 ) ;
#539 = AXIS2_PLACEMENT_3D ( 'NONE', #877, #801, #72 ) ;
#540 = DIRECTION ( 'NONE',  ( -0.000000000000000000, 0.000000000000000000, -1.000000000000000000 ) ) ;
#541 = ORIENTED_EDGE ( 'NONE', *, *, #784, .T. ) ;
#542 = EDGE_CURVE ( 'NONE', #946, #479, #560, .T. ) ;
#543 = EDGE_CURVE ( 'NONE', #128, #255, #272, .T. ) ;
#544 = DIRECTION ( 'NONE',  ( 1.000000000000000000, 0.000000000000000000, 0.000000000000000000 ) ) ;
#545 = CARTESIAN_POINT ( 'NONE',  ( 0.000000000000000000, 0.000000000000000000, -27.50000000000000000 ) ) ;
#546 = ORIENTED_EDGE ( 'NONE', *, *, #401, .F. ) ;
#547 = DIRECTION ( 'NONE',  ( 0.000000000000000000, 0.000000000000000000, 1.000000000000000000 ) ) ;
#548 = DIRECTION ( 'NONE',  ( 1.000000000000000000, 0.000000000000000000, 0.000000000000000000 ) ) ;
#549 = ORIENTED_EDGE ( 'NONE', *, *, #1, .T. ) ;
#550 = CARTESIAN_POINT ( 'NONE',  ( -1.592040838891559450E-14, 130.0000000000000000, 11.50000000000000000 ) ) ;
#551 = DIRECTION ( 'NONE',  ( 1.000000000000000000, 0.000000000000000000, 0.000000000000000000 ) ) ;
#552 = AXIS2_PLACEMENT_3D ( 'NONE', #257, #265, #408 ) ;
#553 = CARTESIAN_POINT ( 'NONE',  ( 39.99999999999998579, 130.0000000000000284, 6.000000000000000000 ) ) ;
#554 = ORIENTED_EDGE ( 'NONE', *, *, #743, .T. ) ;
#555 = LINE ( 'NONE', #921, #438 ) ;
#556 = CARTESIAN_POINT ( 'NONE',  ( -31.52433627657942594, 91.48880203035706415, 6.000000000000000000 ) ) ;
#557 = EDGE_CURVE ( 'NONE', #409, #137, #573, .T. ) ;
#558 = CARTESIAN_POINT ( 'NONE',  ( -37.87500000000002132, 130.0000000000000000, 6.000000000000000000 ) ) ;
#559 = ORIENTED_EDGE ( 'NONE', *, *, #333, .T. ) ;
#560 = CIRCLE ( 'NONE', #682, 37.87500000000000711 ) ;
#561 = VECTOR ( 'NONE', #425, 1000.000000000000114 ) ;
#562 = CARTESIAN_POINT ( 'NONE',  ( 37.77066955444212937, 13.16725185485330307, -4.000000000000000000 ) ) ;
#563 = LINE ( 'NONE', #364, #770 ) ;
#564 = CIRCLE ( 'NONE', #688, 37.85000000000000142 ) ;
#565 = DIRECTION ( 'NONE',  ( 0.000000000000000000, -0.000000000000000000, -1.000000000000000000 ) ) ;
#566 = CIRCLE ( 'NONE', #721, 50.00000000000000000 ) ;
#567 = ORIENTED_EDGE ( 'NONE', *, *, #841, .F. ) ;
#568 = CARTESIAN_POINT ( 'NONE',  ( -6.123233995736766874E-15, 76.00000000000001421, 6.000000000000000000 ) ) ;
#569 = LINE ( 'NONE', #790, #858 ) ;
#570 = EDGE_CURVE ( 'NONE', #479, #409, #774, .T. ) ;
#571 = ORIENTED_EDGE ( 'NONE', *, *, #670, .T. ) ;
#572 = EDGE_CURVE ( 'NONE', #128, #652, #395, .T. ) ;
#573 = CIRCLE ( 'NONE', #161, 37.87500000000000711 ) ;
#574 = DIRECTION ( 'NONE',  ( 1.000000000000000000, 0.000000000000000000, 0.000000000000000000 ) ) ;
#575 = LINE ( 'NONE', #786, #174 ) ;
#576 = ORIENTED_EDGE ( 'NONE', *, *, #810, .T. ) ;
#577 = DIRECTION ( 'NONE',  ( -0.000000000000000000, -0.000000000000000000, -1.000000000000000000 ) ) ;
#578 = DIRECTION ( 'NONE',  ( 1.387778780781445676E-16, -1.000000000000000000, 0.000000000000000000 ) ) ;
#579 = ORIENTED_EDGE ( 'NONE', *, *, #689, .F. ) ;
#580 = EDGE_CURVE ( 'NONE', #631, #73, #472, .T. ) ;
#581 = CARTESIAN_POINT ( 'NONE',  ( 30.00000000000000000, 43.92309359765577881, 0.000000000000000000 ) ) ;
#582 = ORIENTED_EDGE ( 'NONE', *, *, #221, .T. ) ;
#583 = CYLINDRICAL_SURFACE ( 'NONE', #322, 40.00000000000000000 ) ;
#584 = ORIENTED_EDGE ( 'NONE', *, *, #305, .T. ) ;
#585 = ADVANCED_FACE ( 'NONE', ( #123 ), #765, .F. ) ;
#586 = DIRECTION ( 'NONE',  ( 1.000000000000000000, 0.000000000000000000, 0.000000000000000000 ) ) ;
#587 = ORIENTED_EDGE ( 'NONE', *, *, #101, .T. ) ;
#588 = CARTESIAN_POINT ( 'NONE',  ( -15.00000000000000000, 76.00000000000001421, -4.000000000000000000 ) ) ;
#589 = CYLINDRICAL_SURFACE ( 'NONE', #520, 50.00000000000000000 ) ;
#590 = DIRECTION ( 'NONE',  ( -1.000000000000000000, 0.000000000000000000, 0.000000000000000000 ) ) ;
#591 = VECTOR ( 'NONE', #212, 1000.000000000000000 ) ;
#592 = ORIENTED_EDGE ( 'NONE', *, *, #34, .F. ) ;
#593 = CARTESIAN_POINT ( 'NONE',  ( 38.78053097873644361, 120.1984482347303356, 0.000000000000000000 ) ) ;
#594 = DIRECTION ( 'NONE',  ( 3.469446951953608765E-16, -1.000000000000000000, 0.000000000000000000 ) ) ;
#595 = DIRECTION ( 'NONE',  ( -1.000000000000000000, 0.000000000000000000, 0.000000000000000000 ) ) ;
#596 = EDGE_LOOP ( 'NONE', ( #389, #513, #533, #614 ) ) ;
#597 = EDGE_CURVE ( 'NONE', #237, #783, #330, .T. ) ;
#598 = DIRECTION ( 'NONE',  ( 1.000000000000000000, 0.000000000000000000, 0.000000000000000000 ) ) ;
#599 = VECTOR ( 'NONE', #478, 1000.000000000000000 ) ;
#600 = DIRECTION ( 'NONE',  ( 1.000000000000000000, -8.881784197001252323E-15, 0.000000000000000000 ) ) ;
#601 = ORIENTED_EDGE ( 'NONE', *, *, #512, .T. ) ;
#602 = ORIENTED_EDGE ( 'NONE', *, *, #641, .T. ) ;
#603 = ORIENTED_EDGE ( 'NONE', *, *, #642, .T. ) ;
#604 = DIRECTION ( 'NONE',  ( -0.2450387941317428431, -0.9695132744684114012, 0.000000000000000000 ) ) ;
#605 = AXIS2_PLACEMENT_3D ( 'NONE', #54, #422, #202 ) ;
#606 = LINE ( 'NONE', #536, #201 ) ;
#607 = ORIENTED_EDGE ( 'NONE', *, *, #782, .T. ) ;
#608 = AXIS2_PLACEMENT_3D ( 'NONE', #659, #444, #288 ) ;
#609 = EDGE_CURVE ( 'NONE', #794, #919, #917, .T. ) ;
#610 = CIRCLE ( 'NONE', #279, 50.00000000000000000 ) ;
#611 = CARTESIAN_POINT ( 'NONE',  ( -1.592040838891559450E-14, 130.0000000000000000, 11.50000000000000000 ) ) ;
#612 = EDGE_CURVE ( 'NONE', #652, #912, #37, .T. ) ;
#613 = CARTESIAN_POINT ( 'NONE',  ( -1.592040838891559450E-14, 130.0000000000000000, 11.50000000000000000 ) ) ;
#614 = ORIENTED_EDGE ( 'NONE', *, *, #743, .F. ) ;
#615 = CYLINDRICAL_SURFACE ( 'NONE', #894, 40.00000000000000000 ) ;
#616 = PRODUCT_DEFINITION ( 'UNKNOWN', '', #734, #252 ) ;
#617 = CARTESIAN_POINT ( 'NONE',  ( -40.00000000000001421, 130.0000000000000000, 6.000000000000000000 ) ) ;
#618 = ORIENTED_EDGE ( 'NONE', *, *, #812, .T. ) ;
#619 = CARTESIAN_POINT ( 'NONE',  ( -1.592040838891559450E-14, 130.0000000000000000, 6.000000000000000000 ) ) ;
#620 = DIRECTION ( 'NONE',  ( -0.000000000000000000, -0.000000000000000000, -1.000000000000000000 ) ) ;
#621 = EDGE_LOOP ( 'NONE', ( #706, #907, #952, #567 ) ) ;
#622 = CARTESIAN_POINT ( 'NONE',  ( -31.52433627657942594, 91.48880203035707837, 0.000000000000000000 ) ) ;
#623 = DIRECTION ( 'NONE',  ( -0.9442667388610533896, -0.3291812963713330875, 0.000000000000000000 ) ) ;
#624 = DIRECTION ( 'NONE',  ( 0.000000000000000000, 0.000000000000000000, -1.000000000000000000 ) ) ;
#625 = ORIENTED_EDGE ( 'NONE', *, *, #85, .T. ) ;
#626 = EDGE_CURVE ( 'NONE', #427, #307, #285, .T. ) ;
#627 = CARTESIAN_POINT ( 'NONE',  ( 14.99999999999999645, 55.99999999999999289, 0.000000000000000000 ) ) ;
#628 = DIRECTION ( 'NONE',  ( 1.000000000000000000, 0.000000000000000000, 0.000000000000000000 ) ) ;
#629 = AXIS2_PLACEMENT_3D ( 'NONE', #118, #630, #924 ) ;
#630 = DIRECTION ( 'NONE',  ( 0.000000000000000000, -0.000000000000000000, -1.000000000000000000 ) ) ;
#631 = VERTEX_POINT ( 'NONE', #195 ) ;
#632 = DIRECTION ( 'NONE',  ( -0.000000000000000000, 0.000000000000000000, 1.000000000000000000 ) ) ;
#633 = DIRECTION ( 'NONE',  ( 1.000000000000000000, 0.000000000000000000, 0.000000000000000000 ) ) ;
#634 = PLANE ( 'NONE',  #343 ) ;
#635 = ORIENTED_EDGE ( 'NONE', *, *, #714, .T. ) ;
#636 = AXIS2_PLACEMENT_3D ( 'NONE', #95, #22, #382 ) ;
#637 = CIRCLE ( 'NONE', #486, 40.00000000000000000 ) ;
#638 = DIRECTION ( 'NONE',  ( 1.000000000000000000, 3.608224830031759545E-15, 0.000000000000000000 ) ) ;
#639 = CLOSED_SHELL ( 'NONE', ( #282, #837, #653, #440, #207, #842, #205, #176, #233, #827, #143, #755, #294, #375, #131, #671, #881, #585, #61, #262, #334, #910, #442, #500, #449, #55, #899, #275, #922, #529 ) ) ;
#640 = PRESENTATION_STYLE_ASSIGNMENT (( #407 ) ) ;
#641 = EDGE_CURVE ( 'NONE', #496, #767, #327, .T. ) ;
#642 = EDGE_CURVE ( 'NONE', #271, #242, #259, .T. ) ;
#643 = DIRECTION ( 'NONE',  ( -1.000000000000000000, 0.000000000000000000, 0.000000000000000000 ) ) ;
#644 = VECTOR ( 'NONE', #535, 1000.000000000000000 ) ;
#645 = VERTEX_POINT ( 'NONE', #835 ) ;
#646 = DIRECTION ( 'NONE',  ( -0.000000000000000000, -0.000000000000000000, -1.000000000000000000 ) ) ;
#647 = LINE ( 'NONE', #127, #324 ) ;
#648 = EDGE_LOOP ( 'NONE', ( #424, #30, #711, #354 ) ) ;
#649 = CIRCLE ( 'NONE', #361, 37.87500000000000711 ) ;
#650 = DIRECTION ( 'NONE',  ( -1.387778780781445676E-16, -1.000000000000000000, 0.000000000000000000 ) ) ;
#651 = DIRECTION ( 'NONE',  ( -0.9442667388610533896, 0.3291812963713330875, 0.000000000000000000 ) ) ;
#652 = VERTEX_POINT ( 'NONE', #178 ) ;
#653 = ADVANCED_FACE ( 'NONE', ( #103 ), #615, .T. ) ;
#654 = DIRECTION ( 'NONE',  ( -1.000000000000000000, 0.000000000000000000, 0.000000000000000000 ) ) ;
#655 = MANIFOLD_SOLID_BREP ( 'Fillet2', #639 ) ;
#656 = CARTESIAN_POINT ( 'NONE',  ( 40.00000000000000000, 4.898587196589413026E-15, -27.50000000000000000 ) ) ;
#657 = ORIENTED_EDGE ( 'NONE', *, *, #191, .T. ) ;
#658 = VECTOR ( 'NONE', #759, 1000.000000000000000 ) ;
#659 = CARTESIAN_POINT ( 'NONE',  ( -1.040834085586084257E-14, 130.0000000000000284, -4.000000000000000000 ) ) ;
#660 = PLANE ( 'NONE',  #756 ) ;
#661 = EDGE_LOOP ( 'NONE', ( #369, #862, #421, #787 ) ) ;
#662 = DIRECTION ( 'NONE',  ( 3.469446951953609751E-16, -1.000000000000000000, 0.000000000000000000 ) ) ;
#663 = CARTESIAN_POINT ( 'NONE',  ( -30.00000000000000711, 4.163336342344337815E-15, -4.000000000000000000 ) ) ;
#664 = DIRECTION ( 'NONE',  ( -0.000000000000000000, 0.000000000000000000, 1.000000000000000000 ) ) ;
#665 = CARTESIAN_POINT ( 'NONE',  ( -80.00000000000001421, 43.92309359765577881, -4.000000000000000000 ) ) ;
#666 = CARTESIAN_POINT ( 'NONE',  ( -38.78053097873645783, 120.1984482347303924, -4.000000000000000000 ) ) ;
#667 = ADVANCED_BREP_SHAPE_REPRESENTATION ( 'L1V1', ( #655, #199 ), #469 ) ;
#668 = PLANE ( 'NONE',  #368 ) ;
#669 = FACE_OUTER_BOUND ( 'NONE', #814, .T. ) ;
#670 = EDGE_CURVE ( 'NONE', #106, #537, #818, .T. ) ;
#671 = ADVANCED_FACE ( 'NONE', ( #875 ), #203, .F. ) ;
#672 = DIRECTION ( 'NONE',  ( 1.000000000000000000, 0.000000000000000000, 0.000000000000000000 ) ) ;
#673 = ORIENTED_EDGE ( 'NONE', *, *, #470, .F. ) ;
#674 = LINE ( 'NONE', #758, #803 ) ;
#675 = DIRECTION ( 'NONE',  ( -1.000000000000000000, -1.387778780781445676E-16, 0.000000000000000000 ) ) ;
#676 = ORIENTED_EDGE ( 'NONE', *, *, #62, .F. ) ;
#677 = VERTEX_POINT ( 'NONE', #145 ) ;
#678 = CARTESIAN_POINT ( 'NONE',  ( -40.00000000000000000, 0.000000000000000000, -27.50000000000000000 ) ) ;
#679 = CARTESIAN_POINT ( 'NONE',  ( 37.77066955444212226, 13.16725185485332084, 6.000000000000000000 ) ) ;
#680 = ORIENTED_EDGE ( 'NONE', *, *, #626, .T. ) ;
#681 = EDGE_CURVE ( 'NONE', #783, #20, #220, .T. ) ;
#682 = AXIS2_PLACEMENT_3D ( 'NONE', #611, #418, #762 ) ;
#683 = DIRECTION ( 'NONE',  ( 0.000000000000000000, 0.000000000000000000, -1.000000000000000000 ) ) ;
#684 = VECTOR ( 'NONE', #738, 1000.000000000000000 ) ;
#685 = ORIENTED_EDGE ( 'NONE', *, *, #882, .T. ) ;
#686 = ORIENTED_EDGE ( 'NONE', *, *, #483, .T. ) ;
#687 = APPLICATION_PROTOCOL_DEFINITION ( 'draft international standard', 'automotive_design', 1998, #351 ) ;
#688 = AXIS2_PLACEMENT_3D ( 'NONE', #126, #851, #933 ) ;
#689 = EDGE_CURVE ( 'NONE', #242, #936, #404, .T. ) ;
#690 = AXIS2_PLACEMENT_3D ( 'NONE', #613, #381, #896 ) ;
#691 = CARTESIAN_POINT ( 'NONE',  ( -1.592040838891559450E-14, 130.0000000000000000, 6.000000000000000000 ) ) ;
#692 = DIRECTION ( 'NONE',  ( -0.000000000000000000, -0.000000000000000000, -1.000000000000000000 ) ) ;
#693 = VERTEX_POINT ( 'NONE', #927 ) ;
#694 = DIRECTION ( 'NONE',  ( -1.000000000000000000, 0.000000000000000000, 0.000000000000000000 ) ) ;
#695 = AXIS2_PLACEMENT_3D ( 'NONE', #323, #623, #466 ) ;
#696 = CARTESIAN_POINT ( 'NONE',  ( 0.000000000000000000, 0.000000000000000000, -27.50000000000000000 ) ) ;
#697 = EDGE_LOOP ( 'NONE', ( #475, #601, #80, #240, #607, #777, #587, #403, #434, #822, #571, #13, #349, #635, #856, #321 ) ) ;
#698 = DIRECTION ( 'NONE',  ( 0.000000000000000000, -0.000000000000000000, -1.000000000000000000 ) ) ;
#699 = DIRECTION ( 'NONE',  ( -1.000000000000000000, 0.000000000000000000, 0.000000000000000000 ) ) ;
#700 = DIRECTION ( 'NONE',  ( 1.000000000000000000, 0.000000000000000000, -0.000000000000000000 ) ) ;
#701 = EDGE_CURVE ( 'NONE', #152, #821, #563, .T. ) ;
#702 = ORIENTED_EDGE ( 'NONE', *, *, #191, .F. ) ;
#703 = FACE_OUTER_BOUND ( 'NONE', #93, .T. ) ;
#704 = DIRECTION ( 'NONE',  ( 1.000000000000000000, 0.000000000000000000, 0.000000000000000000 ) ) ;
#705 = DIRECTION ( 'NONE',  ( -1.000000000000000000, 0.000000000000000000, 0.000000000000000000 ) ) ;
#706 = ORIENTED_EDGE ( 'NONE', *, *, #85, .F. ) ;
#707 = DIRECTION ( 'NONE',  ( 1.000000000000000000, 0.000000000000000000, 0.000000000000000000 ) ) ;
#708 = DIRECTION ( 'NONE',  ( -0.000000000000000000, 0.000000000000000000, -1.000000000000000000 ) ) ;
#709 = AXIS2_PLACEMENT_3D ( 'NONE', #3, #136, #300 ) ;
#710 = CARTESIAN_POINT ( 'NONE',  ( 0.000000000000000000, 0.000000000000000000, 6.000000000000000000 ) ) ;
#711 = ORIENTED_EDGE ( 'NONE', *, *, #429, .F. ) ;
#712 = EDGE_CURVE ( 'NONE', #414, #239, #808, .T. ) ;
#713 = DIRECTION ( 'NONE',  ( 1.000000000000000000, 0.000000000000000000, 0.000000000000000000 ) ) ;
#714 = EDGE_CURVE ( 'NONE', #772, #456, #939, .T. ) ;
#715 = FACE_OUTER_BOUND ( 'NONE', #172, .T. ) ;
#716 = EDGE_LOOP ( 'NONE', ( #244, #17, #453, #747 ) ) ;
#717 = VECTOR ( 'NONE', #879, 999.9999999999998863 ) ;
#718 = DIRECTION ( 'NONE',  ( -0.2450387941317428153, -0.9695132744684114012, 0.000000000000000000 ) ) ;
#719 = EDGE_CURVE ( 'NONE', #137, #409, #649, .T. ) ;
#720 = LINE ( 'NONE', #868, #591 ) ;
#721 = AXIS2_PLACEMENT_3D ( 'NONE', #99, #173, #600 ) ;
#722 = ORIENTED_EDGE ( 'NONE', *, *, #502, .T. ) ;
#723 = CARTESIAN_POINT ( 'NONE',  ( 40.00000000000000000, -3.054205339190667400E-21, 0.000000000000000000 ) ) ;
#724 = CARTESIAN_POINT ( 'NONE',  ( -40.00000000000001421, 130.0000000000000000, 6.000000000000000000 ) ) ;
#725 = ORIENTED_EDGE ( 'NONE', *, *, #810, .F. ) ;
#726 = AXIS2_PLACEMENT_3D ( 'NONE', #436, #347, #633 ) ;
#727 = VERTEX_POINT ( 'NONE', #627 ) ;
#728 = CARTESIAN_POINT ( 'NONE',  ( -37.77066955444212226, 13.16725185485332084, 0.000000000000000000 ) ) ;
#729 = CARTESIAN_POINT ( 'NONE',  ( -6.123233995736766874E-15, 76.00000000000001421, -4.000000000000000000 ) ) ;
#730 = ORIENTED_EDGE ( 'NONE', *, *, #62, .T. ) ;
#731 = EDGE_CURVE ( 'NONE', #883, #456, #555, .T. ) ;
#732 = CIRCLE ( 'NONE', #196, 14.99999999999999467 ) ;
#733 = DIRECTION ( 'NONE',  ( 3.469446951953608765E-16, -1.000000000000000000, 0.000000000000000000 ) ) ;
#734 = PRODUCT_DEFINITION_FORMATION_WITH_SPECIFIED_SOURCE ( 'ANY', '', #824, .NOT_KNOWN. ) ;
#735 = ORIENTED_EDGE ( 'NONE', *, *, #689, .T. ) ;
#736 = AXIS2_PLACEMENT_3D ( 'NONE', #891, #450, #154 ) ;
#737 = AXIS2_PLACEMENT_3D ( 'NONE', #545, #624, #918 ) ;
#738 = DIRECTION ( 'NONE',  ( 0.000000000000000000, 0.000000000000000000, 1.000000000000000000 ) ) ;
#739 = CARTESIAN_POINT ( 'NONE',  ( -37.77066955444212226, 13.16725185485332084, 6.000000000000000000 ) ) ;
#740 = LINE ( 'NONE', #8, #658 ) ;
#741 = DIRECTION ( 'NONE',  ( 0.000000000000000000, 0.000000000000000000, -1.000000000000000000 ) ) ;
#742 = VECTOR ( 'NONE', #46, 1000.000000000000000 ) ;
#743 = EDGE_CURVE ( 'NONE', #301, #832, #417, .T. ) ;
#744 = EDGE_CURVE ( 'NONE', #537, #527, #245, .T. ) ;
#745 = CARTESIAN_POINT ( 'NONE',  ( 37.87499999999999289, 130.0000000000000000, 11.50000000000000000 ) ) ;
#746 = ORIENTED_EDGE ( 'NONE', *, *, #761, .F. ) ;
#747 = ORIENTED_EDGE ( 'NONE', *, *, #102, .T. ) ;
#748 = ORIENTED_EDGE ( 'NONE', *, *, #34, .T. ) ;
#749 = CARTESIAN_POINT ( 'NONE',  ( -37.85000000000000142, 4.635288134772731511E-15, -27.50000000000000000 ) ) ;
#750 = CARTESIAN_POINT ( 'NONE',  ( 0.000000000000000000, 0.000000000000000000, 0.000000000000000000 ) ) ;
#751 = ORIENTED_EDGE ( 'NONE', *, *, #769, .F. ) ;
#752 = EDGE_LOOP ( 'NONE', ( #64, #802, #391, #308 ) ) ;
#753 = CARTESIAN_POINT ( 'NONE',  ( 37.87499999999999289, 130.0000000000000000, 6.000000000000000000 ) ) ;
#754 = DIRECTION ( 'NONE',  ( -0.000000000000000000, 0.000000000000000000, 1.000000000000000000 ) ) ;
#755 = ADVANCED_FACE ( 'NONE', ( #863 ), #501, .F. ) ;
#756 = AXIS2_PLACEMENT_3D ( 'NONE', #437, #495, #949 ) ;
#757 = UNCERTAINTY_MEASURE_WITH_UNIT (LENGTH_MEASURE( 1.000000000000000082E-05 ), #51, 'distance_accuracy_value', 'NONE');
#758 = CARTESIAN_POINT ( 'NONE',  ( 14.99999999999998934, 76.00000000000002842, -4.000000000000000000 ) ) ;
#759 = DIRECTION ( 'NONE',  ( -0.000000000000000000, -0.000000000000000000, 1.000000000000000000 ) ) ;
#760 = EDGE_LOOP ( 'NONE', ( #120, #906, #524, #702 ) ) ;
#761 = EDGE_CURVE ( 'NONE', #298, #727, #931, .T. ) ;
#762 = DIRECTION ( 'NONE',  ( 1.000000000000000000, 0.000000000000000000, 0.000000000000000000 ) ) ;
#763 = FACE_OUTER_BOUND ( 'NONE', #83, .T. ) ;
#764 = CIRCLE ( 'NONE', #888, 40.00000000000000000 ) ;
#765 = PLANE ( 'NONE',  #695 ) ;
#766 = PLANE ( 'NONE',  #859 ) ;
#767 = VERTEX_POINT ( 'NONE', #789 ) ;
#768 = DIRECTION ( 'NONE',  ( 0.000000000000000000, 0.000000000000000000, 1.000000000000000000 ) ) ;
#769 = EDGE_CURVE ( 'NONE', #527, #20, #350, .T. ) ;
#770 = VECTOR ( 'NONE', #662, 1000.000000000000000 ) ;
#771 = CYLINDRICAL_SURFACE ( 'NONE', #445, 14.99999999999999467 ) ;
#772 = VERTEX_POINT ( 'NONE', #41 ) ;
#773 = CARTESIAN_POINT ( 'NONE',  ( -30.00000000000000000, 43.92309359765577881, 6.000000000000000000 ) ) ;
#774 = LINE ( 'NONE', #905, #819 ) ;
#775 = LINE ( 'NONE', #43, #876 ) ;
#776 = CIRCLE ( 'NONE', #117, 37.85000000000000142 ) ;
#777 = ORIENTED_EDGE ( 'NONE', *, *, #401, .T. ) ;
#778 = LINE ( 'NONE', #122, #77 ) ;
#779 = CARTESIAN_POINT ( 'NONE',  ( -37.77066955444212937, 13.16725185485330307, -4.000000000000000000 ) ) ;
#780 = VECTOR ( 'NONE', #692, 1000.000000000000000 ) ;
#781 = CARTESIAN_POINT ( 'NONE',  ( -40.00000000000001421, 130.0000000000000000, 0.000000000000000000 ) ) ;
#782 = EDGE_CURVE ( 'NONE', #414, #919, #45, .T. ) ;
#783 = VERTEX_POINT ( 'NONE', #406 ) ;
#784 = EDGE_CURVE ( 'NONE', #499, #301, #564, .T. ) ;
#785 = CARTESIAN_POINT ( 'NONE',  ( 0.000000000000000000, 0.000000000000000000, 0.000000000000000000 ) ) ;
#786 = CARTESIAN_POINT ( 'NONE',  ( 15.00000000000001421, 5.204170427930418128E-15, 0.000000000000000000 ) ) ;
#787 = ORIENTED_EDGE ( 'NONE', *, *, #911, .F. ) ;
#788 = EDGE_CURVE ( 'NONE', #106, #645, #263, .T. ) ;
#789 = CARTESIAN_POINT ( 'NONE',  ( -32.78666305694733296, 27.46402877908911933, 0.000000000000000000 ) ) ;
#790 = CARTESIAN_POINT ( 'NONE',  ( 14.99999999999999645, 55.99999999999999289, -4.000000000000000000 ) ) ;
#791 = ORIENTED_EDGE ( 'NONE', *, *, #597, .F. ) ;
#792 = CARTESIAN_POINT ( 'NONE',  ( 2.311115933264683024E-30, -2.163915544149815454E-14, 6.000000000000000000 ) ) ;
#793 = CARTESIAN_POINT ( 'NONE',  ( 37.85000000000000142, 0.000000000000000000, -27.50000000000000000 ) ) ;
#794 = VERTEX_POINT ( 'NONE', #622 ) ;
#795 = DIRECTION ( 'NONE',  ( -1.000000000000000000, 1.387778780781445676E-16, 0.000000000000000000 ) ) ;
#796 = VECTOR ( 'NONE', #192, 1000.000000000000000 ) ;
#797 = EDGE_CURVE ( 'NONE', #912, #242, #778, .T. ) ;
#798 = FACE_OUTER_BOUND ( 'NONE', #53, .T. ) ;
#799 = ORIENTED_EDGE ( 'NONE', *, *, #712, .T. ) ;
#800 = VECTOR ( 'NONE', #708, 1000.000000000000000 ) ;
#801 = DIRECTION ( 'NONE',  ( 0.000000000000000000, 0.000000000000000000, 1.000000000000000000 ) ) ;
#802 = ORIENTED_EDGE ( 'NONE', *, *, #570, .T. ) ;
#803 = VECTOR ( 'NONE', #165, 1000.000000000000000 ) ;
#804 = PLANE ( 'NONE',  #517 ) ;
#805 = ORIENTED_EDGE ( 'NONE', *, *, #102, .F. ) ;
#806 = DIRECTION ( 'NONE',  ( 0.000000000000000000, 0.000000000000000000, 1.000000000000000000 ) ) ;
#807 = ORIENTED_EDGE ( 'NONE', *, *, #744, .F. ) ;
#808 = LINE ( 'NONE', #666, #599 ) ;
#809 = VECTOR ( 'NONE', #303, 1000.000000000000000 ) ;
#810 = EDGE_CURVE ( 'NONE', #645, #631, #274, .T. ) ;
#811 = AXIS2_PLACEMENT_3D ( 'NONE', #460, #754, #97 ) ;
#812 = EDGE_CURVE ( 'NONE', #869, #152, #732, .T. ) ;
#813 = CARTESIAN_POINT ( 'NONE',  ( -37.87500000000002132, 130.0000000000000000, 11.50000000000000000 ) ) ;
#814 = EDGE_LOOP ( 'NONE', ( #816, #9, #215, #735, #893, #461, #306, #266, #439, #625, #528, #730, #889, #582 ) ) ;
#815 = CARTESIAN_POINT ( 'NONE',  ( 40.00000000000000000, 4.898587196589413026E-15, 6.000000000000000000 ) ) ;
#816 = ORIENTED_EDGE ( 'NONE', *, *, #416, .F. ) ;
#817 = ORIENTED_EDGE ( 'NONE', *, *, #490, .T. ) ;
#818 = CIRCLE ( 'NONE', #110, 40.00000000000000000 ) ;
#819 = VECTOR ( 'NONE', #181, 1000.000000000000000 ) ;
#820 = CARTESIAN_POINT ( 'NONE',  ( -37.85000000000000142, 4.635288134772731511E-15, -27.50000000000000000 ) ) ;
#821 = VERTEX_POINT ( 'NONE', #857 ) ;
#822 = ORIENTED_EDGE ( 'NONE', *, *, #928, .T. ) ;
#823 =( NAMED_UNIT ( * ) SI_UNIT ( $, .STERADIAN. ) SOLID_ANGLE_UNIT ( ) );
#824 = PRODUCT ( 'L1V1', 'L1V1', '', ( #89 ) ) ;
#825 = AXIS2_PLACEMENT_3D ( 'NONE', #59, #937, #284 ) ;
#826 = FACE_OUTER_BOUND ( 'NONE', #504, .T. ) ;
#827 = ADVANCED_FACE ( 'NONE', ( #703 ), #926, .F. ) ;
#828 = CARTESIAN_POINT ( 'NONE',  ( -37.77066955444212937, 13.16725185485330307, 6.000000000000000000 ) ) ;
#829 = EDGE_LOOP ( 'NONE', ( #156, #833 ) ) ;
#830 = AXIS2_PLACEMENT_3D ( 'NONE', #750, #249, #455 ) ;
#831 = LINE ( 'NONE', #458, #392 ) ;
#832 = VERTEX_POINT ( 'NONE', #867 ) ;
#833 = ORIENTED_EDGE ( 'NONE', *, *, #784, .F. ) ;
#834 = AXIS2_PLACEMENT_3D ( 'NONE', #39, #620, #705 ) ;
#835 = CARTESIAN_POINT ( 'NONE',  ( -40.00000000000000000, 0.000000000000000000, 0.000000000000000000 ) ) ;
#836 = ORIENTED_EDGE ( 'NONE', *, *, #542, .F. ) ;
#837 = ADVANCED_FACE ( 'NONE', ( #336 ), #916, .T. ) ;
#838 = DIRECTION ( 'NONE',  ( -0.000000000000000000, -0.000000000000000000, -1.000000000000000000 ) ) ;
#839 = CARTESIAN_POINT ( 'NONE',  ( -1.592040838891559450E-14, 130.0000000000000000, 11.50000000000000000 ) ) ;
#840 = EDGE_LOOP ( 'NONE', ( #584, #344, #292, #592, #576, #549 ) ) ;
#841 = EDGE_CURVE ( 'NONE', #693, #166, #481, .T. ) ;
#842 = ADVANCED_FACE ( 'NONE', ( #71 ), #224, .T. ) ;
#843 = CARTESIAN_POINT ( 'NONE',  ( 31.52433627657942594, 91.48880203035707837, 0.000000000000000000 ) ) ;
#844 = CARTESIAN_POINT ( 'NONE',  ( -15.00000000000000000, 76.00000000000001421, 6.000000000000000000 ) ) ;
#845 = ORIENTED_EDGE ( 'NONE', *, *, #416, .T. ) ;
#846 = DIRECTION ( 'NONE',  ( -0.000000000000000000, -0.000000000000000000, -1.000000000000000000 ) ) ;
#847 = DIRECTION ( 'NONE',  ( -0.000000000000000000, 0.000000000000000000, 1.000000000000000000 ) ) ;
#848 = PRESENTATION_LAYER_ASSIGNMENT (  '', '', ( #388 ) ) ;
#849 = CARTESIAN_POINT ( 'NONE',  ( -30.00000000000000000, 43.92309359765577881, 6.000000000000000000 ) ) ;
#850 = ORIENTED_EDGE ( 'NONE', *, *, #943, .T. ) ;
#851 = DIRECTION ( 'NONE',  ( 0.000000000000000000, 0.000000000000000000, -1.000000000000000000 ) ) ;
#852 = DIRECTION ( 'NONE',  ( 0.000000000000000000, -0.000000000000000000, -1.000000000000000000 ) ) ;
#853 = EDGE_CURVE ( 'NONE', #301, #499, #776, .T. ) ;
#854 = CARTESIAN_POINT ( 'NONE',  ( -15.00000000000000000, 76.00000000000001421, 0.000000000000000000 ) ) ;
#855 = VECTOR ( 'NONE', #194, 1000.000000000000000 ) ;
#856 = ORIENTED_EDGE ( 'NONE', *, *, #731, .F. ) ;
#857 = CARTESIAN_POINT ( 'NONE',  ( -14.99999999999999467, 55.99999999999998579, 6.000000000000000000 ) ) ;
#858 = VECTOR ( 'NONE', #286, 1000.000000000000000 ) ;
#859 = AXIS2_PLACEMENT_3D ( 'NONE', #696, #348, #277 ) ;
#860 = CARTESIAN_POINT ( 'NONE',  ( -14.99999999999999289, 55.99999999999998579, 0.000000000000000000 ) ) ;
#861 = EDGE_CURVE ( 'NONE', #187, #152, #84, .T. ) ;
#862 = ORIENTED_EDGE ( 'NONE', *, *, #572, .F. ) ;
#863 = FACE_OUTER_BOUND ( 'NONE', #312, .T. ) ;
#864 = CARTESIAN_POINT ( 'NONE',  ( 0.000000000000000000, 0.000000000000000000, 0.000000000000000000 ) ) ;
#865 = AXIS2_PLACEMENT_3D ( 'NONE', #341, #107, #628 ) ;
#866 = ORIENTED_EDGE ( 'NONE', *, *, #670, .F. ) ;
#867 = CARTESIAN_POINT ( 'NONE',  ( 37.85000000000000142, 0.000000000000000000, 0.000000000000000000 ) ) ;
#868 = CARTESIAN_POINT ( 'NONE',  ( 40.00000000000000000, -3.054205339190667400E-21, 6.000000000000000000 ) ) ;
#869 = VERTEX_POINT ( 'NONE', #514 ) ;
#870 = FACE_OUTER_BOUND ( 'NONE', #716, .T. ) ;
#871 = EDGE_CURVE ( 'NONE', #821, #339, #393, .T. ) ;
#872 = FACE_OUTER_BOUND ( 'NONE', #596, .T. ) ;
#873 = ORIENTED_EDGE ( 'NONE', *, *, #365, .F. ) ;
#874 = ORIENTED_EDGE ( 'NONE', *, *, #861, .F. ) ;
#875 = FACE_OUTER_BOUND ( 'NONE', #760, .T. ) ;
#876 = VECTOR ( 'NONE', #419, 1000.000000000000114 ) ;
#877 = CARTESIAN_POINT ( 'NONE',  ( 2.310027750441731374E-30, -2.163915544149816716E-14, 6.000000000000000000 ) ) ;
#878 = ORIENTED_EDGE ( 'NONE', *, *, #572, .T. ) ;
#879 = DIRECTION ( 'NONE',  ( -0.3291812963713330875, -0.9442667388610533896, 0.000000000000000000 ) ) ;
#880 = CARTESIAN_POINT ( 'NONE',  ( -38.78053097873647204, 120.1984482347304208, 6.000000000000000000 ) ) ;
#881 = ADVANCED_FACE ( 'NONE', ( #299 ), #804, .F. ) ;
#882 = EDGE_CURVE ( 'NONE', #946, #137, #521, .T. ) ;
#883 = VERTEX_POINT ( 'NONE', #158 ) ;
#884 = DIRECTION ( 'NONE',  ( -0.000000000000000000, -0.000000000000000000, 1.000000000000000000 ) ) ;
#885 = ORIENTED_EDGE ( 'NONE', *, *, #318, .F. ) ;
#886 = LINE ( 'NONE', #815, #473 ) ;
#887 = PLANE ( 'NONE',  #155 ) ;
#888 = AXIS2_PLACEMENT_3D ( 'NONE', #433, #204, #643 ) ;
#889 = ORIENTED_EDGE ( 'NONE', *, *, #163, .F. ) ;
#890 = CARTESIAN_POINT ( 'NONE',  ( -1.387778780781446938E-14, 130.0000000000001137, 6.000000000000000000 ) ) ;
#891 = CARTESIAN_POINT ( 'NONE',  ( 80.00000000000001421, 43.92309359765577881, -4.000000000000000000 ) ) ;
#892 = CYLINDRICAL_SURFACE ( 'NONE', #295, 49.99999999999998579 ) ;
#893 = ORIENTED_EDGE ( 'NONE', *, *, #318, .T. ) ;
#894 = AXIS2_PLACEMENT_3D ( 'NONE', #908, #838, #699 ) ;
#895 = CARTESIAN_POINT ( 'NONE',  ( 14.99999999999998934, 76.00000000000002842, 6.000000000000000000 ) ) ;
#896 = DIRECTION ( 'NONE',  ( 1.000000000000000000, 0.000000000000000000, 0.000000000000000000 ) ) ;
#897 = ORIENTED_EDGE ( 'NONE', *, *, #812, .F. ) ;
#898 = ORIENTED_EDGE ( 'NONE', *, *, #304, .F. ) ;
#899 = ADVANCED_FACE ( 'NONE', ( #150 ), #302, .T. ) ;
#900 = VECTOR ( 'NONE', #646, 1000.000000000000000 ) ;
#901 = CARTESIAN_POINT ( 'NONE',  ( -6.123233995736766874E-15, 76.00000000000001421, 0.000000000000000000 ) ) ;
#902 = ORIENTED_EDGE ( 'NONE', *, *, #129, .T. ) ;
#903 = VERTEX_POINT ( 'NONE', #723 ) ;
#904 = AXIS2_PLACEMENT_3D ( 'NONE', #182, #338, #269 ) ;
#905 = CARTESIAN_POINT ( 'NONE',  ( 37.87499999999999289, 130.0000000000000000, 11.50000000000000000 ) ) ;
#906 = ORIENTED_EDGE ( 'NONE', *, *, #701, .T. ) ;
#907 = ORIENTED_EDGE ( 'NONE', *, *, #641, .F. ) ;
#908 = CARTESIAN_POINT ( 'NONE',  ( 0.000000000000000000, 0.000000000000000000, 6.000000000000000000 ) ) ;
#909 = FACE_OUTER_BOUND ( 'NONE', #206, .T. ) ;
#910 = ADVANCED_FACE ( 'NONE', ( #379 ), #668, .T. ) ;
#911 = EDGE_CURVE ( 'NONE', #912, #287, #309, .T. ) ;
#912 = VERTEX_POINT ( 'NONE', #593 ) ;
#913 = CARTESIAN_POINT ( 'NONE',  ( 0.000000000000000000, 0.000000000000000000, -27.50000000000000000 ) ) ;
#914 = DIRECTION ( 'NONE',  ( 1.000000000000000000, 0.000000000000000000, 0.000000000000000000 ) ) ;
#915 = EDGE_LOOP ( 'NONE', ( #817, #618, #874, #148 ) ) ;
#916 = CYLINDRICAL_SURFACE ( 'NONE', #151, 37.87500000000000711 ) ;
#917 = LINE ( 'NONE', #556, #451 ) ;
#918 = DIRECTION ( 'NONE',  ( -1.000000000000000000, 0.000000000000000000, 0.000000000000000000 ) ) ;
#919 = VERTEX_POINT ( 'NONE', #139 ) ;
#920 = VECTOR ( 'NONE', #141, 1000.000000000000000 ) ;
#921 = CARTESIAN_POINT ( 'NONE',  ( 30.00000000000000711, 4.163336342344337815E-15, 6.000000000000000000 ) ) ;
#922 = ADVANCED_FACE ( 'NONE', ( #870 ), #583, .T. ) ;
#923 = DIRECTION ( 'NONE',  ( 1.000000000000000000, 0.000000000000000000, 0.000000000000000000 ) ) ;
#924 = DIRECTION ( 'NONE',  ( 1.000000000000000000, 0.000000000000000000, 0.000000000000000000 ) ) ;
#925 = ORIENTED_EDGE ( 'NONE', *, *, #333, .F. ) ;
#926 = CYLINDRICAL_SURFACE ( 'NONE', #825, 37.85000000000000142 ) ;
#927 = CARTESIAN_POINT ( 'NONE',  ( -30.00000000000000000, 43.92309359765577881, 0.000000000000000000 ) ) ;
#928 = EDGE_CURVE ( 'NONE', #73, #106, #637, .T. ) ;
#929 = AXIS2_PLACEMENT_3D ( 'NONE', #247, #476, #551 ) ;
#930 = FACE_OUTER_BOUND ( 'NONE', #144, .T. ) ;
#931 = CIRCLE ( 'NONE', #441, 14.99999999999999467 ) ;
#932 = ORIENTED_EDGE ( 'NONE', *, *, #32, .T. ) ;
#933 = DIRECTION ( 'NONE',  ( -1.000000000000000000, 0.000000000000000000, 0.000000000000000000 ) ) ;
#934 = AXIS2_PLACEMENT_3D ( 'NONE', #319, #664, #530 ) ;
#935 = CARTESIAN_POINT ( 'NONE',  ( 14.99999999999999645, 55.99999999999999289, 6.000000000000000000 ) ) ;
#936 = VERTEX_POINT ( 'NONE', #428 ) ;
#937 = DIRECTION ( 'NONE',  ( -0.000000000000000000, -0.000000000000000000, 1.000000000000000000 ) ) ;
#938 = PLANE ( 'NONE',  #183 ) ;
#939 = CIRCLE ( 'NONE', #68, 49.99999999999998579 ) ;
#940 = VECTOR ( 'NONE', #256, 1000.000000000000000 ) ;
#941 = EDGE_CURVE ( 'NONE', #456, #237, #359, .T. ) ;
#942 = ORIENTED_EDGE ( 'NONE', *, *, #543, .F. ) ;
#943 = EDGE_CURVE ( 'NONE', #767, #631, #214, .T. ) ;
#944 = DIRECTION ( 'NONE',  ( -0.000000000000000000, -0.000000000000000000, -1.000000000000000000 ) ) ;
#945 = DIRECTION ( 'NONE',  ( -1.000000000000000000, -3.469446951953608765E-16, 0.000000000000000000 ) ) ;
#946 = VERTEX_POINT ( 'NONE', #947 ) ;
#947 = CARTESIAN_POINT ( 'NONE',  ( -37.87500000000002132, 130.0000000000000000, 11.50000000000000000 ) ) ;
#948 =( NAMED_UNIT ( * ) SI_UNIT ( $, .STERADIAN. ) SOLID_ANGLE_UNIT ( ) );
#949 = DIRECTION ( 'NONE',  ( 0.2450387941317428153, -0.9695132744684114012, 0.000000000000000000 ) ) ;
#950 = CIRCLE ( 'NONE', #534, 37.85000000000000142 ) ;
#951 = VERTEX_POINT ( 'NONE', #293 ) ;
#952 = ORIENTED_EDGE ( 'NONE', *, *, #119, .F. ) ;
#953 = CARTESIAN_POINT ( 'NONE',  ( 4.622231866529366047E-30, 55.99999999999999289, 6.000000000000000000 ) ) ;
ENDSEC;
END-ISO-10303-21;
