ISO-10303-21;
HEADER;
FILE_DESCRIPTION (( 'STEP AP214' ),
    '1' );
FILE_NAME ('L2V1.STEP',
    '2026-09-13T01:17:48',
    ( '' ),
    ( '' ),
    'SwSTEP 2.0',
    'SolidWorks 2026',
    '' );
FILE_SCHEMA (( 'AUTOMOTIVE_DESIGN' ));
ENDSEC;

DATA;
#1 = ORIENTED_EDGE ( 'NONE', *, *, #340, .T. ) ;
#2 = CIRCLE ( 'NONE', #153, 40.00000000000000000 ) ;
#3 = DIRECTION ( 'NONE',  ( -0.000000000000000000, -0.000000000000000000, 1.000000000000000000 ) ) ;
#4 = ORIENTED_EDGE ( 'NONE', *, *, #321, .T. ) ;
#5 = ORIENTED_EDGE ( 'NONE', *, *, #458, .F. ) ;
#6 = DIRECTION ( 'NONE',  ( -0.000000000000000000, -0.000000000000000000, 1.000000000000000000 ) ) ;
#7 = ORIENTED_EDGE ( 'NONE', *, *, #126, .F. ) ;
#8 = DIRECTION ( 'NONE',  ( 0.000000000000000000, 0.000000000000000000, -1.000000000000000000 ) ) ;
#9 = DIRECTION ( 'NONE',  ( -0.000000000000000000, -0.000000000000000000, 1.000000000000000000 ) ) ;
#10 = ORIENTED_EDGE ( 'NONE', *, *, #172, .F. ) ;
#11 = DIRECTION ( 'NONE',  ( 8.673617379884036705E-17, -1.000000000000000000, 0.000000000000000000 ) ) ;
#12 = AXIS2_PLACEMENT_3D ( 'NONE', #352, #358, #495 ) ;
#13 = ORIENTED_EDGE ( 'NONE', *, *, #245, .T. ) ;
#14 = CARTESIAN_POINT ( 'NONE',  ( 38.00000000000000000, 0.000000000000000000, 0.000000000000000000 ) ) ;
#15 = DIRECTION ( 'NONE',  ( 1.000000000000000000, 0.000000000000000000, 0.000000000000000000 ) ) ;
#16 = EDGE_CURVE ( 'NONE', #171, #142, #287, .T. ) ;
#17 = ORIENTED_EDGE ( 'NONE', *, *, #541, .F. ) ;
#18 = CARTESIAN_POINT ( 'NONE',  ( -3.000000000000016875, 130.0000000000000000, 0.000000000000000000 ) ) ;
#19 = EDGE_CURVE ( 'NONE', #179, #240, #605, .T. ) ;
#20 = LINE ( 'NONE', #496, #590 ) ;
#21 = CARTESIAN_POINT ( 'NONE',  ( 0.000000000000000000, 0.000000000000000000, -21.50000000000000000 ) ) ;
#22 = VECTOR ( 'NONE', #207, 1000.000000000000000 ) ;
#23 = DIRECTION ( 'NONE',  ( -1.000000000000000000, 0.000000000000000000, 0.000000000000000000 ) ) ;
#24 = ORIENTED_EDGE ( 'NONE', *, *, #84, .F. ) ;
#25 = CARTESIAN_POINT ( 'NONE',  ( 24.83302225027874144, 132.8846153846154152, -185.7905184913923051 ) ) ;
#26 = EDGE_CURVE ( 'NONE', #400, #602, #185, .T. ) ;
#27 = CARTESIAN_POINT ( 'NONE',  ( -14.99999999999999289, 76.00000000000000000, 0.000000000000000000 ) ) ;
#28 = FACE_BOUND ( 'NONE', #547, .T. ) ;
#29 = CYLINDRICAL_SURFACE ( 'NONE', #384, 38.00000000000000000 ) ;
#30 = CARTESIAN_POINT ( 'NONE',  ( -39.73283560044610141, 4.615384615384642508, 6.000000000000000000 ) ) ;
#31 =( LENGTH_UNIT ( ) NAMED_UNIT ( * ) SI_UNIT ( .MILLI., .METRE. ) );
#32 = CARTESIAN_POINT ( 'NONE',  ( -40.00000000000000000, 0.000000000000000000, -21.50000000000000000 ) ) ;
#33 = AXIS2_PLACEMENT_3D ( 'NONE', #595, #406, #597 ) ;
#34 = AXIS2_PLACEMENT_3D ( 'NONE', #527, #440, #386 ) ;
#35 = ORIENTED_EDGE ( 'NONE', *, *, #148, .F. ) ;
#36 = APPLICATION_PROTOCOL_DEFINITION ( 'draft international standard', 'automotive_design', 1998, #230 ) ;
#37 = CARTESIAN_POINT ( 'NONE',  ( 15.00000000000000888, 56.00000000000000711, 6.000000000000000000 ) ) ;
#38 = ORIENTED_EDGE ( 'NONE', *, *, #455, .F. ) ;
#39 = FACE_BOUND ( 'NONE', #324, .T. ) ;
#40 = ORIENTED_EDGE ( 'NONE', *, *, #389, .T. ) ;
#41 = CARTESIAN_POINT ( 'NONE',  ( 40.00000000000000000, -3.054205339190667400E-21, 6.000000000000000000 ) ) ;
#42 = PRODUCT_DEFINITION_CONTEXT ( 'detailed design', #57, 'design' ) ;
#43 = VERTEX_POINT ( 'NONE', #557 ) ;
#44 = CARTESIAN_POINT ( 'NONE',  ( 15.00000000000000711, 76.00000000000001421, 6.000000000000000000 ) ) ;
#45 = PRODUCT_DEFINITION ( 'UNKNOWN', '', #284, #42 ) ;
#46 = VERTEX_POINT ( 'NONE', #137 ) ;
#47 = CARTESIAN_POINT ( 'NONE',  ( 2.999999999999984901, 130.0000000000000000, -8.485281374238574870 ) ) ;
#48 = EDGE_CURVE ( 'NONE', #437, #98, #51, .T. ) ;
#49 = DIRECTION ( 'NONE',  ( 1.000000000000000000, 0.000000000000000000, 0.000000000000000000 ) ) ;
#50 = ORIENTED_EDGE ( 'NONE', *, *, #93, .T. ) ;
#51 = CIRCLE ( 'NONE', #208, 40.00000000000000000 ) ;
#52 = ORIENTED_EDGE ( 'NONE', *, *, #471, .T. ) ;
#53 = CARTESIAN_POINT ( 'NONE',  ( -24.83302225027878052, 132.8846153846154436, 0.000000000000000000 ) ) ;
#54 = CARTESIAN_POINT ( 'NONE',  ( 15.00000000000000711, 76.00000000000001421, 0.000000000000000000 ) ) ;
#55 = EDGE_LOOP ( 'NONE', ( #129, #132, #92, #425 ) ) ;
#56 = DIRECTION ( 'NONE',  ( -1.000000000000000000, -8.673617379884036705E-17, 0.000000000000000000 ) ) ;
#57 = APPLICATION_CONTEXT ( 'automotive_design' ) ;
#58 = VERTEX_POINT ( 'NONE', #238 ) ;
#59 = VECTOR ( 'NONE', #343, 1000.000000000000000 ) ;
#60 = CARTESIAN_POINT ( 'NONE',  ( -1.592040838891559450E-14, 130.0000000000000000, 6.000000000000000000 ) ) ;
#61 = AXIS2_PLACEMENT_3D ( 'NONE', #580, #346, #289 ) ;
#62 = VERTEX_POINT ( 'NONE', #561 ) ;
#63 = CARTESIAN_POINT ( 'NONE',  ( -14.99999999999999289, 76.00000000000000000, 0.000000000000000000 ) ) ;
#64 = EDGE_CURVE ( 'NONE', #376, #190, #139, .T. ) ;
#65 = CARTESIAN_POINT ( 'NONE',  ( 0.000000000000000000, 0.000000000000000000, -21.50000000000000000 ) ) ;
#66 = VECTOR ( 'NONE', #269, 1000.000000000000000 ) ;
#67 = ORIENTED_EDGE ( 'NONE', *, *, #196, .F. ) ;
#68 = DIRECTION ( 'NONE',  ( -1.000000000000000000, 0.000000000000000000, 0.000000000000000000 ) ) ;
#69 = CYLINDRICAL_SURFACE ( 'NONE', #325, 3.000000000000000888 ) ;
#70 = SURFACE_STYLE_USAGE ( .BOTH. , #113 ) ;
#71 = CYLINDRICAL_SURFACE ( 'NONE', #342, 40.00000000000000000 ) ;
#72 = ADVANCED_FACE ( 'NONE', ( #131 ), #323, .F. ) ;
#73 = CARTESIAN_POINT ( 'NONE',  ( 15.00000000000000888, 56.00000000000000711, -185.7905184913923051 ) ) ;
#74 = VECTOR ( 'NONE', #506, 1000.000000000000000 ) ;
#75 = DIRECTION ( 'NONE',  ( -0.1153846153846158351, -0.9933208900111506479, 0.000000000000000000 ) ) ;
#76 = CARTESIAN_POINT ( 'NONE',  ( 0.000000000000000000, 0.000000000000000000, 0.000000000000000000 ) ) ;
#77 = CARTESIAN_POINT ( 'NONE',  ( 0.000000000000000000, 0.000000000000000000, 6.000000000000000000 ) ) ;
#78 =( NAMED_UNIT ( * ) SI_UNIT ( $, .STERADIAN. ) SOLID_ANGLE_UNIT ( ) );
#79 = DIRECTION ( 'NONE',  ( 0.000000000000000000, 0.000000000000000000, -1.000000000000000000 ) ) ;
#80 = DIRECTION ( 'NONE',  ( 0.000000000000000000, 0.000000000000000000, -1.000000000000000000 ) ) ;
#81 = AXIS2_PLACEMENT_3D ( 'NONE', #382, #104, #483 ) ;
#82 = AXIS2_PLACEMENT_3D ( 'NONE', #353, #537, #306 ) ;
#83 = ORIENTED_EDGE ( 'NONE', *, *, #498, .T. ) ;
#84 = EDGE_CURVE ( 'NONE', #336, #202, #180, .T. ) ;
#85 = FACE_OUTER_BOUND ( 'NONE', #283, .T. ) ;
#86 = EDGE_CURVE ( 'NONE', #319, #285, #277, .T. ) ;
#87 = ORIENTED_EDGE ( 'NONE', *, *, #500, .F. ) ;
#88 = CARTESIAN_POINT ( 'NONE',  ( -14.99999999999999289, 76.00000000000000000, -185.7905184913923051 ) ) ;
#89 = ORIENTED_EDGE ( 'NONE', *, *, #370, .T. ) ;
#90 = DIRECTION ( 'NONE',  ( 1.000000000000000000, 0.000000000000000000, 0.000000000000000000 ) ) ;
#91 = ADVANCED_FACE ( 'NONE', ( #419 ), #603, .T. ) ;
#92 = ORIENTED_EDGE ( 'NONE', *, *, #239, .T. ) ;
#93 = EDGE_CURVE ( 'NONE', #98, #524, #462, .T. ) ;
#94 = AXIS2_PLACEMENT_3D ( 'NONE', #149, #443, #582 ) ;
#95 = ORIENTED_EDGE ( 'NONE', *, *, #481, .T. ) ;
#96 = ORIENTED_EDGE ( 'NONE', *, *, #516, .F. ) ;
#97 = ORIENTED_EDGE ( 'NONE', *, *, #522, .F. ) ;
#98 = VERTEX_POINT ( 'NONE', #41 ) ;
#99 = CARTESIAN_POINT ( 'NONE',  ( 7.750839995123942218E-15, 76.00000000000000000, 6.000000000000000000 ) ) ;
#100 = AXIS2_PLACEMENT_3D ( 'NONE', #421, #468, #423 ) ;
#101 = VECTOR ( 'NONE', #383, 1000.000000000000000 ) ;
#102 = CARTESIAN_POINT ( 'NONE',  ( 2.999999999999984901, 130.0000000000000000, 0.000000000000000000 ) ) ;
#103 = EDGE_LOOP ( 'NONE', ( #365, #418, #396, #459 ) ) ;
#104 = DIRECTION ( 'NONE',  ( -0.000000000000000000, 0.000000000000000000, 1.000000000000000000 ) ) ;
#105 = CARTESIAN_POINT ( 'NONE',  ( 0.000000000000000000, 0.000000000000000000, -21.50000000000000000 ) ) ;
#106 = ORIENTED_EDGE ( 'NONE', *, *, #417, .T. ) ;
#107 = CARTESIAN_POINT ( 'NONE',  ( -1.592040838891559450E-14, 130.0000000000000000, -8.485281374238574870 ) ) ;
#108 = ORIENTED_EDGE ( 'NONE', *, *, #321, .F. ) ;
#109 = CARTESIAN_POINT ( 'NONE',  ( 24.83302225027874144, 132.8846153846154152, 0.000000000000000000 ) ) ;
#110 = CIRCLE ( 'NONE', #81, 40.00000000000000000 ) ;
#111 = CARTESIAN_POINT ( 'NONE',  ( 0.000000000000000000, 0.000000000000000000, 0.000000000000000000 ) ) ;
#112 = AXIS2_PLACEMENT_3D ( 'NONE', #405, #315, #261 ) ;
#113 = SURFACE_SIDE_STYLE ('',( #301 ) ) ;
#114 = PLANE ( 'NONE',  #163 ) ;
#115 = DIRECTION ( 'NONE',  ( 0.000000000000000000, -0.000000000000000000, -1.000000000000000000 ) ) ;
#116 = LINE ( 'NONE', #532, #556 ) ;
#117 = DIRECTION ( 'NONE',  ( 1.000000000000000000, 0.000000000000000000, 0.000000000000000000 ) ) ;
#118 = DIRECTION ( 'NONE',  ( -0.000000000000000000, -0.000000000000000000, 1.000000000000000000 ) ) ;
#119 = CARTESIAN_POINT ( 'NONE',  ( 38.00000000000000000, 0.000000000000000000, -21.50000000000000000 ) ) ;
#120 = CYLINDRICAL_SURFACE ( 'NONE', #82, 40.00000000000000000 ) ;
#121 = CARTESIAN_POINT ( 'NONE',  ( 0.000000000000000000, 0.000000000000000000, -21.50000000000000000 ) ) ;
#122 = AXIS2_PLACEMENT_3D ( 'NONE', #214, #80, #457 ) ;
#123 = CARTESIAN_POINT ( 'NONE',  ( 15.00000000000000711, 76.00000000000000000, 6.000000000000005329 ) ) ;
#124 = CARTESIAN_POINT ( 'NONE',  ( -3.000000000000016875, 130.0000000000000000, 6.000000000000000000 ) ) ;
#125 = CARTESIAN_POINT ( 'NONE',  ( -1.592040838891559450E-14, 130.0000000000000000, 6.000000000000000000 ) ) ;
#126 = EDGE_CURVE ( 'NONE', #240, #362, #364, .T. ) ;
#127 = VERTEX_POINT ( 'NONE', #366 ) ;
#128 = EDGE_CURVE ( 'NONE', #58, #173, #552, .T. ) ;
#129 = ORIENTED_EDGE ( 'NONE', *, *, #387, .F. ) ;
#130 = AXIS2_PLACEMENT_3D ( 'NONE', #348, #197, #441 ) ;
#131 = FACE_OUTER_BOUND ( 'NONE', #470, .T. ) ;
#132 = ORIENTED_EDGE ( 'NONE', *, *, #455, .T. ) ;
#133 = ADVANCED_FACE ( 'NONE', ( #523 ), #397, .F. ) ;
#134 = CARTESIAN_POINT ( 'NONE',  ( -14.99999999999999112, 56.00000000000000000, -185.7905184913923051 ) ) ;
#135 = ORIENTED_EDGE ( 'NONE', *, *, #194, .F. ) ;
#136 = CIRCLE ( 'NONE', #589, 3.000000000000000888 ) ;
#137 = CARTESIAN_POINT ( 'NONE',  ( 15.00000000000000888, 56.00000000000000711, 0.000000000000000000 ) ) ;
#138 = ORIENTED_EDGE ( 'NONE', *, *, #93, .F. ) ;
#139 = LINE ( 'NONE', #88, #446 ) ;
#140 = ORIENTED_EDGE ( 'NONE', *, *, #245, .F. ) ;
#141 = DIRECTION ( 'NONE',  ( 0.000000000000000000, 0.000000000000000000, -1.000000000000000000 ) ) ;
#142 = VERTEX_POINT ( 'NONE', #480 ) ;
#143 = LINE ( 'NONE', #476, #528 ) ;
#144 = CIRCLE ( 'NONE', #241, 40.00000000000000000 ) ;
#145 = CARTESIAN_POINT ( 'NONE',  ( 0.000000000000000000, 0.000000000000000000, 0.000000000000000000 ) ) ;
#146 = ORIENTED_EDGE ( 'NONE', *, *, #463, .F. ) ;
#147 = CARTESIAN_POINT ( 'NONE',  ( 0.000000000000000000, 0.000000000000000000, 0.000000000000000000 ) ) ;
#148 = EDGE_CURVE ( 'NONE', #46, #279, #477, .T. ) ;
#149 = CARTESIAN_POINT ( 'NONE',  ( 8.975486794271295277E-15, 56.00000000000000711, 0.000000000000000000 ) ) ;
#150 = ADVANCED_FACE ( 'NONE', ( #203 ), #526, .F. ) ;
#151 = CARTESIAN_POINT ( 'NONE',  ( 24.83302225027874144, 132.8846153846154152, 6.000000000000000000 ) ) ;
#152 = FILL_AREA_STYLE_COLOUR ( '', #511 ) ;
#153 = AXIS2_PLACEMENT_3D ( 'NONE', #65, #377, #566 ) ;
#154 = DIRECTION ( 'NONE',  ( -0.000000000000000000, -0.000000000000000000, 1.000000000000000000 ) ) ;
#155 = ORIENTED_EDGE ( 'NONE', *, *, #64, .T. ) ;
#156 = LINE ( 'NONE', #267, #164 ) ;
#157 = DIRECTION ( 'NONE',  ( 0.000000000000000000, 0.000000000000000000, -1.000000000000000000 ) ) ;
#158 = FACE_OUTER_BOUND ( 'NONE', #381, .T. ) ;
#159 = EDGE_LOOP ( 'NONE', ( #507, #576, #106, #229 ) ) ;
#160 = CARTESIAN_POINT ( 'NONE',  ( 2.999999999999984901, 130.0000000000000000, 6.000000000000000000 ) ) ;
#161 = DIRECTION ( 'NONE',  ( 8.673617379884034239E-17, -1.000000000000000000, 0.000000000000000000 ) ) ;
#162 = DIRECTION ( 'NONE',  ( 0.000000000000000000, 0.000000000000000000, 1.000000000000000000 ) ) ;
#163 = AXIS2_PLACEMENT_3D ( 'NONE', #243, #56, #11 ) ;
#164 = VECTOR ( 'NONE', #492, 999.9999999999998863 ) ;
#165 = DIRECTION ( 'NONE',  ( -0.000000000000000000, -0.000000000000000000, -1.000000000000000000 ) ) ;
#166 = CARTESIAN_POINT ( 'NONE',  ( 39.73283560044602325, 4.615384615385372591, -185.7905184913923051 ) ) ;
#167 = CARTESIAN_POINT ( 'NONE',  ( 0.000000000000000000, 0.000000000000000000, 0.000000000000000000 ) ) ;
#168 = EDGE_CURVE ( 'NONE', #190, #202, #192, .T. ) ;
#169 = VECTOR ( 'NONE', #584, 1000.000000000000000 ) ;
#170 = CARTESIAN_POINT ( 'NONE',  ( 15.00000000000000711, 76.00000000000000000, 0.000000000000000000 ) ) ;
#171 = VERTEX_POINT ( 'NONE', #529 ) ;
#172 = EDGE_CURVE ( 'NONE', #336, #376, #491, .T. ) ;
#173 = VERTEX_POINT ( 'NONE', #109 ) ;
#174 = AXIS2_PLACEMENT_3D ( 'NONE', #167, #360, #503 ) ;
#175 = EDGE_CURVE ( 'NONE', #43, #400, #144, .T. ) ;
#176 = EDGE_LOOP ( 'NONE', ( #13, #533, #108, #322 ) ) ;
#177 = AXIS2_PLACEMENT_3D ( 'NONE', #414, #599, #178 ) ;
#178 = DIRECTION ( 'NONE',  ( 1.000000000000000000, 0.000000000000000000, 0.000000000000000000 ) ) ;
#179 = VERTEX_POINT ( 'NONE', #102 ) ;
#180 = LINE ( 'NONE', #134, #231 ) ;
#181 = VERTEX_POINT ( 'NONE', #14 ) ;
#182 = AXIS2_PLACEMENT_3D ( 'NONE', #525, #338, #390 ) ;
#183 = VERTEX_POINT ( 'NONE', #18 ) ;
#184 = AXIS2_PLACEMENT_3D ( 'NONE', #355, #118, #591 ) ;
#185 = LINE ( 'NONE', #236, #445 ) ;
#186 = ADVANCED_FACE ( 'NONE', ( #345 ), #297, .F. ) ;
#187 = ORIENTED_EDGE ( 'NONE', *, *, #237, .T. ) ;
#188 = EDGE_CURVE ( 'NONE', #127, #274, #579, .T. ) ;
#189 = LINE ( 'NONE', #530, #341 ) ;
#190 = VERTEX_POINT ( 'NONE', #485 ) ;
#191 = FACE_OUTER_BOUND ( 'NONE', #359, .T. ) ;
#192 = LINE ( 'NONE', #488, #101 ) ;
#193 = EDGE_LOOP ( 'NONE', ( #7, #17 ) ) ;
#194 = EDGE_CURVE ( 'NONE', #183, #179, #520, .T. ) ;
#195 = DIRECTION ( 'NONE',  ( 0.000000000000000000, 0.000000000000000000, 1.000000000000000000 ) ) ;
#196 = EDGE_CURVE ( 'NONE', #46, #336, #254, .T. ) ;
#197 = DIRECTION ( 'NONE',  ( -0.9933208900111506479, -0.1153846153846161959, 0.000000000000000000 ) ) ;
#198 = ORIENTED_EDGE ( 'NONE', *, *, #481, .F. ) ;
#199 = UNCERTAINTY_MEASURE_WITH_UNIT (LENGTH_MEASURE( 1.000000000000000082E-05 ), #31, 'distance_accuracy_value', 'NONE');
#200 =( GEOMETRIC_REPRESENTATION_CONTEXT ( 3 ) GLOBAL_UNCERTAINTY_ASSIGNED_CONTEXT ( ( #333 ) ) GLOBAL_UNIT_ASSIGNED_CONTEXT ( ( #429, #291, #78 ) ) REPRESENTATION_CONTEXT ( 'NONE', 'WORKASPACE' ) );
#201 = DIRECTION ( 'NONE',  ( 0.000000000000000000, -0.000000000000000000, -1.000000000000000000 ) ) ;
#202 = VERTEX_POINT ( 'NONE', #253 ) ;
#203 = FACE_OUTER_BOUND ( 'NONE', #509, .T. ) ;
#204 = DIRECTION ( 'NONE',  ( 1.000000000000000000, 0.000000000000000000, 0.000000000000000000 ) ) ;
#205 = DIRECTION ( 'NONE',  ( 1.000000000000000000, 1.110223024625156540E-15, 0.000000000000000000 ) ) ;
#206 = DIRECTION ( 'NONE',  ( -0.000000000000000000, -0.000000000000000000, 1.000000000000000000 ) ) ;
#207 = DIRECTION ( 'NONE',  ( -8.673617379884034239E-17, 1.000000000000000000, 0.000000000000000000 ) ) ;
#208 = AXIS2_PLACEMENT_3D ( 'NONE', #327, #512, #49 ) ;
#209 = CARTESIAN_POINT ( 'NONE',  ( -14.99999999999999112, 56.00000000000000000, 0.000000000000000000 ) ) ;
#210 = ORIENTED_EDGE ( 'NONE', *, *, #168, .F. ) ;
#211 = LINE ( 'NONE', #119, #66 ) ;
#212 = CARTESIAN_POINT ( 'NONE',  ( -39.73283560044609430, 4.615384615384641620, 0.000000000000000000 ) ) ;
#213 = APPLICATION_PROTOCOL_DEFINITION ( 'draft international standard', 'automotive_design', 1998, #57 ) ;
#214 = CARTESIAN_POINT ( 'NONE',  ( 0.000000000000000000, 0.000000000000000000, 0.000000000000000000 ) ) ;
#215 = EDGE_CURVE ( 'NONE', #502, #173, #313, .T. ) ;
#216 = CYLINDRICAL_SURFACE ( 'NONE', #184, 25.00000000000000000 ) ;
#217 = AXIS2_PLACEMENT_3D ( 'NONE', #258, #442, #518 ) ;
#218 = VECTOR ( 'NONE', #314, 1000.000000000000000 ) ;
#219 = DIRECTION ( 'NONE',  ( 1.000000000000000000, 0.000000000000000000, 0.000000000000000000 ) ) ;
#220 = ORIENTED_EDGE ( 'NONE', *, *, #409, .T. ) ;
#221 = PRODUCT_CONTEXT ( 'NONE', #230, 'mechanical' ) ;
#222 = VECTOR ( 'NONE', #165, 1000.000000000000000 ) ;
#223 = DIRECTION ( 'NONE',  ( -1.000000000000000000, 0.000000000000000000, 0.000000000000000000 ) ) ;
#224 = EDGE_LOOP ( 'NONE', ( #420, #135 ) ) ;
#225 = SHAPE_DEFINITION_REPRESENTATION ( #363, #232 ) ;
#226 = MANIFOLD_SOLID_BREP ( 'Fillet1', #394 ) ;
#227 = ORIENTED_EDGE ( 'NONE', *, *, #541, .T. ) ;
#228 = CARTESIAN_POINT ( 'NONE',  ( -7.754117850198004654E-29, 7.263659990233639228E-13, 6.000000000000000000 ) ) ;
#229 = ORIENTED_EDGE ( 'NONE', *, *, #237, .F. ) ;
#230 = APPLICATION_CONTEXT ( 'automotive_design' ) ;
#231 = VECTOR ( 'NONE', #275, 1000.000000000000000 ) ;
#232 = ADVANCED_BREP_SHAPE_REPRESENTATION ( 'L2V1', ( #226, #174 ), #453 ) ;
#233 = DIRECTION ( 'NONE',  ( -0.000000000000000000, 0.000000000000000000, 1.000000000000000000 ) ) ;
#234 = CIRCLE ( 'NONE', #570, 40.00000000000000000 ) ;
#235 = ORIENTED_EDGE ( 'NONE', *, *, #194, .T. ) ;
#236 = CARTESIAN_POINT ( 'NONE',  ( -39.73283560044602325, 4.615384615385359268, -185.7905184913923051 ) ) ;
#237 = EDGE_CURVE ( 'NONE', #46, #285, #392, .T. ) ;
#238 = CARTESIAN_POINT ( 'NONE',  ( 39.73283560044610141, 4.615384615384656719, 0.000000000000000000 ) ) ;
#239 = EDGE_CURVE ( 'NONE', #171, #181, #211, .T. ) ;
#240 = VERTEX_POINT ( 'NONE', #160 ) ;
#241 = AXIS2_PLACEMENT_3D ( 'NONE', #145, #157, #68 ) ;
#242 = ORIENTED_EDGE ( 'NONE', *, *, #26, .T. ) ;
#243 = CARTESIAN_POINT ( 'NONE',  ( -14.99999999999999289, 76.00000000000000000, -185.7905184913923051 ) ) ;
#244 = DIRECTION ( 'NONE',  ( -0.1153846153846161959, 0.9933208900111506479, 0.000000000000000000 ) ) ;
#245 = EDGE_CURVE ( 'NONE', #502, #62, #493, .T. ) ;
#246 = ORIENTED_EDGE ( 'NONE', *, *, #86, .F. ) ;
#247 = FACE_OUTER_BOUND ( 'NONE', #294, .T. ) ;
#248 = DIRECTION ( 'NONE',  ( 1.000000000000000000, 0.000000000000000000, 0.000000000000000000 ) ) ;
#249 = AXIS2_PLACEMENT_3D ( 'NONE', #111, #141, #489 ) ;
#250 = VERTEX_POINT ( 'NONE', #410 ) ;
#251 = AXIS2_PLACEMENT_3D ( 'NONE', #494, #393, #75 ) ;
#252 = CARTESIAN_POINT ( 'NONE',  ( -1.592040838891559450E-14, 130.0000000000000000, 0.000000000000000000 ) ) ;
#253 = CARTESIAN_POINT ( 'NONE',  ( -14.99999999999999112, 56.00000000000000000, 6.000000000000000000 ) ) ;
#254 = CIRCLE ( 'NONE', #94, 15.00000000000000000 ) ;
#255 = FACE_OUTER_BOUND ( 'NONE', #278, .T. ) ;
#256 = ORIENTED_EDGE ( 'NONE', *, *, #282, .T. ) ;
#257 = DIRECTION ( 'NONE',  ( -1.000000000000000000, 0.000000000000000000, 0.000000000000000000 ) ) ;
#258 = CARTESIAN_POINT ( 'NONE',  ( 7.750839995123942218E-15, 76.00000000000000000, 0.000000000000000000 ) ) ;
#259 = ORIENTED_EDGE ( 'NONE', *, *, #398, .F. ) ;
#260 = DIRECTION ( 'NONE',  ( -8.673617379884036705E-17, 1.000000000000000000, 0.000000000000000000 ) ) ;
#261 = DIRECTION ( 'NONE',  ( -1.000000000000000000, 0.000000000000000000, 0.000000000000000000 ) ) ;
#262 = DIRECTION ( 'NONE',  ( -0.000000000000000000, -0.000000000000000000, 1.000000000000000000 ) ) ;
#263 = AXIS2_PLACEMENT_3D ( 'NONE', #388, #305, #380 ) ;
#264 = CARTESIAN_POINT ( 'NONE',  ( 15.00000000000000711, 76.00000000000001421, -185.7905184913923051 ) ) ;
#265 = DIRECTION ( 'NONE',  ( 0.000000000000000000, 0.000000000000000000, -1.000000000000000000 ) ) ;
#266 = ADVANCED_FACE ( 'NONE', ( #401 ), #452, .F. ) ;
#267 = CARTESIAN_POINT ( 'NONE',  ( 39.73283560044610141, 4.615384615384656719, 6.000000000000000000 ) ) ;
#268 = DIRECTION ( 'NONE',  ( 1.000000000000000000, 0.000000000000000000, 0.000000000000000000 ) ) ;
#269 = DIRECTION ( 'NONE',  ( -0.000000000000000000, -0.000000000000000000, 1.000000000000000000 ) ) ;
#270 = AXIS2_PLACEMENT_3D ( 'NONE', #252, #201, #15 ) ;
#271 = AXIS2_PLACEMENT_3D ( 'NONE', #264, #583, #161 ) ;
#272 = CARTESIAN_POINT ( 'NONE',  ( -40.00000000000000000, 3.054205339190667400E-21, 6.000000000000000000 ) ) ;
#273 = ORIENTED_EDGE ( 'NONE', *, *, #19, .T. ) ;
#274 = VERTEX_POINT ( 'NONE', #32 ) ;
#275 = DIRECTION ( 'NONE',  ( -0.000000000000000000, -0.000000000000000000, 1.000000000000000000 ) ) ;
#276 = ORIENTED_EDGE ( 'NONE', *, *, #188, .F. ) ;
#277 = LINE ( 'NONE', #44, #74 ) ;
#278 = EDGE_LOOP ( 'NONE', ( #367, #329, #351, #391 ) ) ;
#279 = VERTEX_POINT ( 'NONE', #170 ) ;
#280 = EDGE_CURVE ( 'NONE', #437, #43, #403, .T. ) ;
#281 = ORIENTED_EDGE ( 'NONE', *, *, #409, .F. ) ;
#282 = EDGE_CURVE ( 'NONE', #400, #58, #234, .T. ) ;
#283 = EDGE_LOOP ( 'NONE', ( #474, #330 ) ) ;
#284 = PRODUCT_DEFINITION_FORMATION_WITH_SPECIFIED_SOURCE ( 'ANY', '', #415, .NOT_KNOWN. ) ;
#285 = VERTEX_POINT ( 'NONE', #37 ) ;
#286 = ORIENTED_EDGE ( 'NONE', *, *, #417, .F. ) ;
#287 = CIRCLE ( 'NONE', #100, 38.00000000000000000 ) ;
#288 = AXIS2_PLACEMENT_3D ( 'NONE', #21, #9, #248 ) ;
#289 = DIRECTION ( 'NONE',  ( 1.000000000000000000, 0.000000000000000000, 0.000000000000000000 ) ) ;
#290 = ADVANCED_FACE ( 'NONE', ( #449 ), #29, .F. ) ;
#291 =( NAMED_UNIT ( * ) PLANE_ANGLE_UNIT ( ) SI_UNIT ( $, .RADIAN. ) );
#292 = VERTEX_POINT ( 'NONE', #544 ) ;
#293 = FACE_OUTER_BOUND ( 'NONE', #375, .T. ) ;
#294 = EDGE_LOOP ( 'NONE', ( #52, #490, #227, #466 ) ) ;
#295 = DIRECTION ( 'NONE',  ( 1.000000000000000000, 0.000000000000000000, 0.000000000000000000 ) ) ;
#296 = ORIENTED_EDGE ( 'NONE', *, *, #16, .T. ) ;
#297 = CYLINDRICAL_SURFACE ( 'NONE', #395, 15.00000000000000000 ) ;
#298 = AXIS2_PLACEMENT_3D ( 'NONE', #99, #162, #268 ) ;
#299 = CIRCLE ( 'NONE', #373, 38.00000000000000000 ) ;
#300 = CARTESIAN_POINT ( 'NONE',  ( 15.00000000000000711, 76.00000000000001421, -185.7905184913923051 ) ) ;
#301 = SURFACE_STYLE_FILL_AREA ( #339 ) ;
#302 = EDGE_CURVE ( 'NONE', #250, #181, #467, .T. ) ;
#303 = CARTESIAN_POINT ( 'NONE',  ( -40.00000000000000000, 3.054205339190667400E-21, 6.000000000000000000 ) ) ;
#304 = EDGE_CURVE ( 'NONE', #513, #62, #356, .T. ) ;
#305 = DIRECTION ( 'NONE',  ( 0.000000000000000000, -0.000000000000000000, -1.000000000000000000 ) ) ;
#306 = DIRECTION ( 'NONE',  ( -1.000000000000000000, 0.000000000000000000, 0.000000000000000000 ) ) ;
#307 = LINE ( 'NONE', #25, #218 ) ;
#308 = LINE ( 'NONE', #30, #424 ) ;
#309 = ORIENTED_EDGE ( 'NONE', *, *, #148, .T. ) ;
#310 = ADVANCED_FACE ( 'NONE', ( #501 ), #535, .F. ) ;
#311 = CARTESIAN_POINT ( 'NONE',  ( -24.83302225027878407, 132.8846153846154436, -185.7905184913923051 ) ) ;
#312 = DIRECTION ( 'NONE',  ( -0.000000000000000000, -0.000000000000000000, -1.000000000000000000 ) ) ;
#313 = CIRCLE ( 'NONE', #560, 25.00000000000000000 ) ;
#314 = DIRECTION ( 'NONE',  ( -0.000000000000000000, -0.000000000000000000, 1.000000000000000000 ) ) ;
#315 = DIRECTION ( 'NONE',  ( 0.000000000000000000, 0.000000000000000000, -1.000000000000000000 ) ) ;
#316 =( NAMED_UNIT ( * ) PLANE_ANGLE_UNIT ( ) SI_UNIT ( $, .RADIAN. ) );
#317 = DIRECTION ( 'NONE',  ( 1.000000000000000000, 0.000000000000000000, 0.000000000000000000 ) ) ;
#318 = EDGE_LOOP ( 'NONE', ( #146, #242, #505, #140 ) ) ;
#319 = VERTEX_POINT ( 'NONE', #123 ) ;
#320 = DIRECTION ( 'NONE',  ( 0.000000000000000000, 0.000000000000000000, 1.000000000000000000 ) ) ;
#321 = EDGE_CURVE ( 'NONE', #173, #513, #307, .T. ) ;
#322 = ORIENTED_EDGE ( 'NONE', *, *, #215, .F. ) ;
#323 = PLANE ( 'NONE',  #504 ) ;
#324 = EDGE_LOOP ( 'NONE', ( #413, #328, #286, #210 ) ) ;
#325 = AXIS2_PLACEMENT_3D ( 'NONE', #107, #154, #431 ) ;
#326 = CIRCLE ( 'NONE', #61, 15.00000000000000000 ) ;
#327 = CARTESIAN_POINT ( 'NONE',  ( 0.000000000000000000, 0.000000000000000000, 6.000000000000000000 ) ) ;
#328 = ORIENTED_EDGE ( 'NONE', *, *, #86, .T. ) ;
#329 = ORIENTED_EDGE ( 'NONE', *, *, #463, .T. ) ;
#330 = ORIENTED_EDGE ( 'NONE', *, *, #188, .T. ) ;
#331 = DIRECTION ( 'NONE',  ( -0.000000000000000000, -0.000000000000000000, -1.000000000000000000 ) ) ;
#332 = ORIENTED_EDGE ( 'NONE', *, *, #16, .F. ) ;
#333 = UNCERTAINTY_MEASURE_WITH_UNIT (LENGTH_MEASURE( 1.000000000000000082E-05 ), #429, 'distance_accuracy_value', 'NONE');
#334 = VECTOR ( 'NONE', #260, 1000.000000000000000 ) ;
#335 = FACE_BOUND ( 'NONE', #385, .T. ) ;
#336 = VERTEX_POINT ( 'NONE', #209 ) ;
#337 = LINE ( 'NONE', #569, #454 ) ;
#338 = DIRECTION ( 'NONE',  ( -0.000000000000000000, 0.000000000000000000, 1.000000000000000000 ) ) ;
#339 = FILL_AREA_STYLE ('',( #152 ) ) ;
#340 = EDGE_CURVE ( 'NONE', #292, #58, #586, .T. ) ;
#341 = VECTOR ( 'NONE', #563, 999.9999999999998863 ) ;
#342 = AXIS2_PLACEMENT_3D ( 'NONE', #77, #542, #23 ) ;
#343 = DIRECTION ( 'NONE',  ( -0.000000000000000000, -0.000000000000000000, 1.000000000000000000 ) ) ;
#344 = ADVANCED_FACE ( 'NONE', ( #499 ), #216, .T. ) ;
#345 = FACE_OUTER_BOUND ( 'NONE', #159, .T. ) ;
#346 = DIRECTION ( 'NONE',  ( 0.000000000000000000, 0.000000000000000000, 1.000000000000000000 ) ) ;
#347 = ORIENTED_EDGE ( 'NONE', *, *, #304, .T. ) ;
#348 = CARTESIAN_POINT ( 'NONE',  ( 39.73283560044610141, 4.615384615384656719, -185.7905184913923051 ) ) ;
#349 = ADVANCED_FACE ( 'NONE', ( #399 ), #402, .T. ) ;
#350 = DIRECTION ( 'NONE',  ( -0.000000000000000000, -0.000000000000000000, -1.000000000000000000 ) ) ;
#351 = ORIENTED_EDGE ( 'NONE', *, *, #215, .T. ) ;
#352 = CARTESIAN_POINT ( 'NONE',  ( 7.750839995123942218E-15, 76.00000000000000000, -185.7905184913923051 ) ) ;
#353 = CARTESIAN_POINT ( 'NONE',  ( 0.000000000000000000, 0.000000000000000000, 6.000000000000000000 ) ) ;
#354 = CARTESIAN_POINT ( 'NONE',  ( -1.592040838891559450E-14, 130.0000000000000000, -8.485281374238574870 ) ) ;
#355 = CARTESIAN_POINT ( 'NONE',  ( -1.592040838891559450E-14, 130.0000000000000000, -185.7905184913923051 ) ) ;
#356 = CIRCLE ( 'NONE', #486, 25.00000000000000000 ) ;
#357 = DIRECTION ( 'NONE',  ( -1.000000000000000000, 0.000000000000000000, -0.000000000000000000 ) ) ;
#358 = DIRECTION ( 'NONE',  ( -0.000000000000000000, -0.000000000000000000, 1.000000000000000000 ) ) ;
#359 = EDGE_LOOP ( 'NONE', ( #572, #155, #469, #24 ) ) ;
#360 = DIRECTION ( 'NONE',  ( 0.000000000000000000, 0.000000000000000000, 1.000000000000000000 ) ) ;
#361 = ADVANCED_FACE ( 'NONE', ( #158 ), #71, .T. ) ;
#362 = VERTEX_POINT ( 'NONE', #124 ) ;
#363 = PRODUCT_DEFINITION_SHAPE ( 'NONE', 'NONE',  #45 ) ;
#364 = CIRCLE ( 'NONE', #177, 3.000000000000000888 ) ;
#365 = ORIENTED_EDGE ( 'NONE', *, *, #565, .T. ) ;
#366 = CARTESIAN_POINT ( 'NONE',  ( 40.00000000000000000, 4.898587196589413026E-15, -21.50000000000000000 ) ) ;
#367 = ORIENTED_EDGE ( 'NONE', *, *, #282, .F. ) ;
#368 = ADVANCED_FACE ( 'NONE', ( #450 ), #120, .T. ) ;
#369 = CARTESIAN_POINT ( 'NONE',  ( 40.00000000000000000, -3.054205339190667400E-21, 6.000000000000000000 ) ) ;
#370 = EDGE_CURVE ( 'NONE', #62, #602, #308, .T. ) ;
#371 = AXIS2_PLACEMENT_3D ( 'NONE', #147, #573, #204 ) ;
#372 = DIRECTION ( 'NONE',  ( 0.000000000000000000, 0.000000000000000000, 1.000000000000000000 ) ) ;
#373 = AXIS2_PLACEMENT_3D ( 'NONE', #428, #8, #521 ) ;
#374 = EDGE_LOOP ( 'NONE', ( #187, #246, #427, #35 ) ) ;
#375 = EDGE_LOOP ( 'NONE', ( #559, #407, #96, #464 ) ) ;
#376 = VERTEX_POINT ( 'NONE', #27 ) ;
#377 = DIRECTION ( 'NONE',  ( 0.000000000000000000, 0.000000000000000000, -1.000000000000000000 ) ) ;
#378 = ORIENTED_EDGE ( 'NONE', *, *, #398, .T. ) ;
#379 = CYLINDRICAL_SURFACE ( 'NONE', #34, 40.00000000000000000 ) ;
#380 = DIRECTION ( 'NONE',  ( 1.000000000000000000, 0.000000000000000000, 0.000000000000000000 ) ) ;
#381 = EDGE_LOOP ( 'NONE', ( #259, #138, #515, #482, #95, #276 ) ) ;
#382 = CARTESIAN_POINT ( 'NONE',  ( -7.754117850198004654E-29, 7.263659990233639228E-13, 6.000000000000000000 ) ) ;
#383 = DIRECTION ( 'NONE',  ( 8.673617379884036705E-17, -1.000000000000000000, 0.000000000000000000 ) ) ;
#384 = AXIS2_PLACEMENT_3D ( 'NONE', #447, #588, #219 ) ;
#385 = EDGE_LOOP ( 'NONE', ( #309, #517, #10, #67 ) ) ;
#386 = DIRECTION ( 'NONE',  ( 1.000000000000000000, 0.000000000000000000, 0.000000000000000000 ) ) ;
#387 = EDGE_CURVE ( 'NONE', #142, #250, #20, .T. ) ;
#388 = CARTESIAN_POINT ( 'NONE',  ( -1.592040838891559450E-14, 130.0000000000000000, 0.000000000000000000 ) ) ;
#389 = EDGE_CURVE ( 'NONE', #513, #292, #156, .T. ) ;
#390 = DIRECTION ( 'NONE',  ( 1.000000000000000000, 0.000000000000000000, 0.000000000000000000 ) ) ;
#391 = ORIENTED_EDGE ( 'NONE', *, *, #128, .F. ) ;
#392 = LINE ( 'NONE', #73, #169 ) ;
#393 = DIRECTION ( 'NONE',  ( -0.9933208900111506479, 0.1153846153846158351, 0.000000000000000000 ) ) ;
#394 = CLOSED_SHELL ( 'NONE', ( #534, #290, #368, #472, #585, #361, #133, #600, #72, #310, #344, #412, #150, #349, #186, #514, #266, #426, #91 ) ) ;
#395 = AXIS2_PLACEMENT_3D ( 'NONE', #531, #438, #433 ) ;
#396 = ORIENTED_EDGE ( 'NONE', *, *, #578, .T. ) ;
#397 = CYLINDRICAL_SURFACE ( 'NONE', #288, 38.00000000000000000 ) ;
#398 = EDGE_CURVE ( 'NONE', #524, #127, #116, .T. ) ;
#399 = FACE_OUTER_BOUND ( 'NONE', #374, .T. ) ;
#400 = VERTEX_POINT ( 'NONE', #212 ) ;
#401 = FACE_OUTER_BOUND ( 'NONE', #103, .T. ) ;
#402 = PLANE ( 'NONE',  #271 ) ;
#403 = LINE ( 'NONE', #272, #222 ) ;
#404 = CIRCLE ( 'NONE', #217, 15.00000000000000000 ) ;
#405 = CARTESIAN_POINT ( 'NONE',  ( 0.000000000000000000, 0.000000000000000000, 0.000000000000000000 ) ) ;
#406 = DIRECTION ( 'NONE',  ( -0.000000000000000000, 0.000000000000000000, 1.000000000000000000 ) ) ;
#407 = ORIENTED_EDGE ( 'NONE', *, *, #280, .F. ) ;
#408 = VECTOR ( 'NONE', #262, 1000.000000000000000 ) ;
#409 = EDGE_CURVE ( 'NONE', #58, #524, #510, .T. ) ;
#410 = CARTESIAN_POINT ( 'NONE',  ( -38.00000000000000000, 4.653657836759941941E-15, 0.000000000000000000 ) ) ;
#411 = ORIENTED_EDGE ( 'NONE', *, *, #126, .T. ) ;
#412 = ADVANCED_FACE ( 'NONE', ( #536 ), #444, .T. ) ;
#413 = ORIENTED_EDGE ( 'NONE', *, *, #578, .F. ) ;
#414 = CARTESIAN_POINT ( 'NONE',  ( -1.592040838891559450E-14, 130.0000000000000000, 6.000000000000000000 ) ) ;
#415 = PRODUCT ( 'L2V1', 'L2V1', '', ( #221 ) ) ;
#416 = VECTOR ( 'NONE', #244, 999.9999999999998863 ) ;
#417 = EDGE_CURVE ( 'NONE', #202, #285, #326, .T. ) ;
#418 = ORIENTED_EDGE ( 'NONE', *, *, #558, .T. ) ;
#419 = FACE_OUTER_BOUND ( 'NONE', #564, .T. ) ;
#420 = ORIENTED_EDGE ( 'NONE', *, *, #471, .F. ) ;
#421 = CARTESIAN_POINT ( 'NONE',  ( 0.000000000000000000, 0.000000000000000000, -21.50000000000000000 ) ) ;
#422 = CIRCLE ( 'NONE', #249, 38.00000000000000000 ) ;
#423 = DIRECTION ( 'NONE',  ( -1.000000000000000000, 0.000000000000000000, 0.000000000000000000 ) ) ;
#424 = VECTOR ( 'NONE', #448, 1000.000000000000114 ) ;
#425 = ORIENTED_EDGE ( 'NONE', *, *, #302, .F. ) ;
#426 = ADVANCED_FACE ( 'NONE', ( #293 ), #379, .T. ) ;
#427 = ORIENTED_EDGE ( 'NONE', *, *, #558, .F. ) ;
#428 = CARTESIAN_POINT ( 'NONE',  ( 0.000000000000000000, 0.000000000000000000, -21.50000000000000000 ) ) ;
#429 =( LENGTH_UNIT ( ) NAMED_UNIT ( * ) SI_UNIT ( .MILLI., .METRE. ) );
#430 = ORIENTED_EDGE ( 'NONE', *, *, #387, .T. ) ;
#431 = DIRECTION ( 'NONE',  ( 1.000000000000000000, 0.000000000000000000, 0.000000000000000000 ) ) ;
#432 = CIRCLE ( 'NONE', #270, 3.000000000000000888 ) ;
#433 = DIRECTION ( 'NONE',  ( 1.000000000000000000, 0.000000000000000000, 0.000000000000000000 ) ) ;
#434 = VECTOR ( 'NONE', #312, 1000.000000000000000 ) ;
#435 = ORIENTED_EDGE ( 'NONE', *, *, #128, .T. ) ;
#436 = LINE ( 'NONE', #300, #59 ) ;
#437 = VERTEX_POINT ( 'NONE', #303 ) ;
#438 = DIRECTION ( 'NONE',  ( -0.000000000000000000, -0.000000000000000000, 1.000000000000000000 ) ) ;
#439 = PRESENTATION_LAYER_ASSIGNMENT (  '', '', ( #593 ) ) ;
#440 = DIRECTION ( 'NONE',  ( 0.000000000000000000, 0.000000000000000000, 1.000000000000000000 ) ) ;
#441 = DIRECTION ( 'NONE',  ( 0.1153846153846161959, -0.9933208900111506479, 0.000000000000000000 ) ) ;
#442 = DIRECTION ( 'NONE',  ( 0.000000000000000000, -0.000000000000000000, -1.000000000000000000 ) ) ;
#443 = DIRECTION ( 'NONE',  ( 0.000000000000000000, -0.000000000000000000, -1.000000000000000000 ) ) ;
#444 = PLANE ( 'NONE',  #251 ) ;
#445 = VECTOR ( 'NONE', #372, 1000.000000000000000 ) ;
#446 = VECTOR ( 'NONE', #465, 1000.000000000000000 ) ;
#447 = CARTESIAN_POINT ( 'NONE',  ( 0.000000000000000000, 0.000000000000000000, -21.50000000000000000 ) ) ;
#448 = DIRECTION ( 'NONE',  ( -0.1153846153846158351, -0.9933208900111505368, 0.000000000000000000 ) ) ;
#449 = FACE_OUTER_BOUND ( 'NONE', #551, .T. ) ;
#450 = FACE_OUTER_BOUND ( 'NONE', #598, .T. ) ;
#451 = PLANE ( 'NONE',  #33 ) ;
#452 = CYLINDRICAL_SURFACE ( 'NONE', #12, 15.00000000000000000 ) ;
#453 =( GEOMETRIC_REPRESENTATION_CONTEXT ( 3 ) GLOBAL_UNCERTAINTY_ASSIGNED_CONTEXT ( ( #199 ) ) GLOBAL_UNIT_ASSIGNED_CONTEXT ( ( #31, #316, #548 ) ) REPRESENTATION_CONTEXT ( 'NONE', 'WORKASPACE' ) );
#454 = VECTOR ( 'NONE', #6, 1000.000000000000000 ) ;
#455 = EDGE_CURVE ( 'NONE', #142, #171, #299, .T. ) ;
#456 = AXIS2_PLACEMENT_3D ( 'NONE', #354, #539, #117 ) ;
#457 = DIRECTION ( 'NONE',  ( -1.000000000000000000, 0.000000000000000000, 0.000000000000000000 ) ) ;
#458 = EDGE_CURVE ( 'NONE', #274, #127, #2, .T. ) ;
#459 = ORIENTED_EDGE ( 'NONE', *, *, #64, .F. ) ;
#460 = FACE_OUTER_BOUND ( 'NONE', #545, .T. ) ;
#461 = ORIENTED_EDGE ( 'NONE', *, *, #48, .T. ) ;
#462 = LINE ( 'NONE', #369, #601 ) ;
#463 = EDGE_CURVE ( 'NONE', #400, #502, #189, .T. ) ;
#464 = ORIENTED_EDGE ( 'NONE', *, *, #26, .F. ) ;
#465 = DIRECTION ( 'NONE',  ( -0.000000000000000000, -0.000000000000000000, 1.000000000000000000 ) ) ;
#466 = ORIENTED_EDGE ( 'NONE', *, *, #19, .F. ) ;
#467 = CIRCLE ( 'NONE', #122, 38.00000000000000000 ) ;
#468 = DIRECTION ( 'NONE',  ( 0.000000000000000000, 0.000000000000000000, -1.000000000000000000 ) ) ;
#469 = ORIENTED_EDGE ( 'NONE', *, *, #168, .T. ) ;
#470 = EDGE_LOOP ( 'NONE', ( #581, #568 ) ) ;
#471 = EDGE_CURVE ( 'NONE', #179, #183, #432, .T. ) ;
#472 = ADVANCED_FACE ( 'NONE', ( #255, #487, #335 ), #479, .F. ) ;
#473 = VECTOR ( 'NONE', #3, 1000.000000000000000 ) ;
#474 = ORIENTED_EDGE ( 'NONE', *, *, #458, .T. ) ;
#475 = AXIS2_PLACEMENT_3D ( 'NONE', #105, #577, #257 ) ;
#476 = CARTESIAN_POINT ( 'NONE',  ( -40.00000000000000000, 0.000000000000000000, 6.000000000000000000 ) ) ;
#477 = LINE ( 'NONE', #54, #22 ) ;
#478 = ORIENTED_EDGE ( 'NONE', *, *, #389, .F. ) ;
#479 = PLANE ( 'NONE',  #371 ) ;
#480 = CARTESIAN_POINT ( 'NONE',  ( -38.00000000000000000, 4.653657836759941941E-15, -21.50000000000000000 ) ) ;
#481 = EDGE_CURVE ( 'NONE', #43, #274, #143, .T. ) ;
#482 = ORIENTED_EDGE ( 'NONE', *, *, #280, .T. ) ;
#483 = DIRECTION ( 'NONE',  ( 1.000000000000000000, 0.000000000000000000, 0.000000000000000000 ) ) ;
#484 = CIRCLE ( 'NONE', #182, 40.00000000000000000 ) ;
#485 = CARTESIAN_POINT ( 'NONE',  ( -14.99999999999999289, 76.00000000000000000, 6.000000000000000000 ) ) ;
#486 = AXIS2_PLACEMENT_3D ( 'NONE', #125, #497, #317 ) ;
#487 = FACE_BOUND ( 'NONE', #224, .T. ) ;
#488 = CARTESIAN_POINT ( 'NONE',  ( -14.99999999999999289, 76.00000000000000000, 6.000000000000000000 ) ) ;
#489 = DIRECTION ( 'NONE',  ( -1.000000000000000000, 0.000000000000000000, 0.000000000000000000 ) ) ;
#490 = ORIENTED_EDGE ( 'NONE', *, *, #500, .T. ) ;
#491 = LINE ( 'NONE', #63, #334 ) ;
#492 = DIRECTION ( 'NONE',  ( 0.1153846153846161959, -0.9933208900111506479, 0.000000000000000000 ) ) ;
#493 = LINE ( 'NONE', #311, #408 ) ;
#494 = CARTESIAN_POINT ( 'NONE',  ( -39.73283560044610141, 4.615384615384642508, -185.7905184913923051 ) ) ;
#495 = DIRECTION ( 'NONE',  ( 1.000000000000000000, 0.000000000000000000, 0.000000000000000000 ) ) ;
#496 = CARTESIAN_POINT ( 'NONE',  ( -38.00000000000000000, 4.653657836759941941E-15, -21.50000000000000000 ) ) ;
#497 = DIRECTION ( 'NONE',  ( -0.000000000000000000, 0.000000000000000000, 1.000000000000000000 ) ) ;
#498 = EDGE_CURVE ( 'NONE', #98, #292, #110, .T. ) ;
#499 = FACE_OUTER_BOUND ( 'NONE', #176, .T. ) ;
#500 = EDGE_CURVE ( 'NONE', #183, #362, #337, .T. ) ;
#501 = FACE_OUTER_BOUND ( 'NONE', #594, .T. ) ;
#502 = VERTEX_POINT ( 'NONE', #53 ) ;
#503 = DIRECTION ( 'NONE',  ( 1.000000000000000000, 0.000000000000000000, 0.000000000000000000 ) ) ;
#504 = AXIS2_PLACEMENT_3D ( 'NONE', #508, #233, #90 ) ;
#505 = ORIENTED_EDGE ( 'NONE', *, *, #370, .F. ) ;
#506 = DIRECTION ( 'NONE',  ( 8.673617379884034239E-17, -1.000000000000000000, 0.000000000000000000 ) ) ;
#507 = ORIENTED_EDGE ( 'NONE', *, *, #196, .T. ) ;
#508 = CARTESIAN_POINT ( 'NONE',  ( 0.000000000000000000, 0.000000000000000000, 0.000000000000000000 ) ) ;
#509 = EDGE_LOOP ( 'NONE', ( #40, #1, #435, #4 ) ) ;
#510 = CIRCLE ( 'NONE', #112, 40.00000000000000000 ) ;
#511 = COLOUR_RGB ( '',0.7921568627450980005, 0.8196078431372548767, 0.9333333333333333481 ) ;
#512 = DIRECTION ( 'NONE',  ( -0.000000000000000000, 0.000000000000000000, 1.000000000000000000 ) ) ;
#513 = VERTEX_POINT ( 'NONE', #151 ) ;
#514 = ADVANCED_FACE ( 'NONE', ( #191 ), #114, .F. ) ;
#515 = ORIENTED_EDGE ( 'NONE', *, *, #48, .F. ) ;
#516 = EDGE_CURVE ( 'NONE', #602, #437, #484, .T. ) ;
#517 = ORIENTED_EDGE ( 'NONE', *, *, #565, .F. ) ;
#518 = DIRECTION ( 'NONE',  ( 1.000000000000000000, 0.000000000000000000, 0.000000000000000000 ) ) ;
#519 = ORIENTED_EDGE ( 'NONE', *, *, #175, .T. ) ;
#520 = CIRCLE ( 'NONE', #263, 3.000000000000000888 ) ;
#521 = DIRECTION ( 'NONE',  ( -1.000000000000000000, 0.000000000000000000, 0.000000000000000000 ) ) ;
#522 = EDGE_CURVE ( 'NONE', #181, #250, #422, .T. ) ;
#523 = FACE_OUTER_BOUND ( 'NONE', #55, .T. ) ;
#524 = VERTEX_POINT ( 'NONE', #575 ) ;
#525 = CARTESIAN_POINT ( 'NONE',  ( -8.628166150854816622E-29, 7.263659990233648316E-13, 6.000000000000005329 ) ) ;
#526 = PLANE ( 'NONE',  #130 ) ;
#527 = CARTESIAN_POINT ( 'NONE',  ( -8.628166150854816622E-29, 7.263659990233648316E-13, -185.7905184913923051 ) ) ;
#528 = VECTOR ( 'NONE', #331, 1000.000000000000000 ) ;
#529 = CARTESIAN_POINT ( 'NONE',  ( 38.00000000000000000, 0.000000000000000000, -21.50000000000000000 ) ) ;
#530 = CARTESIAN_POINT ( 'NONE',  ( -39.73283560044610141, 4.615384615384642508, 0.000000000000000000 ) ) ;
#531 = CARTESIAN_POINT ( 'NONE',  ( 8.975486794271295277E-15, 56.00000000000000711, -185.7905184913923051 ) ) ;
#532 = CARTESIAN_POINT ( 'NONE',  ( 40.00000000000000000, 4.898587196589413026E-15, 6.000000000000000000 ) ) ;
#533 = ORIENTED_EDGE ( 'NONE', *, *, #304, .F. ) ;
#534 = ADVANCED_FACE ( 'NONE', ( #247 ), #69, .F. ) ;
#535 = CYLINDRICAL_SURFACE ( 'NONE', #456, 3.000000000000000888 ) ;
#536 = FACE_OUTER_BOUND ( 'NONE', #318, .T. ) ;
#537 = DIRECTION ( 'NONE',  ( -0.000000000000000000, -0.000000000000000000, -1.000000000000000000 ) ) ;
#538 = PRODUCT_RELATED_PRODUCT_CATEGORY ( 'part', '', ( #415 ) ) ;
#539 = DIRECTION ( 'NONE',  ( -0.000000000000000000, -0.000000000000000000, 1.000000000000000000 ) ) ;
#540 = MECHANICAL_DESIGN_GEOMETRIC_PRESENTATION_REPRESENTATION (  '', ( #593 ), #200 ) ;
#541 = EDGE_CURVE ( 'NONE', #362, #240, #136, .T. ) ;
#542 = DIRECTION ( 'NONE',  ( -0.000000000000000000, -0.000000000000000000, -1.000000000000000000 ) ) ;
#543 = CARTESIAN_POINT ( 'NONE',  ( -39.73283560044602325, 4.615384615385359268, 6.000000000000000000 ) ) ;
#544 = CARTESIAN_POINT ( 'NONE',  ( 39.73283560044602325, 4.615384615385372591, 6.000000000000000000 ) ) ;
#545 = EDGE_LOOP ( 'NONE', ( #89, #596, #461, #83, #478, #347 ) ) ;
#546 = AXIS2_PLACEMENT_3D ( 'NONE', #121, #79, #357 ) ;
#547 = EDGE_LOOP ( 'NONE', ( #332, #38 ) ) ;
#548 =( NAMED_UNIT ( * ) SI_UNIT ( $, .STERADIAN. ) SOLID_ANGLE_UNIT ( ) );
#549 = DIRECTION ( 'NONE',  ( 1.000000000000000000, 0.000000000000000000, 0.000000000000000000 ) ) ;
#550 = AXIS2_PLACEMENT_3D ( 'NONE', #228, #320, #549 ) ;
#551 = EDGE_LOOP ( 'NONE', ( #296, #430, #97, #562 ) ) ;
#552 = LINE ( 'NONE', #571, #416 ) ;
#553 = ORIENTED_EDGE ( 'NONE', *, *, #498, .F. ) ;
#554 = DIRECTION ( 'NONE',  ( -0.000000000000000000, -0.000000000000000000, -1.000000000000000000 ) ) ;
#555 = CIRCLE ( 'NONE', #298, 15.00000000000000000 ) ;
#556 = VECTOR ( 'NONE', #350, 1000.000000000000000 ) ;
#557 = CARTESIAN_POINT ( 'NONE',  ( -40.00000000000000000, 0.000000000000000000, 0.000000000000000000 ) ) ;
#558 = EDGE_CURVE ( 'NONE', #279, #319, #436, .T. ) ;
#559 = ORIENTED_EDGE ( 'NONE', *, *, #175, .F. ) ;
#560 = AXIS2_PLACEMENT_3D ( 'NONE', #574, #115, #205 ) ;
#561 = CARTESIAN_POINT ( 'NONE',  ( -24.83302225027877697, 132.8846153846154436, 6.000000000000005329 ) ) ;
#562 = ORIENTED_EDGE ( 'NONE', *, *, #239, .F. ) ;
#563 = DIRECTION ( 'NONE',  ( 0.1153846153846158351, 0.9933208900111506479, 0.000000000000000000 ) ) ;
#564 = EDGE_LOOP ( 'NONE', ( #281, #604, #553, #50 ) ) ;
#565 = EDGE_CURVE ( 'NONE', #376, #279, #404, .T. ) ;
#566 = DIRECTION ( 'NONE',  ( -1.000000000000000000, 0.000000000000000000, 0.000000000000000000 ) ) ;
#567 = PRESENTATION_STYLE_ASSIGNMENT (( #70 ) ) ;
#568 = ORIENTED_EDGE ( 'NONE', *, *, #302, .T. ) ;
#569 = CARTESIAN_POINT ( 'NONE',  ( -3.000000000000016875, 130.0000000000000000, -8.485281374238574870 ) ) ;
#570 = AXIS2_PLACEMENT_3D ( 'NONE', #76, #265, #223 ) ;
#571 = CARTESIAN_POINT ( 'NONE',  ( 39.73283560044610141, 4.615384615384656719, 0.000000000000000000 ) ) ;
#572 = ORIENTED_EDGE ( 'NONE', *, *, #172, .T. ) ;
#573 = DIRECTION ( 'NONE',  ( -0.000000000000000000, 0.000000000000000000, 1.000000000000000000 ) ) ;
#574 = CARTESIAN_POINT ( 'NONE',  ( -1.592040838891559450E-14, 130.0000000000000000, 0.000000000000000000 ) ) ;
#575 = CARTESIAN_POINT ( 'NONE',  ( 40.00000000000000000, -3.054205339190667400E-21, 0.000000000000000000 ) ) ;
#576 = ORIENTED_EDGE ( 'NONE', *, *, #84, .T. ) ;
#577 = DIRECTION ( 'NONE',  ( 0.000000000000000000, 0.000000000000000000, -1.000000000000000000 ) ) ;
#578 = EDGE_CURVE ( 'NONE', #319, #190, #555, .T. ) ;
#579 = CIRCLE ( 'NONE', #475, 40.00000000000000000 ) ;
#580 = CARTESIAN_POINT ( 'NONE',  ( 8.975486794271295277E-15, 56.00000000000000711, 6.000000000000000000 ) ) ;
#581 = ORIENTED_EDGE ( 'NONE', *, *, #522, .T. ) ;
#582 = DIRECTION ( 'NONE',  ( 1.000000000000000000, 0.000000000000000000, 0.000000000000000000 ) ) ;
#583 = DIRECTION ( 'NONE',  ( -1.000000000000000000, -8.673617379884034239E-17, 0.000000000000000000 ) ) ;
#584 = DIRECTION ( 'NONE',  ( -0.000000000000000000, -0.000000000000000000, 1.000000000000000000 ) ) ;
#585 = ADVANCED_FACE ( 'NONE', ( #460, #587, #39 ), #451, .T. ) ;
#586 = LINE ( 'NONE', #166, #434 ) ;
#587 = FACE_BOUND ( 'NONE', #193, .T. ) ;
#588 = DIRECTION ( 'NONE',  ( -0.000000000000000000, -0.000000000000000000, 1.000000000000000000 ) ) ;
#589 = AXIS2_PLACEMENT_3D ( 'NONE', #60, #195, #295 ) ;
#590 = VECTOR ( 'NONE', #206, 1000.000000000000000 ) ;
#591 = DIRECTION ( 'NONE',  ( 1.000000000000000000, 0.000000000000000000, 0.000000000000000000 ) ) ;
#592 = PLANE ( 'NONE',  #546 ) ;
#593 = STYLED_ITEM ( 'NONE', ( #567 ), #226 ) ;
#594 = EDGE_LOOP ( 'NONE', ( #87, #235, #273, #411 ) ) ;
#595 = CARTESIAN_POINT ( 'NONE',  ( 0.000000000000000000, 0.000000000000000000, 6.000000000000000000 ) ) ;
#596 = ORIENTED_EDGE ( 'NONE', *, *, #516, .T. ) ;
#597 = DIRECTION ( 'NONE',  ( 1.000000000000000000, 0.000000000000000000, 0.000000000000000000 ) ) ;
#598 = EDGE_LOOP ( 'NONE', ( #220, #378, #5, #198, #519, #256 ) ) ;
#599 = DIRECTION ( 'NONE',  ( 0.000000000000000000, 0.000000000000000000, 1.000000000000000000 ) ) ;
#600 = ADVANCED_FACE ( 'NONE', ( #28, #85 ), #592, .T. ) ;
#601 = VECTOR ( 'NONE', #554, 1000.000000000000000 ) ;
#602 = VERTEX_POINT ( 'NONE', #543 ) ;
#603 = CYLINDRICAL_SURFACE ( 'NONE', #550, 40.00000000000000000 ) ;
#604 = ORIENTED_EDGE ( 'NONE', *, *, #340, .F. ) ;
#605 = LINE ( 'NONE', #47, #473 ) ;
ENDSEC;
END-ISO-10303-21;
